<svg xmlns="http://www.w3.org/2000/svg" xmlns:xlink="http://www.w3.org/1999/xlink" contentStyleType="text/css" data-diagram-type="DESCRIPTION" height="647px" preserveAspectRatio="none" style="width:2949px;height:647px;" version="1.1" viewBox="0 0 2949 647" width="2949px" zoomAndPan="magnify"><?plantuml 1.2026.6?><defs/><g><g class="title" data-source-line="19"><text fill="#000000" font-family="Inter" font-size="14" font-weight="700" lengthAdjust="spacing" textLength="351.6748" x="1295.1979" y="22.9951">Yocto Interactive Tutorial - App Architecture</text></g><!--cluster Next.js Static Export--><g class="cluster" data-qualified-name="Next.js Static Export" data-source-line="21" id="ent0001"><path d="M8.5,85.9169 L172.4756,85.9169 A3.75,3.75 0 0 1 174.9756,88.4169 L181.9756,108.2138 L2017.5,108.2138 A2.5,2.5 0 0 1 2020,110.7138 L2020,629.9769 A2.5,2.5 0 0 1 2017.5,632.4769 L8.5,632.4769 A2.5,2.5 0 0 1 6,629.9769 L6,88.4169 A2.5,2.5 0 0 1 8.5,85.9169" fill="#F3E8FD" style="stroke:#9334E6;stroke-width:1.5;"/><line style="stroke:#9334E6;stroke-width:1.5;" x1="6" x2="181.9756" y1="108.2138" y2="108.2138"/><text fill="#000000" font-family="Inter" font-size="14" font-weight="700" lengthAdjust="spacing" textLength="162.9756" x="10" y="100.912">Next.js Static Export</text></g><!--cluster DataLayer--><g class="cluster" data-qualified-name="Next.js Static Export.DataLayer" data-source-line="23" id="ent0002"><path d="M40.5,141.3369 L211.3662,141.3369 A3.75,3.75 0 0 1 213.8662,143.8369 L220.8662,163.6337 L797.5,163.6337 A2.5,2.5 0 0 1 800,166.1337 L800,457.2669 A2.5,2.5 0 0 1 797.5,459.7669 L40.5,459.7669 A2.5,2.5 0 0 1 38,457.2669 L38,143.8369 A2.5,2.5 0 0 1 40.5,141.3369" fill="#F3E8FD" style="stroke:#9334E6;stroke-width:1.5;"/><line style="stroke:#9334E6;stroke-width:1.5;" x1="38" x2="220.8662" y1="163.6337" y2="163.6337"/><text fill="#000000" font-family="Inter" font-size="14" font-weight="700" lengthAdjust="spacing" textLength="169.8662" x="42" y="156.332">data/ (Content Layer)</text></g><!--cluster Components--><g class="cluster" data-qualified-name="Next.js Static Export.Components" data-source-line="32" id="ent0009"><path d="M842.5,333.0469 L991.6621,333.0469 A3.75,3.75 0 0 1 994.1621,335.5469 L1001.1621,355.3437 L1985.5,355.3437 A2.5,2.5 0 0 1 1988,357.8437 L1988,597.9769 A2.5,2.5 0 0 1 1985.5,600.4769 L842.5,600.4769 A2.5,2.5 0 0 1 840,597.9769 L840,335.5469 A2.5,2.5 0 0 1 842.5,333.0469" fill="#F3E8FD" style="stroke:#9334E6;stroke-width:1.5;"/><line style="stroke:#9334E6;stroke-width:1.5;" x1="840" x2="1001.1621" y1="355.3437" y2="355.3437"/><text fill="#000000" font-family="Inter" font-size="14" font-weight="700" lengthAdjust="spacing" textLength="148.1621" x="844" y="348.042">React Components</text></g><!--cluster Hooks--><g class="cluster" data-qualified-name="Next.js Static Export.Hooks" data-source-line="40" id="ent0015"><path d="M1446.5,136.9169 L1496.0967,136.9169 A3.75,3.75 0 0 1 1498.5967,139.4169 L1505.5967,159.2137 L1985.5,159.2137 A2.5,2.5 0 0 1 1988,161.7137 L1988,265.5469 A2.5,2.5 0 0 1 1985.5,268.0469 L1446.5,268.0469 A2.5,2.5 0 0 1 1444,265.5469 L1444,139.4169 A2.5,2.5 0 0 1 1446.5,136.9169" fill="#F3E8FD" style="stroke:#9334E6;stroke-width:1.5;"/><line style="stroke:#9334E6;stroke-width:1.5;" x1="1444" x2="1505.5967" y1="159.2137" y2="159.2137"/><text fill="#000000" font-family="Inter" font-size="14" font-weight="700" lengthAdjust="spacing" textLength="48.5967" x="1448" y="151.912">Hooks</text></g><!--cluster Utils--><g class="cluster" data-qualified-name="Utils" data-source-line="46" id="ent0018"><path d="M2241.5,341.0469 L2304.2764,341.0469 A3.75,3.75 0 0 1 2306.7764,343.5469 L2313.7764,363.3437 L2738.5,363.3437 A2.5,2.5 0 0 1 2741,365.8437 L2741,453.6769 A2.5,2.5 0 0 1 2738.5,456.1769 L2241.5,456.1769 A2.5,2.5 0 0 1 2239,453.6769 L2239,343.5469 A2.5,2.5 0 0 1 2241.5,341.0469" fill="#F3E8FD" style="stroke:#9334E6;stroke-width:1.5;"/><line style="stroke:#9334E6;stroke-width:1.5;" x1="2239" x2="2313.7764" y1="363.3437" y2="363.3437"/><text fill="#000000" font-family="Inter" font-size="14" font-weight="700" lengthAdjust="spacing" textLength="61.7764" x="2243" y="356.042">Utilities</text></g><!--entity Steps--><g class="entity" data-qualified-name="Next.js Static Export.DataLayer.Steps" data-source-line="24" id="ent0003"><path d="M80.99,205.8369 L80.99,237.1337 A2.5,2.5 0 0 0 83.49,239.6337 L228.5164,239.6337 A2.5,2.5 0 0 0 231.0164,237.1337 L231.0164,213.3369 L221.0164,203.3369 L83.49,203.3369 A2.5,2.5 0 0 0 80.99,205.8369" fill="#F1F1F1" style="stroke:#181818;stroke-width:0.5;"/><path d="M221.0164,203.3369 L221.0164,210.8369 A2.5,2.5 0 0 0 223.5164,213.3369 L231.0164,213.3369" fill="#F1F1F1" style="stroke:#181818;stroke-width:0.5;"/><text fill="#000000" font-family="Inter" font-size="14" lengthAdjust="spacing" textLength="130.0264" x="90.99" y="226.332">steps.ts (20 steps)</text></g><!--entity CodeFiles--><g class="entity" data-qualified-name="Next.js Static Export.DataLayer.CodeFiles" data-source-line="25" id="ent0004"><path d="M266.14,205.8369 L266.14,237.1337 A2.5,2.5 0 0 0 268.64,239.6337 L493.3597,239.6337 A2.5,2.5 0 0 0 495.8597,237.1337 L495.8597,213.3369 L485.8597,203.3369 L268.64,203.3369 A2.5,2.5 0 0 0 266.14,205.8369" fill="#F1F1F1" style="stroke:#181818;stroke-width:0.5;"/><path d="M485.8597,203.3369 L485.8597,210.8369 A2.5,2.5 0 0 0 488.3597,213.3369 L495.8597,213.3369" fill="#F1F1F1" style="stroke:#181818;stroke-width:0.5;"/><text fill="#000000" font-family="Inter" font-size="14" lengthAdjust="spacing" textLength="209.7197" x="276.14" y="226.332">code-files.ts (C, BitBake, DTS)</text></g><!--entity TermOut--><g class="entity" data-qualified-name="Next.js Static Export.DataLayer.TermOut" data-source-line="26" id="ent0005"><path d="M531.26,205.8369 L531.26,237.1337 A2.5,2.5 0 0 0 533.76,239.6337 L754.2346,239.6337 A2.5,2.5 0 0 0 756.7346,237.1337 L756.7346,213.3369 L746.7346,203.3369 L533.76,203.3369 A2.5,2.5 0 0 0 531.26,205.8369" fill="#F1F1F1" style="stroke:#181818;stroke-width:0.5;"/><path d="M746.7346,203.3369 L746.7346,210.8369 A2.5,2.5 0 0 0 749.2346,213.3369 L756.7346,213.3369" fill="#F1F1F1" style="stroke:#181818;stroke-width:0.5;"/><text fill="#000000" font-family="Inter" font-size="14" lengthAdjust="spacing" textLength="205.4746" x="541.26" y="226.332">terminal-output.ts (playback)</text></g><!--entity Trees--><g class="entity" data-qualified-name="Next.js Static Export.DataLayer.Trees" data-source-line="27" id="ent0006"><path d="M62.37,401.9669 L62.37,433.2637 A2.5,2.5 0 0 0 64.87,435.7637 L259.122,435.7637 A2.5,2.5 0 0 0 261.622,433.2637 L261.622,409.4669 L251.622,399.4669 L64.87,399.4669 A2.5,2.5 0 0 0 62.37,401.9669" fill="#F1F1F1" style="stroke:#181818;stroke-width:0.5;"/><path d="M251.622,399.4669 L251.622,406.9669 A2.5,2.5 0 0 0 254.122,409.4669 L261.622,409.4669" fill="#F1F1F1" style="stroke:#181818;stroke-width:0.5;"/><text fill="#000000" font-family="Inter" font-size="14" lengthAdjust="spacing" textLength="179.252" x="72.37" y="422.462">file-trees.ts (8 snapshots)</text></g><!--entity Diagrams--><g class="entity" data-qualified-name="Next.js Static Export.DataLayer.Diagrams" data-source-line="28" id="ent0007"><path d="M297,401.9669 L297,433.2637 A2.5,2.5 0 0 0 299.5,435.7637 L556.4922,435.7637 A2.5,2.5 0 0 0 558.9922,433.2637 L558.9922,409.4669 L548.9922,399.4669 L299.5,399.4669 A2.5,2.5 0 0 0 297,401.9669" fill="#F1F1F1" style="stroke:#181818;stroke-width:0.5;"/><path d="M548.9922,399.4669 L548.9922,406.9669 A2.5,2.5 0 0 0 551.4922,409.4669 L558.9922,409.4669" fill="#F1F1F1" style="stroke:#181818;stroke-width:0.5;"/><text fill="#000000" font-family="Inter" font-size="14" lengthAdjust="spacing" textLength="241.9922" x="307" y="422.462">diagrams.ts (6 diagram metadata)</text></g><!--entity Glossary--><g class="entity" data-qualified-name="Next.js Static Export.DataLayer.Glossary" data-source-line="29" id="ent0008"><path d="M593.89,401.9669 L593.89,433.2637 A2.5,2.5 0 0 0 596.39,435.7637 L765.6019,435.7637 A2.5,2.5 0 0 0 768.1019,433.2637 L768.1019,409.4669 L758.1019,399.4669 L596.39,399.4669 A2.5,2.5 0 0 0 593.89,401.9669" fill="#F1F1F1" style="stroke:#181818;stroke-width:0.5;"/><path d="M758.1019,399.4669 L758.1019,406.9669 A2.5,2.5 0 0 0 760.6019,409.4669 L768.1019,409.4669" fill="#F1F1F1" style="stroke:#181818;stroke-width:0.5;"/><text fill="#000000" font-family="Inter" font-size="14" lengthAdjust="spacing" textLength="154.2119" x="603.89" y="422.462">glossary.ts (26 terms)</text></g><!--entity Layout--><g class="entity" data-qualified-name="Next.js Static Export.Components.Layout" data-source-line="33" id="ent0010"><rect fill="#E8F0FE" height="45.1328" rx="2.5" ry="2.5" style="stroke:#1A73E8;stroke-width:0.5;" width="192.3818" x="863.81" y="395.0469"/><rect fill="#E8F0FE" height="10" style="stroke:#1A73E8;stroke-width:0.5;" width="15" x="1036.1918" y="400.0469"/><rect fill="#E8F0FE" height="2" style="stroke:#1A73E8;stroke-width:0.5;" width="4" x="1034.1918" y="402.0469"/><rect fill="#E8F0FE" height="2" style="stroke:#1A73E8;stroke-width:0.5;" width="4" x="1034.1918" y="406.0469"/><text fill="#000000" font-family="Inter" font-size="13" lengthAdjust="spacing" textLength="152.3818" x="878.81" y="427.1138">Three-Panel IDE Layout</text></g><!--entity FileTree--><g class="entity" data-qualified-name="Next.js Static Export.Components.FileTree" data-source-line="34" id="ent0011"><rect fill="#E8F0FE" height="45.1328" rx="2.5" ry="2.5" style="stroke:#1A73E8;stroke-width:0.5;" width="215.9126" x="1091.04" y="395.0469"/><rect fill="#E8F0FE" height="10" style="stroke:#1A73E8;stroke-width:0.5;" width="15" x="1286.9526" y="400.0469"/><rect fill="#E8F0FE" height="2" style="stroke:#1A73E8;stroke-width:0.5;" width="4" x="1284.9526" y="402.0469"/><rect fill="#E8F0FE" height="2" style="stroke:#1A73E8;stroke-width:0.5;" width="4" x="1284.9526" y="406.0469"/><text fill="#000000" font-family="Inter" font-size="13" lengthAdjust="spacing" textLength="175.9126" x="1106.04" y="427.1138">Left: FileTree (hierarchical)</text></g><!--entity CodeViewer--><g class="entity" data-qualified-name="Next.js Static Export.Components.CodeViewer" data-source-line="35" id="ent0012"><rect fill="#E8F0FE" height="45.1328" rx="2.5" ry="2.5" style="stroke:#1A73E8;stroke-width:0.5;" width="285.9844" x="1342.01" y="395.0469"/><rect fill="#E8F0FE" height="10" style="stroke:#1A73E8;stroke-width:0.5;" width="15" x="1607.9944" y="400.0469"/><rect fill="#E8F0FE" height="2" style="stroke:#1A73E8;stroke-width:0.5;" width="4" x="1605.9944" y="402.0469"/><rect fill="#E8F0FE" height="2" style="stroke:#1A73E8;stroke-width:0.5;" width="4" x="1605.9944" y="406.0469"/><text fill="#000000" font-family="Inter" font-size="13" lengthAdjust="spacing" textLength="245.9844" x="1357.01" y="427.1138">Center Top: CodeViewer (highlighted)</text></g><!--entity Terminal--><g class="entity" data-qualified-name="Next.js Static Export.Components.Terminal" data-source-line="36" id="ent0013"><rect fill="#E8F0FE" height="45.1328" rx="2.5" ry="2.5" style="stroke:#1A73E8;stroke-width:0.5;" width="281.4521" x="1663.27" y="395.0469"/><rect fill="#E8F0FE" height="10" style="stroke:#1A73E8;stroke-width:0.5;" width="15" x="1924.7221" y="400.0469"/><rect fill="#E8F0FE" height="2" style="stroke:#1A73E8;stroke-width:0.5;" width="4" x="1922.7221" y="402.0469"/><rect fill="#E8F0FE" height="2" style="stroke:#1A73E8;stroke-width:0.5;" width="4" x="1922.7221" y="406.0469"/><text fill="#000000" font-family="Inter" font-size="13" lengthAdjust="spacing" textLength="241.4521" x="1678.27" y="427.1138">Center Bottom: Terminal (xterm.js 6)</text></g><!--entity Objectives--><g class="entity" data-qualified-name="Next.js Static Export.Components.Objectives" data-source-line="37" id="ent0014"><rect fill="#E8F0FE" height="45.1328" rx="2.5" ry="2.5" style="stroke:#1A73E8;stroke-width:0.5;" width="250.9517" x="863.52" y="531.3469"/><rect fill="#E8F0FE" height="10" style="stroke:#1A73E8;stroke-width:0.5;" width="15" x="1094.4717" y="536.3469"/><rect fill="#E8F0FE" height="2" style="stroke:#1A73E8;stroke-width:0.5;" width="4" x="1092.4717" y="538.3469"/><rect fill="#E8F0FE" height="2" style="stroke:#1A73E8;stroke-width:0.5;" width="4" x="1092.4717" y="542.3469"/><text fill="#000000" font-family="Inter" font-size="13" lengthAdjust="spacing" textLength="210.9517" x="878.52" y="563.4138">Right: ObjectivePanel (step info)</text></g><!--entity TerminalHook--><g class="entity" data-qualified-name="Next.js Static Export.Hooks.TerminalHook" data-source-line="41" id="ent0016"><rect fill="#E8F0FE" height="45.1328" rx="2.5" ry="2.5" style="stroke:#1A73E8;stroke-width:0.5;" width="227.5923" x="1487.2" y="198.9169"/><rect fill="#E8F0FE" height="10" style="stroke:#1A73E8;stroke-width:0.5;" width="15" x="1694.7923" y="203.9169"/><rect fill="#E8F0FE" height="2" style="stroke:#1A73E8;stroke-width:0.5;" width="4" x="1692.7923" y="205.9169"/><rect fill="#E8F0FE" height="2" style="stroke:#1A73E8;stroke-width:0.5;" width="4" x="1692.7923" y="209.9169"/><text fill="#000000" font-family="Inter" font-size="13" lengthAdjust="spacing" textLength="187.5923" x="1502.2" y="230.9838">useTerminal (state machine)</text></g><!--entity ProgressHook--><g class="entity" data-qualified-name="Next.js Static Export.Hooks.ProgressHook" data-source-line="42" id="ent0017"><rect fill="#E8F0FE" height="45.1328" rx="2.5" ry="2.5" style="stroke:#1A73E8;stroke-width:0.5;" width="214.7192" x="1749.64" y="198.9169"/><rect fill="#E8F0FE" height="10" style="stroke:#1A73E8;stroke-width:0.5;" width="15" x="1944.3592" y="203.9169"/><rect fill="#E8F0FE" height="2" style="stroke:#1A73E8;stroke-width:0.5;" width="4" x="1942.3592" y="205.9169"/><rect fill="#E8F0FE" height="2" style="stroke:#1A73E8;stroke-width:0.5;" width="4" x="1942.3592" y="209.9169"/><text fill="#000000" font-family="Inter" font-size="13" lengthAdjust="spacing" textLength="174.7192" x="1764.64" y="230.9838">useProgress (localStorage)</text></g><!--entity Highlighter--><g class="entity" data-qualified-name="Utils.Highlighter" data-source-line="47" id="ent0019"><rect fill="#E8F0FE" height="45.1328" rx="2.5" ry="2.5" style="stroke:#1A73E8;stroke-width:0.5;" width="215.043" x="2255.48" y="395.0469"/><rect fill="#E8F0FE" height="10" style="stroke:#1A73E8;stroke-width:0.5;" width="15" x="2450.523" y="400.0469"/><rect fill="#E8F0FE" height="2" style="stroke:#1A73E8;stroke-width:0.5;" width="4" x="2448.523" y="402.0469"/><rect fill="#E8F0FE" height="2" style="stroke:#1A73E8;stroke-width:0.5;" width="4" x="2448.523" y="406.0469"/><text fill="#000000" font-family="Inter" font-size="13" lengthAdjust="spacing" textLength="175.043" x="2270.48" y="427.1138">Custom Syntax Highlighter</text></g><!--entity Playback--><g class="entity" data-qualified-name="Utils.Playback" data-source-line="48" id="ent0020"><rect fill="#E8F0FE" height="45.1328" rx="2.5" ry="2.5" style="stroke:#1A73E8;stroke-width:0.5;" width="219.4863" x="2505.26" y="395.0469"/><rect fill="#E8F0FE" height="10" style="stroke:#1A73E8;stroke-width:0.5;" width="15" x="2704.7463" y="400.0469"/><rect fill="#E8F0FE" height="2" style="stroke:#1A73E8;stroke-width:0.5;" width="4" x="2702.7463" y="402.0469"/><rect fill="#E8F0FE" height="2" style="stroke:#1A73E8;stroke-width:0.5;" width="4" x="2702.7463" y="406.0469"/><text fill="#000000" font-family="Inter" font-size="13" lengthAdjust="spacing" textLength="179.4863" x="2520.26" y="427.1138">Playback Controls (0.5x-5x)</text></g><!--entity GH--><g class="entity" data-qualified-name="GH" data-source-line="51" id="ent0021"><path d="M2044.6067,539.1378 C2049.05,531.3253 2056.1086,531.7249 2061.2356,538.3504 C2066.0255,530.6236 2071.7795,529.6051 2077.1919,537.7234 C2080.6702,530.538 2087.0358,530.3494 2090.7251,537.5245 C2095.4904,530.3042 2101.2647,528.8681 2106.9044,536.5767 C2111.55,527.9916 2117.6724,528.997 2122.9199,535.9566 C2127.6162,530.5735 2131.8261,529.7569 2135.751,536.7559 C2140.2799,530.0704 2146.4058,527.8306 2151.5377,536.1202 C2157.0338,529.6425 2162.6839,529.7337 2167.6841,536.7151 C2172.2405,529.8501 2179.3478,530.4833 2182.3958,538.2335 C2186.6237,529.9862 2193.7691,530.4196 2199.1358,536.943 C2203.1211,529.4857 2209.9597,531.0065 2213.0923,537.7794 C2218.0933,530.6966 2223.7961,529.5275 2228.9192,537.6523 C2234.864,531.1873 2240.4441,530.3702 2245.2445,538.8984 C2249.3817,532.3674 2256.4858,531.6778 2259.7781,539.7399 C2267.2855,541.9026 2270.9679,548.1279 2264.8256,554.8503 C2270.7528,561.9927 2266.4043,568.812 2258.287,569.8199 C2255.7302,576.9321 2249.078,577.2933 2244.4867,572.1018 C2240.8849,579.639 2235.3474,579.546 2229.9977,574.044 C2226.9595,583.3471 2218.4209,583.7421 2212.9352,576.5802 C2207.8913,583.2526 2202.4082,584.7844 2197.0542,576.9191 C2193.3603,584.3409 2189.1637,585.6473 2183.1293,579.2831 C2177.7436,588.0292 2172.1744,586.3025 2166.974,579.0955 C2163.4028,586.0608 2158.7708,585.5459 2153.7177,580.7683 C2147.6213,589.1352 2140.4236,588.2965 2135.8936,579.1721 C2131.4539,585.1619 2126.4135,585.1761 2121.8423,579.3281 C2116.6433,587.9228 2109.2671,586.2247 2105.1252,578.2609 C2099.2856,584.1409 2093.9195,581.7646 2091.4922,574.6742 C2085.7951,581.4376 2080.3494,581.4387 2076.5839,572.8041 C2071.2451,580.7029 2066.4732,581.1524 2060.8212,573.1139 C2054.8706,579.3073 2047.1091,578.5812 2044.3911,569.6112 C2033.9817,570.5531 2031.9565,564.3968 2034.2003,555.9203 C2028.7442,544.5636 2033.1481,540.006 2044.6067,539.1378" fill="#F1F1F1" style="stroke:#181818;stroke-width:0.5;"/><text fill="#000000" font-family="Inter" font-size="14" lengthAdjust="spacing" textLength="200.1699" x="2050.92" y="558.762">GitHub Pages (static deploy)</text></g><g class="entity" data-qualified-name="GMN27" data-source-line="60" id="ent0028"><path d="M2035.51,195.5269 L2035.51,247.4331 L2238.4846,247.4331 L2238.4846,205.5269 L2228.4846,195.5269 L2035.51,195.5269" fill="#FFF3E0" style="stroke:#E65100;stroke-width:0.5;"/><path d="M2228.4846,195.5269 L2228.4846,205.5269 L2238.4846,205.5269 L2228.4846,195.5269" fill="#FFF3E0" style="stroke:#E65100;stroke-width:1;"/><text fill="#000000" font-family="Inter" font-size="12" lengthAdjust="spacing" textLength="153.3867" x="2041.51" y="211.6655">Adding a step = editing a</text><text fill="#000000" font-family="Inter" font-size="12" lengthAdjust="spacing" textLength="181.9746" x="2041.51" y="225.6343">TypeScript file. No component</text><text fill="#000000" font-family="Inter" font-size="12" lengthAdjust="spacing" textLength="103.0313" x="2041.51" y="239.603">changes needed.</text></g><g class="entity" data-qualified-name="GMN30" data-source-line="66" id="ent0031"><path d="M2035.71,384.6769 L2035.71,450.5519 L2220.292,450.5519 L2220.292,394.6769 L2210.292,384.6769 L2035.71,384.6769" fill="#FFF3E0" style="stroke:#E65100;stroke-width:0.5;"/><path d="M2210.292,384.6769 L2210.292,394.6769 L2220.292,394.6769 L2210.292,384.6769" fill="#FFF3E0" style="stroke:#E65100;stroke-width:1;"/><text fill="#000000" font-family="Inter" font-size="12" lengthAdjust="spacing" textLength="146.1563" x="2041.71" y="400.8155">StrictMode-safe via refs.</text><text fill="#000000" font-family="Inter" font-size="12" lengthAdjust="spacing" textLength="159.7793" x="2041.71" y="414.7843">Abort flag prevents leaked</text><text fill="#000000" font-family="Inter" font-size="12" lengthAdjust="spacing" textLength="163.582" x="2041.71" y="428.753">timeouts on double-mount.</text><text fill="#000000" font-family="Inter" font-size="12" lengthAdjust="spacing" textLength="154.916" x="2041.71" y="442.7218">20ms char delay x speed.</text></g><g class="entity" data-qualified-name="GMN33" data-source-line="73" id="ent0034"><path d="M2759.93,384.6769 L2759.93,450.5519 L2934.0706,450.5519 L2934.0706,394.6769 L2924.0706,384.6769 L2759.93,384.6769" fill="#FFF3E0" style="stroke:#E65100;stroke-width:0.5;"/><path d="M2924.0706,384.6769 L2924.0706,394.6769 L2934.0706,394.6769 L2924.0706,384.6769" fill="#FFF3E0" style="stroke:#E65100;stroke-width:1;"/><text fill="#000000" font-family="Inter" font-size="12" lengthAdjust="spacing" textLength="152.8828" x="2765.93" y="400.8155">VS Code dark theme with</text><text fill="#000000" font-family="Inter" font-size="12" lengthAdjust="spacing" textLength="153.1406" x="2765.93" y="414.7843">5-level surface hierarchy.</text><text fill="#000000" font-family="Inter" font-size="12" lengthAdjust="spacing" textLength="142.541" x="2765.93" y="428.753">prefers-reduced-motion</text><text fill="#000000" font-family="Inter" font-size="12" lengthAdjust="spacing" textLength="114.5332" x="2765.93" y="442.7218">respected globally.</text></g><!--link DataLayer to Components--><g class="link" data-entity-1="ent0002" data-entity-2="ent0009" data-link-type="dependency" data-source-line="53" id="lnk22"><path d="M800.2879,223.8273 C801.2744,223.9859 802.3457,224.1578 803.5001,224.3427 C805.8088,224.7123 808.4498,225.1336 811.4091,225.6035 C823.2464,227.4827 840.1765,230.1376 861.3055,233.3639 C903.5634,239.8166 962.6169,248.555 1031.3138,257.9456 C1168.7075,276.7269 1344.675,298.1169 1502,309.0469 C1514.72,309.9269 1951.25,308.8369 1961,317.0469 C1965.24,320.6169 1968.7242,324.8158 1971.5745,329.4348 C1972.287,330.5895 1970.6268,349.6451 1971.262,350.8491" fill="none" id="DataLayer-to-Components" style="stroke:#181818;stroke-width:1;"/><polygon fill="#181818" points="1973.5952,355.2714,1972.9333,345.4448,1971.262,350.8491,1965.8577,349.1778,1973.5952,355.2714" style="stroke:#181818;stroke-width:1;stroke-linejoin:miter;stroke-miterlimit:10;"/><text fill="#000000" font-family="Inter" font-size="13" lengthAdjust="spacing" textLength="153.9688" x="1503" y="305.1138">TypeScript data objects</text></g><!--link Hooks to Terminal--><g class="link" data-entity-1="ent0015" data-entity-2="ent0013" data-link-type="dependency" data-source-line="54" id="lnk23"><path d="M1458.9513,268.3278 C1459.042,268.5248 1459.1339,268.7213 1459.2269,268.9172 C1459.4129,269.3089 1459.6034,269.6982 1459.7986,270.0847 C1460.1888,270.8578 1460.5976,271.6201 1461.0257,272.3695 C1461.8818,273.8683 1462.8152,275.3158 1463.8327,276.6962 C1465.8677,279.457 1468.2388,281.9494 1471,284.0469 C1496.67,303.5469 1735.01,272.9769 1761,292.0469 C1793.46,315.8669 1801.2767,360.818 1803.2067,389.708" fill="none" id="Hooks-to-Terminal" style="stroke:#181818;stroke-width:1;"/><polygon fill="#181818" points="1803.54,394.6969,1806.9312,385.4503,1803.2067,389.708,1798.949,385.9835,1803.54,394.6969" style="stroke:#181818;stroke-width:1;stroke-linejoin:miter;stroke-miterlimit:10;"/><text fill="#000000" font-family="Inter" font-size="13" lengthAdjust="spacing" textLength="144.0791" x="1776.87" y="305.1138">drives xterm.js write()</text></g><!--link Highlighter to CodeViewer--><g class="link" data-entity-1="ent0019" data-entity-2="ent0012" data-link-type="dependency" data-source-line="55" id="lnk24"><path d="M2343.2,394.6769 C2320.6,370.4169 2281.14,333.6369 2238,318.6269 C2175.88,297.0069 1709.3,300.7269 1646,318.6269 C1593.9,333.3569 1545.976,367.093 1515.716,391.433" fill="none" id="Highlighter-to-CodeViewer" style="stroke:#181818;stroke-width:1;"/><polygon fill="#181818" points="1511.82,394.5669,1521.3399,392.0428,1515.716,391.433,1516.3258,385.8092,1511.82,394.5669" style="stroke:#181818;stroke-width:1;stroke-linejoin:miter;stroke-miterlimit:10;"/><text fill="#000000" font-family="Inter" font-size="13" lengthAdjust="spacing" textLength="91.1841" x="1665.5" y="305.1138">syntax tokens</text></g><!--link TerminalHook to Playback--><g class="link" data-entity-1="ent0016" data-entity-2="ent0020" data-link-type="dependency" data-source-line="56" id="lnk25"><path d="M1637.35,244.4969 C1662.85,258.6869 1698.28,275.9469 1732,284.0469 C1758.92,290.5169 1953.34,290.9169 1981,292.0469 C2093.71,296.6369 2382.31,277.6169 2488,317.0469 C2531.84,333.3969 2569.0728,367.1747 2592.0628,391.1947" fill="none" id="TerminalHook-to-Playback" style="stroke:#181818;stroke-width:1;"/><polygon fill="#181818" points="2595.52,394.8069,2592.1867,385.5392,2592.0628,391.1947,2586.4073,391.0708,2595.52,394.8069" style="stroke:#181818;stroke-width:1;stroke-linejoin:miter;stroke-miterlimit:10;"/><text fill="#000000" font-family="Inter" font-size="13" lengthAdjust="spacing" textLength="149.1826" x="2460.31" y="305.1138">state machine controls</text></g><!--link Components to GH--><g class="link" data-entity-1="ent0009" data-entity-2="ent0021" data-link-type="dependency" data-source-line="57" id="lnk26"><path d="M1988.0965,434.7743 C1988.1866,434.9385 1988.2773,435.1036 1988.3687,435.2694 C1988.5515,435.601 1988.737,435.9358 1988.9252,436.2734 C1989.6777,437.6241 1990.4725,439.0216 1991.3075,440.4544 C1997.9875,451.9169 2007.24,465.6419 2018,475.7669 C2041.92,498.2569 2069.0874,514.6919 2095.5074,528.0419" fill="none" id="Components-to-GH" style="stroke:#181818;stroke-width:1;"/><polygon fill="#181818" points="2099.97,530.2969,2093.7412,522.6678,2095.5074,528.0419,2090.1333,529.808,2099.97,530.2969" style="stroke:#181818;stroke-width:1;stroke-linejoin:miter;stroke-miterlimit:10;"/><text fill="#000000" font-family="Inter" font-size="13" lengthAdjust="spacing" textLength="82.1641" x="2048.45" y="496.8338">static export</text></g><!--link DataLayer to GMN27--><g class="link" data-entity-1="ent0002" data-entity-2="ent0028" data-link-type="association" data-source-line="60" id="lnk29"><path d="M800.1571,218.7441 C800.3879,218.6675 800.6234,218.5893 800.8636,218.5096 C801.344,218.3503 801.8431,218.1849 802.3608,218.0136 C803.3962,217.671 804.506,217.3046 805.6885,216.9153 C808.0536,216.1365 810.7099,215.2656 813.6454,214.3087 C825.3876,210.481 841.5974,205.276 861.5067,199.077 C901.3253,186.6791 955.9419,170.305 1019.2112,153.0206 C1145.75,118.4519 1306.9,80.2419 1453.5,62.9169 C1509.66,56.2769 1909.46,43.2969 1962.5,62.9169 C2031.99,88.6169 2090.45,157.2469 2118.74,195.2469" fill="none" id="DataLayer-GMN27" style="stroke:#181818;stroke-width:1;stroke-dasharray:7,7;"/></g><!--link TerminalHook to GMN30--><g class="link" data-entity-1="ent0016" data-entity-2="ent0031" data-link-type="association" data-source-line="66" id="lnk32"><path d="M1637.37,244.4169 C1662.88,258.5569 1698.31,275.8069 1732,284.0469 C1817.55,304.9669 1843.71,274.4469 1930,292.0469 C1960.73,298.3169 1968.54,301.8969 1996,317.0469 C2030.43,336.0469 2065.82,363.2269 2091.27,384.3869" fill="none" id="TerminalHook-GMN30" style="stroke:#181818;stroke-width:1;stroke-dasharray:7,7;"/></g><!--link Components to GMN33--><g class="link" data-entity-1="ent0009" data-entity-2="ent0034" data-link-type="association" data-source-line="73" id="lnk35"><path d="M1988.0554,365.6815 C1988.2763,364.8864 1988.5032,364.0893 1988.7363,363.2906 C1996.195,337.7344 2009.995,310.6719 2035.5,300.5469 C2071.02,286.4369 2687.98,286.4369 2723.5,300.5469 C2765.65,317.2869 2801.65,356.0369 2823.73,384.3869" fill="none" id="Components-GMN33" style="stroke:#181818;stroke-width:1;stroke-dasharray:7,7;"/></g><?plantuml-src TLLHRziu37xtho1oBnamvz9spNK1xe0sJPe1kwvOiW7tg5XqeaMM38bkaplqlnzbEOwJTGy9B9CV-V4ZHVkjCgLmee2LoBPhPoiZ9rPR1-I4yMn2GubllIJcej8qiuOUHO7moH2wZZspHMaDO-2_1E3kBEPlqvlPS3OD5kiakkRjnUqVLzCRVXl2BjI_21TNoMidQibnn1hVZZbZxEp-FER7gwiFqz59p0ydCOsbNmMSSSZXUS3fwFfYE3m9UCa14rAa4Vwn6TceXiX8FICiAx9E2Gqft9ObtBfiemWpgXmcoQ6WtYFkQF33mu84gGockz8wwZ4lJjGwIK7YT-XFE75GzhFOetlN0-7XdYtriQu485VCfUS9IpyW3_tB8TI7wBq8Zns_p4fCmsDqdho7EqLtOelluNwvY9W9-yo2ImV7HHRA29tQYigAQd2fnJwCK4GjsUDBHHrC-4_9OPFh1hmHfTzOQhWjWwdZBvLOSvkYzmYQ8nH88iZHbDyuTN1hRRqNRX_B7q7WsgHuQ4pi_NgYxrVadd6bpUZwfl33iT7sEDgzvORPfa_2e8PFzzFG4PQYXiN7Sy1dp6aCGSTG9_GtYkSaJ4GcT2Hti9qZ9nXc2fQs7DUz-AxmXSySORtH_2EKnqP5uoz2t5aYMuphteJkGNyNn0dJDpfsBLZE0tmDUSRmPVK3wzcEXVV3P84okOterkn_4dXkxJQgMZ_zB6ZbyKZByrr0A0JBO_2KMO2_WNroTktGSyUrPKKNVFCuRuGUR0tqDTpPbjWtKbgHmaWkd2AvhdgLPzbWiJSaTZ1lPNUndkFv5FRKt0S8jzPPZjiV3gvtwVMkeTNO0vrCsqf2xq7Hl5h14pFpKGNU219BRVVD0C-Jv7ZZKsbVJFfNTr2vkViI5vbJ9K6u9c3hflWawdw0j5gFGRhGCMX7uSNnbkg_Ipg5TJArypS67mKXkqNZasw3MlzM0_RkzfHrYfea7Uu7qCEySUVYiLw7ILBlQXVOWCsFIuyLlvLIcJM8Uit1du2IsnbUiAsZHTWD0tYqnmw5Rcs42L8RH8boaA2HzLUXoRUgxqj8U3Pz2t8gex_3ylGYHtXM0XpcVX3uh9Wmv5gieNJuN5UcaLUgP2Ef0davUB06fArMl14B_kvG05uE2nyOEUuuomOxy2M-mQfLuIWTexylwkPmpzqMQ8FyPNvHj67BTQgPXWPVkLna28VDimz9cMAEpgSEPPMXP3Qah643NvYIvmOby3vT2Qtt7IB_0m00?></g></svg>