<svg xmlns="http://www.w3.org/2000/svg" xmlns:xlink="http://www.w3.org/1999/xlink" contentStyleType="text/css" data-diagram-type="DESCRIPTION" height="913px" preserveAspectRatio="none" style="width:2313px;height:913px;background:#FFFFFF;" version="1.1" viewBox="0 0 2313 913" width="2313px" zoomAndPan="magnify"><?plantuml 1.2026.6?><defs/><g><g class="title" data-source-line="16"><text fill="#000000" font-family="sans-serif" font-size="18" font-weight="700" lengthAdjust="spacing" textLength="379.2656" x="963.7881" y="26.708">HLT-MOT Graceful Degradation Chain</text></g><!--cluster DetectionPkg--><g class="cluster" data-qualified-name="DetectionPkg" data-source-line="21" id="ent0001"><path d="M808.5,47.9531 L942.2607,47.9531 A3.75,3.75 0 0 1 944.7607,50.4531 L951.7607,70.25 L1083.5,70.25 A2.5,2.5 0 0 1 1086,72.75 L1086,588.3331 A2.5,2.5 0 0 1 1083.5,590.8331 L808.5,590.8331 A2.5,2.5 0 0 1 806,588.3331 L806,50.4531 A2.5,2.5 0 0 1 808.5,47.9531" fill="#F0F8FF" style="stroke:#000000;stroke-width:1.5;"/><line style="stroke:#000000;stroke-width:1.5;" x1="806" x2="951.7607" y1="70.25" y2="70.25"/><text fill="#000000" font-family="sans-serif" font-size="14" font-weight="700" lengthAdjust="spacing" textLength="132.7607" x="810" y="62.9482">Object Detection</text></g><!--cluster FeaturePkg--><g class="cluster" data-qualified-name="FeaturePkg" data-source-line="50" id="ent0013"><path d="M8.5,254.2831 L156.9512,254.2831 A3.75,3.75 0 0 1 159.4512,256.7831 L166.4512,276.58 L243.5,276.58 A2.5,2.5 0 0 1 246,279.08 L246,596.4831 A2.5,2.5 0 0 1 243.5,598.9831 L8.5,598.9831 A2.5,2.5 0 0 1 6,596.4831 L6,256.7831 A2.5,2.5 0 0 1 8.5,254.2831" fill="#90EE90" style="stroke:#000000;stroke-width:1.5;"/><line style="stroke:#000000;stroke-width:1.5;" x1="6" x2="166.4512" y1="276.58" y2="276.58"/><text fill="#000000" font-family="sans-serif" font-size="14" font-weight="700" lengthAdjust="spacing" textLength="147.4512" x="10" y="269.2782">Feature Extraction</text></g><!--cluster PerfPkg--><g class="cluster" data-qualified-name="PerfPkg" data-source-line="68" id="ent0020"><path d="M404.5,246.1331 L598.6221,246.1331 A3.75,3.75 0 0 1 601.1221,248.6331 L608.1221,268.43 L719.5,268.43 A2.5,2.5 0 0 1 722,270.93 L722,596.4831 A2.5,2.5 0 0 1 719.5,598.9831 L404.5,598.9831 A2.5,2.5 0 0 1 402,596.4831 L402,248.6331 A2.5,2.5 0 0 1 404.5,246.1331" fill="#FFFFE0" style="stroke:#000000;stroke-width:1.5;"/><line style="stroke:#000000;stroke-width:1.5;" x1="402" x2="608.1221" y1="268.43" y2="268.43"/><text fill="#000000" font-family="sans-serif" font-size="14" font-weight="700" lengthAdjust="spacing" textLength="193.1221" x="406" y="261.1282">Performance Operations</text></g><!--cluster PipelinePkg--><g class="cluster" data-qualified-name="PipelinePkg" data-source-line="89" id="ent0027"><path d="M576.5,650.8031 L733.0449,650.8031 A3.75,3.75 0 0 1 735.5449,653.3031 L742.5449,673.1 L787.5,673.1 A2.5,2.5 0 0 1 790,675.6 L790,735.5931 A2.5,2.5 0 0 1 787.5,738.0931 L576.5,738.0931 A2.5,2.5 0 0 1 574,735.5931 L574,653.3031 A2.5,2.5 0 0 1 576.5,650.8031" fill="#D8BFD8" style="stroke:#000000;stroke-width:1.5;"/><line style="stroke:#000000;stroke-width:1.5;" x1="574" x2="742.5449" y1="673.1" y2="673.1"/><text fill="#000000" font-family="sans-serif" font-size="14" font-weight="700" lengthAdjust="spacing" textLength="155.5449" x="578" y="665.7982">End-to-End Pipeline</text></g><!--entity YOLO--><g class="entity" data-qualified-name="DetectionPkg.YOLO" data-source-line="22" id="ent0002"><rect fill="#F1F1F1" height="85.1875" rx="2.5" ry="2.5" style="stroke:#181818;stroke-width:0.5;" width="243.8564" x="824.07" y="82.9531"/><text fill="#000000" font-family="sans-serif" font-size="14" lengthAdjust="spacing" textLength="161.3555" x="834.07" y="105.9482">Ultralytics YOLOv8/v11</text><text fill="#000000" font-family="sans-serif" font-size="14" lengthAdjust="spacing" textLength="180.6328" x="834.07" y="122.2451">GPU (PyTorch / TensorRT)</text><text fill="#000000" font-family="sans-serif" font-size="14" lengthAdjust="spacing" textLength="120.7842" x="834.07" y="138.542">~12ms inference</text><text fill="#000000" font-family="sans-serif" font-size="14" lengthAdjust="spacing" textLength="223.8564" x="834.07" y="154.8389">Best accuracy: masks + bboxes</text></g><!--entity YOLOv4--><g class="entity" data-qualified-name="DetectionPkg.YOLOv4" data-source-line="24" id="ent0003"><rect fill="#F1F1F1" height="85.1875" rx="2.5" ry="2.5" style="stroke:#181818;stroke-width:0.5;" width="247.958" x="822.02" y="297.4331"/><text fill="#000000" font-family="sans-serif" font-size="14" lengthAdjust="spacing" textLength="152.9541" x="832.02" y="320.4282">OpenCV DNN YOLOv4</text><text fill="#000000" font-family="sans-serif" font-size="14" lengthAdjust="spacing" textLength="98.7725" x="832.02" y="336.7251">CPU inference</text><text fill="#000000" font-family="sans-serif" font-size="14" lengthAdjust="spacing" textLength="227.958" x="832.02" y="353.022">Moderate accuracy: bboxes only</text><text fill="#000000" font-family="sans-serif" font-size="14" lengthAdjust="spacing" textLength="169.6543" x="832.02" y="369.3189">No segmentation masks</text></g><!--entity Mock--><g class="entity" data-qualified-name="DetectionPkg.Mock" data-source-line="26" id="ent0004"><rect fill="#F1F1F1" height="68.8906" rx="2.5" ry="2.5" style="stroke:#181818;stroke-width:0.5;" width="188.7793" x="821.61" y="505.9431"/><text fill="#000000" font-family="sans-serif" font-size="14" lengthAdjust="spacing" textLength="101.9033" x="831.61" y="528.9382">Mock Detector</text><text fill="#000000" font-family="sans-serif" font-size="14" lengthAdjust="spacing" textLength="168.7793" x="831.61" y="545.2351">Synthetic moving boxes</text><text fill="#000000" font-family="sans-serif" font-size="14" lengthAdjust="spacing" textLength="165.0605" x="831.61" y="561.532">Testing/debugging only</text></g><!--entity DINO--><g class="entity" data-qualified-name="FeaturePkg.DINO" data-source-line="51" id="ent0014"><rect fill="#F1F1F1" height="101.4844" rx="2.5" ry="2.5" style="stroke:#181818;stroke-width:0.5;" width="207.5439" x="22.23" y="289.2831"/><text fill="#000000" font-family="sans-serif" font-size="14" lengthAdjust="spacing" textLength="148.9277" x="32.23" y="312.2782">DINOv2 ViT-B/14 Reg</text><text fill="#000000" font-family="sans-serif" font-size="14" lengthAdjust="spacing" textLength="187.5439" x="32.23" y="328.5751">GPU, 768-dim embeddings</text><text fill="#000000" font-family="sans-serif" font-size="14" lengthAdjust="spacing" textLength="122.1582" x="32.23" y="344.872">~45ms per batch</text><text fill="#000000" font-family="sans-serif" font-size="14" lengthAdjust="spacing" textLength="134.2305" x="32.23" y="361.1689">Self-supervised ViT</text><text fill="#000000" font-family="sans-serif" font-size="14" lengthAdjust="spacing" textLength="147.1504" x="32.23" y="377.4657">142M image pretrain</text></g><!--entity ResNet--><g class="entity" data-qualified-name="FeaturePkg.ResNet" data-source-line="53" id="ent0015"><rect fill="#F1F1F1" height="85.1875" rx="2.5" ry="2.5" style="stroke:#181818;stroke-width:0.5;" width="195.8682" x="22.07" y="497.7931"/><text fill="#000000" font-family="sans-serif" font-size="14" lengthAdjust="spacing" textLength="160.5762" x="32.07" y="520.7882">ResNet50 (torchvision)</text><text fill="#000000" font-family="sans-serif" font-size="14" lengthAdjust="spacing" textLength="138.7148" x="32.07" y="537.0851">GPU/CPU, 2048-dim</text><text fill="#000000" font-family="sans-serif" font-size="14" lengthAdjust="spacing" textLength="175.8682" x="32.07" y="553.382">IMAGENET1K_V2 weights</text><text fill="#000000" font-family="sans-serif" font-size="14" lengthAdjust="spacing" textLength="120.292" x="32.07" y="569.6789">No segmentation</text></g><!--entity Numba--><g class="entity" data-qualified-name="PerfPkg.Numba" data-source-line="69" id="ent0021"><rect fill="#F1F1F1" height="117.7813" rx="2.5" ry="2.5" style="stroke:#181818;stroke-width:0.5;" width="288.3242" x="417.84" y="281.1331"/><text fill="#000000" font-family="sans-serif" font-size="14" lengthAdjust="spacing" textLength="71.709" x="427.84" y="304.1282">Numba JIT</text><text fill="#000000" font-family="sans-serif" font-size="14" lengthAdjust="spacing" textLength="153.46" x="427.84" y="320.4251">@njit(fastmath=True)</text><text fill="#000000" font-family="sans-serif" font-size="14" lengthAdjust="spacing" textLength="268.3242" x="427.84" y="336.722">compute_cosine_distance_cpu_numba</text><text fill="#000000" font-family="sans-serif" font-size="14" lengthAdjust="spacing" textLength="147.4854" x="427.84" y="353.0189">calculate_iou_numba</text><text fill="#000000" font-family="sans-serif" font-size="14" lengthAdjust="spacing" textLength="239.0869" x="427.84" y="369.3157">calculate_spatial_distance_numba</text><text fill="#000000" font-family="sans-serif" font-size="14" lengthAdjust="spacing" textLength="206.6162" x="427.84" y="385.6126">find_min_value_index_numba</text></g><!--entity NumPy--><g class="entity" data-qualified-name="PerfPkg.NumPy" data-source-line="71" id="ent0022"><rect fill="#F1F1F1" height="85.1875" rx="2.5" ry="2.5" style="stroke:#181818;stroke-width:0.5;" width="193.0107" x="418.49" y="497.7931"/><text fill="#000000" font-family="sans-serif" font-size="14" lengthAdjust="spacing" textLength="147.9912" x="428.49" y="520.7882">Pure NumPy / Python</text><text fill="#000000" font-family="sans-serif" font-size="14" lengthAdjust="spacing" textLength="154.6289" x="428.49" y="537.0851">Unoptimized fallbacks</text><text fill="#000000" font-family="sans-serif" font-size="14" lengthAdjust="spacing" textLength="124.6943" x="428.49" y="553.382">Same logic, no JIT</text><text fill="#000000" font-family="sans-serif" font-size="14" lengthAdjust="spacing" textLength="173.0107" x="428.49" y="569.6789">Slower but always works</text></g><!--entity Pipeline--><g class="entity" data-qualified-name="PipelinePkg.Pipeline" data-source-line="90" id="ent0028"><rect fill="#F1F1F1" height="36.2969" rx="2.5" ry="2.5" style="stroke:#181818;stroke-width:0.5;" width="183.9941" x="590" y="685.8031"/><text fill="#000000" font-family="sans-serif" font-size="14" lengthAdjust="spacing" textLength="163.9941" x="600" y="708.7982">HybridTracker.update()</text></g><g class="entity" data-qualified-name="GMN6" data-source-line="31" id="ent0007"><path d="M1180.73,297.1931 L1180.73,336.0231 L1070.46,340.0231 L1180.73,344.0231 L1180.73,382.8572 A0,0 0 0 0 1180.73,382.8572 L1421.2764,382.8572 A0,0 0 0 0 1421.2764,382.8572 L1421.2764,307.1931 L1411.2764,297.1931 L1180.73,297.1931 A0,0 0 0 0 1180.73,297.1931" fill="#FFFACD" style="stroke:#B8860B;stroke-width:0.5;"/><path d="M1411.2764,297.1931 L1411.2764,307.1931 L1421.2764,307.1931 L1411.2764,297.1931" fill="#FFFACD" style="stroke:#B8860B;stroke-width:0.5;"/><text fill="#000000" font-family="sans-serif" font-size="13" lengthAdjust="spacing" textLength="73.436" x="1186.73" y="314.26">Checked at</text><text fill="#000000" font-family="sans-serif" font-size="13" lengthAdjust="spacing" text-decoration="underline" textLength="20.5601" x="1264.2984" y="314.26">init</text><text fill="#000000" font-family="sans-serif" font-size="13" lengthAdjust="spacing" textLength="33.7505" x="1288.9907" y="314.26">time:</text><text fill="#000000" font-family="sans-serif" font-size="13" lengthAdjust="spacing" textLength="138.6899" x="1186.73" y="329.3928">except ImportError &#8594;</text><text fill="#000000" font-family="sans-serif" font-size="13" lengthAdjust="spacing" textLength="204.2549" x="1186.73" y="344.5256">cv2.dnn.readNetFromDarknet()</text><text fill="#000000" font-family="sans-serif" font-size="13" lengthAdjust="spacing" textLength="219.5464" x="1186.73" y="359.6585">Uses yolov4.cfg + yolov4.weights</text><text fill="#000000" font-family="sans-serif" font-size="13" lengthAdjust="spacing" textLength="213.8843" x="1186.73" y="374.7913">Person class only (COCO class 0)</text></g><g class="entity" data-qualified-name="GMN10" data-source-line="40" id="ent0011"><path d="M1187.22,497.5531 L1187.22,536.3931 L1010.63,540.3931 L1187.22,544.3931 L1187.22,583.2172 A0,0 0 0 0 1187.22,583.2172 L1494.7786,583.2172 A0,0 0 0 0 1494.7786,583.2172 L1494.7786,507.5531 L1484.7786,497.5531 L1187.22,497.5531 A0,0 0 0 0 1187.22,497.5531" fill="#FFFACD" style="stroke:#B8860B;stroke-width:0.5;"/><path d="M1484.7786,497.5531 L1484.7786,507.5531 L1494.7786,507.5531 L1484.7786,497.5531" fill="#FFFACD" style="stroke:#B8860B;stroke-width:0.5;"/><text fill="#000000" font-family="sans-serif" font-size="13" lengthAdjust="spacing" textLength="126.0391" x="1193.22" y="514.62">Wrapped in main():</text><text fill="#000000" font-family="sans-serif" font-size="13" lengthAdjust="spacing" textLength="286.5586" x="1193.22" y="529.7528">except Exception &#8594; create_mock_detector()</text><text fill="#000000" font-family="sans-serif" font-size="13" lengthAdjust="spacing" textLength="199.4561" x="1193.22" y="544.8856">Returns 3 synthetic detections</text><text fill="#000000" font-family="sans-serif" font-size="13" lengthAdjust="spacing" textLength="249.7422" x="1193.22" y="560.0185">with programmed movement patterns</text><text fill="#000000" font-family="sans-serif" font-size="13" lengthAdjust="spacing" textLength="186.1831" x="1193.22" y="575.1513">for testing offline Re-ID logic</text></g><g class="entity" data-qualified-name="GMN17" data-source-line="58" id="ent0018"><path d="M1455.84,297.1931 L1455.84,382.8572 L1930.1515,382.8572 L1930.1515,307.1931 L1920.1515,297.1931 L1455.84,297.1931" fill="#FFFACD" style="stroke:#B8860B;stroke-width:0.5;"/><path d="M1920.1515,297.1931 L1920.1515,307.1931 L1930.1515,307.1931 L1920.1515,297.1931" fill="#FFFACD" style="stroke:#B8860B;stroke-width:1;"/><text fill="#000000" font-family="sans-serif" font-size="13" lengthAdjust="spacing" textLength="132.2344" x="1461.84" y="314.26">At FeatureExtractor.</text><text fill="#000000" font-family="sans-serif" font-size="13" lengthAdjust="spacing" text-decoration="underline" textLength="20.5601" x="1594.0744" y="314.26">init</text><text fill="#000000" font-family="sans-serif" font-size="13" lengthAdjust="spacing" textLength="14.5234" x="1614.6344" y="314.26">():</text><text fill="#000000" font-family="sans-serif" font-size="13" lengthAdjust="spacing" textLength="453.3115" x="1461.84" y="329.3928">1. Try torch.hub.load('facebookresearch/dinov2', 'dinov2_vitb14_reg')</text><text fill="#000000" font-family="sans-serif" font-size="13" lengthAdjust="spacing" textLength="211.3833" x="1461.84" y="344.5256">2. except Exception &#8594; ResNet50</text><text fill="#000000" font-family="sans-serif" font-size="13" lengthAdjust="spacing" textLength="149.5063" x="1461.84" y="359.6585">Removes last FC layer:</text><text fill="#000000" font-family="sans-serif" font-size="13" lengthAdjust="spacing" textLength="270.4419" x="1461.84" y="374.7913">nn.Sequential(*list(model.children())[:-1])</text></g><g class="entity" data-qualified-name="GMN24" data-source-line="76" id="ent0025"><path d="M1965.15,274.4931 L1965.15,405.5556 L2298.8419,405.5556 L2298.8419,284.4931 L2288.8419,274.4931 L1965.15,274.4931" fill="#FFFACD" style="stroke:#B8860B;stroke-width:0.5;"/><path d="M2288.8419,274.4931 L2288.8419,284.4931 L2298.8419,284.4931 L2288.8419,274.4931" fill="#FFFACD" style="stroke:#B8860B;stroke-width:1;"/><text fill="#000000" font-family="sans-serif" font-size="13" lengthAdjust="spacing" textLength="158.374" x="1971.15" y="291.56">Checked at import time:</text><text fill="#000000" font-family="sans-serif" font-size="13" lengthAdjust="spacing" textLength="312.6919" x="1971.15" y="306.6928">try: import numba &#8594; NUMBA_AVAILABLE = True</text><text fill="#000000" font-family="sans-serif" font-size="13" lengthAdjust="spacing" textLength="161.6113" x="1971.15" y="321.8256">If False: use pure-Python</text><text fill="#000000" font-family="sans-serif" font-size="13" lengthAdjust="spacing" textLength="123.8237" x="1971.15" y="336.9585">calculate_iou() and</text><text fill="#000000" font-family="sans-serif" font-size="13" lengthAdjust="spacing" textLength="180.2925" x="1971.15" y="352.0913">calculate_spatial_distance()</text><text fill="#000000" font-family="sans-serif" font-size="13" lengthAdjust="spacing" textLength="184.3105" x="1971.15" y="367.2241">All functions pre-declared at</text><text fill="#000000" font-family="sans-serif" font-size="13" lengthAdjust="spacing" textLength="180.3369" x="1971.15" y="382.3569">module level: both versions</text><text fill="#000000" font-family="sans-serif" font-size="13" lengthAdjust="spacing" textLength="131.1235" x="1971.15" y="397.4897">available regardless</text></g><g class="entity" data-qualified-name="GMN36" data-source-line="102" id="ent0037"><path d="M808.7,645.9831 L808.7,699.9531 L774.26,703.9531 L808.7,707.9531 L808.7,761.9128 A0,0 0 0 0 808.7,761.9128 L1025.3094,761.9128 A0,0 0 0 0 1025.3094,761.9128 L1025.3094,655.9831 L1015.3094,645.9831 L808.7,645.9831 A0,0 0 0 0 808.7,645.9831" fill="#FFFACD" style="stroke:#B8860B;stroke-width:0.5;"/><path d="M1015.3094,645.9831 L1015.3094,655.9831 L1025.3094,655.9831 L1015.3094,645.9831" fill="#FFFACD" style="stroke:#B8860B;stroke-width:0.5;"/><text fill="#000000" font-family="sans-serif" font-size="13" lengthAdjust="spacing" textLength="147.4624" x="814.7" y="663.05">The tracker logs which</text><text fill="#000000" font-family="sans-serif" font-size="13" lengthAdjust="spacing" textLength="158.1709" x="814.7" y="678.1828">detection tier and which</text><text fill="#000000" font-family="sans-serif" font-size="13" lengthAdjust="spacing" textLength="137.1792" x="814.7" y="693.3156">feature extractor tier</text><text fill="#000000" font-family="sans-serif" font-size="13" lengthAdjust="spacing" textLength="137.1855" x="814.7" y="708.4485">are active at startup.</text><text fill="#000000" font-family="sans-serif" font-size="13" lengthAdjust="spacing" textLength="190.3281" x="814.7" y="723.5813">System continues to function</text><text fill="#000000" font-family="sans-serif" font-size="13" lengthAdjust="spacing" textLength="166.9561" x="814.7" y="738.7141">(with degraded accuracy)</text><text fill="#000000" font-family="sans-serif" font-size="13" lengthAdjust="spacing" textLength="195.6094" x="814.7" y="753.8469">even using Mock + ResNet50.</text></g><!--link YOLO to YOLOv4--><g class="link" data-entity-1="ent0002" data-entity-2="ent0003" data-link-type="dependency" data-source-line="29" id="lnk5"><path d="M946,168.5231 C946,205.7731 946,254.9131 946,292.1331" fill="none" id="YOLO-to-YOLOv4" style="stroke:#000000;stroke-width:1;stroke-dasharray:7,7;"/><polygon fill="#000000" points="946,297.1331,950,288.1331,946,292.1331,942,288.1331,946,297.1331" style="stroke:#000000;stroke-width:1;stroke-linejoin:miter;stroke-miterlimit:10;"/><text fill="#000000" font-family="sans-serif" font-size="13" lengthAdjust="spacing" textLength="70.2622" x="982.8293" y="211.2">Fallback if:</text><text fill="#000000" font-family="sans-serif" font-size="13" lengthAdjust="spacing" textLength="141.9209" x="947" y="226.3328">ultralytics import fails</text></g><!--link YOLOv4 to Mock--><g class="link" data-entity-1="ent0003" data-entity-2="ent0004" data-link-type="dependency" data-source-line="38" id="lnk9"><path d="M931.62,382.8731 C926.68,399.1231 921.71,418.0131 919,435.5531 C915.41,458.7231 914.6607,480.1433 914.8207,500.5233" fill="none" id="YOLOv4-to-Mock" style="stroke:#000000;stroke-width:1;stroke-dasharray:7,7;"/><polygon fill="#000000" points="914.86,505.5231,918.7892,496.492,914.8207,500.5233,910.7895,496.5548,914.86,505.5231" style="stroke:#000000;stroke-width:1;stroke-linejoin:miter;stroke-miterlimit:10;"/><text fill="#000000" font-family="sans-serif" font-size="13" lengthAdjust="spacing" textLength="70.2622" x="943.2261" y="448.62">Fallback if:</text><text fill="#000000" font-family="sans-serif" font-size="13" lengthAdjust="spacing" textLength="116.7144" x="920" y="463.7528">any init exception</text></g><!--link DINO to ResNet--><g class="link" data-entity-1="ent0014" data-entity-2="ent0015" data-link-type="dependency" data-source-line="56" id="lnk16"><path d="M124.49,391.0831 C123.49,423.9031 122.3613,461.3354 121.4213,492.3954" fill="none" id="DINO-to-ResNet" style="stroke:#000000;stroke-width:1;stroke-dasharray:7,7;"/><polygon fill="#000000" points="121.27,497.3931,125.5404,488.5182,121.4213,492.3954,117.5441,488.2762,121.27,497.3931" style="stroke:#000000;stroke-width:1;stroke-linejoin:miter;stroke-miterlimit:10;"/><text fill="#000000" font-family="sans-serif" font-size="13" lengthAdjust="spacing" textLength="70.2622" x="151.4854" y="448.62">Fallback if:</text><text fill="#000000" font-family="sans-serif" font-size="13" lengthAdjust="spacing" textLength="125.2329" x="124" y="463.7528">torch.hub.load fails</text></g><!--link DINO to GMN17--><g class="link" data-entity-1="ent0014" data-entity-2="ent0018" data-link-type="association" data-source-line="58" id="lnk19"><path d="M209.8,288.9031 C266.68,257.2931 344.85,219.6931 419.5,203.1331 C528.19,179.0331 1313.19,177.3731 1421.5,203.1331 C1497.25,221.1531 1575.84,263.8531 1628.85,296.8131" fill="none" id="DINO-GMN17" style="stroke:#000000;stroke-width:1;stroke-dasharray:7,7;"/></g><!--link Numba to NumPy--><g class="link" data-entity-1="ent0021" data-entity-2="ent0022" data-link-type="dependency" data-source-line="74" id="lnk23"><path d="M535.43,399.4031 C530.96,411.1731 526.85,423.6031 524,435.5531 C519.21,455.6231 517.1847,473.4112 516.0947,492.5212" fill="none" id="Numba-to-NumPy" style="stroke:#000000;stroke-width:1;stroke-dasharray:7,7;"/><polygon fill="#000000" points="515.81,497.5131,520.316,488.7555,516.0947,492.5212,512.329,488.2999,515.81,497.5131" style="stroke:#000000;stroke-width:1;stroke-linejoin:miter;stroke-miterlimit:10;"/><text fill="#000000" font-family="sans-serif" font-size="13" lengthAdjust="spacing" textLength="70.2622" x="554.907" y="448.62">Fallback if:</text><text fill="#000000" font-family="sans-serif" font-size="13" lengthAdjust="spacing" textLength="130.0762" x="525" y="463.7528">numba not installed</text></g><!--link Numba to GMN24--><g class="link" data-entity-1="ent0021" data-entity-2="ent0025" data-link-type="association" data-source-line="76" id="lnk26"><path d="M649.37,280.6531 C698.26,251.0331 761.67,218.3431 823.5,203.1331 C942.94,173.7631 1812.93,166.9831 1930.5,203.1331 C1976.99,217.4331 2022.37,246.5131 2058.26,274.2031" fill="none" id="Numba-GMN24" style="stroke:#000000;stroke-width:1;stroke-dasharray:7,7;"/></g><!--link YOLO to Pipeline--><g class="link" data-entity-1="ent0002" data-entity-2="ent0028" data-link-type="dependency" data-source-line="93" id="lnk29"><path d="M1068.32,168.2231 C1079.59,176.4931 1089.56,186.3631 1097,198.1331 C1145.66,275.0631 1128.32,535.4731 1072,606.9831 C1063.91,617.2531 1056.79,613.2831 1044,615.9831 C933.37,639.3631 898.86,608.8531 791,642.8031 C760.08,652.5331 732.1441,668.7605 710.8541,682.8005" fill="none" id="YOLO-to-Pipeline" style="stroke:#000000;stroke-width:1;"/><polygon fill="#000000" points="706.68,685.5531,716.3955,683.9376,710.8541,682.8005,711.9912,677.2591,706.68,685.5531" style="stroke:#000000;stroke-width:1;stroke-linejoin:miter;stroke-miterlimit:10;"/><text fill="#000000" font-family="sans-serif" font-size="13" lengthAdjust="spacing" textLength="107.8975" x="1121.92" y="456.12">feeds detections</text></g><!--link YOLOv4 to Pipeline--><g class="link" data-entity-1="ent0003" data-entity-2="ent0028" data-link-type="dependency" data-source-line="94" id="lnk30"><path d="M1002.4,382.8931 C1017.89,397.6331 1032.69,415.5731 1041,435.5531 C1059.39,479.7931 1089.8,541.5531 1028,606.9831 C991.43,645.7031 841.44,625.6831 791,642.8031 C760.71,653.0731 733.211,668.8617 711.861,682.6417" fill="none" id="YOLOv4-to-Pipeline" style="stroke:#000000;stroke-width:1;"/><polygon fill="#000000" points="707.66,685.3531,717.3909,683.8333,711.861,682.6417,713.0526,677.1118,707.66,685.3531" style="stroke:#000000;stroke-width:1;stroke-linejoin:miter;stroke-miterlimit:10;"/></g><!--link Mock to Pipeline--><g class="link" data-entity-1="ent0004" data-entity-2="ent0028" data-link-type="dependency" data-source-line="95" id="lnk31"><path d="M866.95,575.2531 C818.3,608.8431 749.7849,656.1528 711.6249,682.4928" fill="none" id="Mock-to-Pipeline" style="stroke:#000000;stroke-width:1;"/><polygon fill="#000000" points="707.51,685.3331,717.1891,683.5125,711.6249,682.4928,712.6446,676.9286,707.51,685.3331" style="stroke:#000000;stroke-width:1;stroke-linejoin:miter;stroke-miterlimit:10;"/></g><!--link DINO to Pipeline--><g class="link" data-entity-1="ent0014" data-entity-2="ent0028" data-link-type="dependency" data-source-line="96" id="lnk32"><path d="M213.75,391.0931 C230.32,403.8231 246.15,418.7331 258,435.5531 C303.65,500.3331 250.19,551.7431 307,606.9831 C346.93,645.8131 487.4116,673.8107 584.9916,689.2707" fill="none" id="DINO-to-Pipeline" style="stroke:#000000;stroke-width:1;"/><polygon fill="#000000" points="589.93,690.0531,581.6668,684.6941,584.9916,689.2707,580.4149,692.5955,589.93,690.0531" style="stroke:#000000;stroke-width:1;stroke-linejoin:miter;stroke-miterlimit:10;"/><text fill="#000000" font-family="sans-serif" font-size="13" lengthAdjust="spacing" textLength="93.7231" x="308" y="544.96">feeds features</text></g><!--link ResNet to Pipeline--><g class="link" data-entity-1="ent0015" data-entity-2="ent0028" data-link-type="dependency" data-source-line="97" id="lnk33"><path d="M190.47,583.3731 C212.76,595.2831 237.88,607.3431 262,615.9831 C371.36,655.1531 498.4519,678.1544 584.9219,690.7144" fill="none" id="ResNet-to-Pipeline" style="stroke:#000000;stroke-width:1;"/><polygon fill="#000000" points="589.87,691.4331,581.5384,686.181,584.9219,690.7144,580.3885,694.0979,589.87,691.4331" style="stroke:#000000;stroke-width:1;stroke-linejoin:miter;stroke-miterlimit:10;"/></g><!--link Numba to Pipeline--><g class="link" data-entity-1="ent0021" data-entity-2="ent0028" data-link-type="dependency" data-source-line="98" id="lnk34"><path d="M635.21,399.3331 C645.02,410.3431 653.82,422.5231 660,435.5531 C700.91,521.8331 691.0615,636.4458 685.2515,680.6558" fill="none" id="Numba-to-Pipeline" style="stroke:#000000;stroke-width:1;"/><polygon fill="#000000" points="684.6,685.6131,689.7386,677.211,685.2515,680.6558,681.8068,676.1687,684.6,685.6131" style="stroke:#000000;stroke-width:1;stroke-linejoin:miter;stroke-miterlimit:10;"/><text fill="#000000" font-family="sans-serif" font-size="13" lengthAdjust="spacing" textLength="103.6382" x="691.25" y="544.96">accelerated ops</text></g><!--link NumPy to Pipeline--><g class="link" data-entity-1="ent0022" data-entity-2="ent0028" data-link-type="dependency" data-source-line="99" id="lnk35"><path d="M558.44,583.4131 C592.85,616.7031 635.5468,658.0062 660.5668,682.2162" fill="none" id="NumPy-to-Pipeline" style="stroke:#000000;stroke-width:1;"/><polygon fill="#000000" points="664.16,685.6931,660.4737,676.5601,660.5668,682.2162,654.9107,682.3093,664.16,685.6931" style="stroke:#000000;stroke-width:1;stroke-linejoin:miter;stroke-miterlimit:10;"/></g><g class="legend" data-source-line="112"><rect fill="none" height="111.7813" rx="7.5" ry="7.5" style="stroke:#000000;stroke-width:1;" width="505.2979" x="900.772" y="782.9128"/><text fill="#000000" font-family="sans-serif" font-size="14" lengthAdjust="spacing" textLength="26.8105" x="910.2222" y="802.9079">Tier</text><text fill="#000000" font-family="sans-serif" font-size="14" lengthAdjust="spacing" textLength="31.001" x="1013.3833" y="802.9079">Best</text><text fill="#000000" font-family="sans-serif" font-size="14" lengthAdjust="spacing" textLength="71.0391" x="1147.7916" y="802.9079">Fallback 1</text><text fill="#000000" font-family="sans-serif" font-size="14" lengthAdjust="spacing" textLength="71.0391" x="1296.2613" y="802.9079">Fallback 2</text><text fill="#000000" font-family="sans-serif" font-size="14" lengthAdjust="spacing" textLength="15.1553" x="905.772" y="819.2048">---</text><text fill="#000000" font-family="sans-serif" font-size="14" lengthAdjust="spacing" textLength="15.1553" x="1008.9332" y="819.2048">---</text><text fill="#000000" font-family="sans-serif" font-size="14" lengthAdjust="spacing" textLength="15.1553" x="1143.3414" y="819.2048">---</text><text fill="#000000" font-family="sans-serif" font-size="14" lengthAdjust="spacing" textLength="15.1553" x="1291.8111" y="819.2048">---</text><text fill="#000000" font-family="sans-serif" font-size="14" lengthAdjust="spacing" textLength="68.0107" x="910.2222" y="835.5017">Detection</text><text fill="#000000" font-family="sans-serif" font-size="14" lengthAdjust="spacing" textLength="120.3877" x="1013.3833" y="835.5017">YOLOv8/v11 GPU</text><text fill="#000000" font-family="sans-serif" font-size="14" lengthAdjust="spacing" textLength="88.498" x="1147.7916" y="835.5017">YOLOv4 CPU</text><text fill="#000000" font-family="sans-serif" font-size="14" lengthAdjust="spacing" textLength="100.3584" x="1296.2613" y="835.5017">Mock (testing)</text><text fill="#000000" font-family="sans-serif" font-size="14" lengthAdjust="spacing" textLength="61.2705" x="910.2222" y="851.7986">Features</text><text fill="#000000" font-family="sans-serif" font-size="14" lengthAdjust="spacing" textLength="116.2314" x="1013.3833" y="851.7986">DINOv2 768-dim</text><text fill="#000000" font-family="sans-serif" font-size="14" lengthAdjust="spacing" textLength="139.5693" x="1147.7916" y="851.7986">ResNet50 2048-dim</text><text fill="#000000" font-family="sans-serif" font-size="14" lengthAdjust="spacing" textLength="10.1035" x="1296.2613" y="851.7986">--</text><text fill="#000000" font-family="sans-serif" font-size="14" lengthAdjust="spacing" textLength="89.4619" x="910.2222" y="868.0954">Performance</text><text fill="#000000" font-family="sans-serif" font-size="14" lengthAdjust="spacing" textLength="71.709" x="1013.3833" y="868.0954">Numba JIT</text><text fill="#000000" font-family="sans-serif" font-size="14" lengthAdjust="spacing" textLength="85.8457" x="1147.7916" y="868.0954">Pure NumPy</text><text fill="#000000" font-family="sans-serif" font-size="14" lengthAdjust="spacing" textLength="10.1035" x="1296.2613" y="868.0954">--</text><text fill="#000000" font-family="sans-serif" font-size="14" lengthAdjust="spacing" textLength="94.2607" x="910.2222" y="884.3923">Mask support</text><text fill="#000000" font-family="sans-serif" font-size="14" lengthAdjust="spacing" textLength="125.5078" x="1013.3833" y="884.3923">Full (YOLOv8-seg)</text><text fill="#000000" font-family="sans-serif" font-size="14" lengthAdjust="spacing" textLength="107.4814" x="1147.7916" y="884.3923">None (YOLOv4)</text><text fill="#000000" font-family="sans-serif" font-size="14" lengthAdjust="spacing" textLength="36.5244" x="1296.2613" y="884.3923">None</text><line style="stroke:#000000;stroke-width:1;" x1="905.772" x2="1401.0699" y1="789.9128" y2="789.9128"/><line style="stroke:#000000;stroke-width:1;" x1="905.772" x2="1401.0699" y1="806.2097" y2="806.2097"/><line style="stroke:#000000;stroke-width:1;" x1="905.772" x2="1401.0699" y1="822.5066" y2="822.5066"/><line style="stroke:#000000;stroke-width:1;" x1="905.772" x2="1401.0699" y1="838.8034" y2="838.8034"/><line style="stroke:#000000;stroke-width:1;" x1="905.772" x2="1401.0699" y1="855.1003" y2="855.1003"/><line style="stroke:#000000;stroke-width:1;" x1="905.772" x2="1401.0699" y1="871.3972" y2="871.3972"/><line style="stroke:#000000;stroke-width:1;" x1="905.772" x2="1401.0699" y1="887.6941" y2="887.6941"/><line style="stroke:#000000;stroke-width:1;" x1="905.772" x2="905.772" y1="789.9128" y2="887.6941"/><line style="stroke:#000000;stroke-width:1;" x1="1008.9332" x2="1008.9332" y1="789.9128" y2="887.6941"/><line style="stroke:#000000;stroke-width:1;" x1="1143.3414" x2="1143.3414" y1="789.9128" y2="887.6941"/><line style="stroke:#000000;stroke-width:1;" x1="1291.8111" x2="1291.8111" y1="789.9128" y2="887.6941"/><line style="stroke:#000000;stroke-width:1;" x1="1401.0699" x2="1401.0699" y1="789.9128" y2="887.6941"/></g><?plantuml-src hLVRRYEv4NtlhoXu7onbf-MHLfiC1CmYlisi4zionl84mMeWKDtL4jTiKY7PqcZZx6C-89-OByaXkoNBbeDzM0yma9j5retdL1KFaqFwyNAKNWr7zD6AZ8jAqHdFhCY5bqRJwLn8ZKstSxDovETCPQMyJ1KlML4Xb9gAx9xcagsmsNnD8hF6EOA0N3LrQ-UvT9taC4dSlTGBOKL9uSZCcahdfqOPIwkvzBmZpqovC9grl_LhnMGvyqBFrEuMOQrPrQUd2kfsH0jyYXcV_8QHpJPZSxOlQygv48Xsn5_zonkyz8e_63WgVs7gljiHQUFtN51S6ftDPL4O_NphZXkviFSpetBMrkH94etGmMzVqq62Yth_E_xX-ALOiwNkW8RJdv5s6F7uWOdVgxf9DnqyLtn0mZr-tTpFw1kXPCPJLJ7zCo7wwKvvAzJQoypHtuUNm-MxesMtEzOVR-weTRCU6G2FZcZ4sXdxQTGUwr-xlTAHr0LRrXcFzGax3sXc5PAt7b0ftBsZRsawDL_PVGaU1CL9i3PSi3xzJ6VNrxMn_bYVmj2EiYk3gnAUTnJMYiXejHxhQqEEPoNmMrzEjBOrikn7CrS6jAd3DdQiRzSQv4A8L9gbr3EA2iTw1CVnUPJpj9hDWY3OYCg2XkHVIHAKKgVpGwET1dJmOSDBMGp6kjh9dmIph0TnfN87IK0UMJcRUpB5nZi2cZYxvvo4fyb4Qkad4q2zv05a_3NZXQUBgESSBBJqtt__1u9isUlaMdSiY_oQ_GThoZC0MRDljI6-SyZF6lXUzZjPCKFocuyL1_iEMsxOEgGhKyBLgQJMwV1qs2oyRIUiyqYMEcQ46gAEYToBMUWr1SyRVmFEdaKRqqVqDoiM2yGgmpr9tMhl17c-EHj2f0oHUPwKE3V9cukBeNrYNrdjw3josrlCDu0EWQsadzF26l2rB64BLym17gX1thEDUmeaqjUN3UyA9JL3SNfnHihCPBOJ-ojnl3UW3mYeiemu0P3NPVc-wiZpPZcoN8MRc5bcNTFyxE9wkEpHPpbAJuwwVKG_Ynn_Gt_wuxiqboLnEUKyHuP0Z5_xtuFY2mGo5JwRWq6iYjHLM5bAXoH3prXt-xqhO3wujB0CLwIEt0cs8Wq_iGDOltzBBH_A28x2rNQqUtGQRFVUzgFniRwuElvuVdq-wlvryhb73Mpts1xLrre3EOEX2DDwQH-eqMndNaqxoeZyPM96RucE_IP_JLQDxMpuMUEssw6HNTDJdQt30XrZQiozPSUXInyXXsRPEtn3X_LVawNqqsv_Odbs613TwxnCWKss8kW3YXs1ct3h5By0LV019U2M_r4X7rAerX-KTBvLecAg3ZgVob53M-tsJuEq-wNz-g3-RX2g2BXK2fHgGYstecRXQm7xPVKHt47qYEmrAsLMDRIlgt8gw2yNGEIVzS_IjmfahHH-_dvaAmRSmiHJeRXane7uann92nOcsQAQw70OMuJAAXKga3GlB3hK4YJyyMYpev0wdvHIJvO23HLeoVbhBOj8ZPv59jm4kkBpPerUUhFsSwF7-auRt7w9wIRV3dl0_AqekQvBRt1_TM2tY3QmiKAZLIknThGojkbxKMsWGvs8m8VQqXuTecS14oZ824Gfpf-peNRvIPTgkjgcHtcBbjoirGe3UA_lhawE9yUVZoykZqykp-azXUHZ-qL1SCBnW2g7Ee4yf7NyeQljPhtL9g7p9wlFqnuRmZ66twBITVqFXIVD6KtCHcSX1nqgZ7HnXiRiOD0TbkXzJRSGIzG0COs3xqpONB5phycK8Mo5yVmspkOrSLwD7kSwJxr9yKCtSi6XZTNSQ3uYF_mSsLBDTFVZUcfbFa8zksVRgHQOQ975Bxk7jbDEcfkLJd_O2e2VWZbtk-ss6GsURqtYdB2t6klp_rLRrENM9KtrtZjUu_c5ynWDMSKfCIUpS4aDzxtpDRGL5n7PssMY4LvQliv989eBpvTi3i4sKg0TCk1nAsgyHUbkkaFS4X1bmwpgvP83MG1Kwwj51u860XbUC59NgERUR84BSIiEBdbyPmJiDkDkW3YWgq6NCAt4n7wxxGsT9rYzhSfIe2KL1Wi8HKnPkKJnB6m2yhqfeUs1HY6O1ufp-WDjQq9tzwD73s5lcgPF_iVpsmS4_dvy8r1u8Zni1kFJ-17TRJMZLhjMkUchBcYgnv3DpF6m3Mmx2c0jJPk3k-tWWRPrFaWUw-dE_Yky1V0mNiJQ1BiLYDYg7KunHhI34ZnzcxN-zliXPhNEM_8_?></g></svg>