<svg xmlns="http://www.w3.org/2000/svg" xmlns:xlink="http://www.w3.org/1999/xlink" contentStyleType="text/css" data-diagram-type="DESCRIPTION" height="2024px" preserveAspectRatio="none" style="width:1690px;height:2024px;background:#FFFFFF;" version="1.1" viewBox="0 0 1690 2024" width="1690px" zoomAndPan="magnify"><?plantuml 1.2026.6?><defs/><g><g class="title" data-source-line="12"><text fill="#000000" font-family="sans-serif" font-size="20" font-weight="700" lengthAdjust="spacing" textLength="743.2227" x="469.9761" y="28.5645">Long-Term Object Tracking Pipeline with Feature Feedback Loops</text></g><!--cluster Input--><g class="cluster" data-qualified-name="Input" data-source-line="15" id="ent0001"><rect fill="none" height="200.6" rx="2.5" ry="2.5" style="stroke:#181818;stroke-width:1;" width="144" x="1344" y="51.2813"/><path d="M1395.8564,51.2813 L1395.8564,60.5781 L1385.8564,70.5781 L1344,70.5781" fill="none" style="stroke:#181818;stroke-width:1;"/><text fill="#000000" font-family="sans-serif" font-size="14" font-weight="700" lengthAdjust="spacing" textLength="41.8564" x="1347" y="65.2764">Input</text></g><!--cluster Detection--><g class="cluster" data-qualified-name="Detection" data-source-line="20" id="ent0004"><rect fill="none" height="355.48" rx="2.5" ry="2.5" style="stroke:#181818;stroke-width:1;" width="285" x="1274" y="300.8812"/><path d="M1360.6787,300.8812 L1360.6787,310.1781 L1350.6787,320.1781 L1274,320.1781" fill="none" style="stroke:#181818;stroke-width:1;"/><text fill="#000000" font-family="sans-serif" font-size="14" font-weight="700" lengthAdjust="spacing" textLength="76.6787" x="1277" y="314.8764">Detection</text></g><!--cluster Feature\nExtraction--><g class="cluster" data-qualified-name="Feature.nExtraction" data-source-line="26" id="ent0008"><rect fill="none" height="387.78" rx="2.5" ry="2.5" style="stroke:#181818;stroke-width:1;" width="245" x="1108" y="705.3612"/><path d="M1199.0127,705.3612 L1199.0127,730.955 L1189.0127,740.955 L1108,740.955" fill="none" style="stroke:#181818;stroke-width:1;"/><text fill="#000000" font-family="sans-serif" font-size="14" font-weight="700" lengthAdjust="spacing" textLength="61.5645" x="1120.7241" y="719.3564">Feature</text><text fill="#000000" font-family="sans-serif" font-size="14" font-weight="700" lengthAdjust="spacing" textLength="81.0127" x="1111" y="735.6532">Extraction</text></g><!--cluster Tracking\nSystem--><g class="cluster" data-qualified-name="Tracking.nSystem" data-source-line="32" id="ent0012"><rect fill="none" height="736.38" rx="2.5" ry="2.5" style="stroke:#181818;stroke-width:1;" width="906" x="7" y="1142.1413"/><path d="M85.2979,1142.1413 L85.2979,1167.735 L75.2979,1177.735 L7,1177.735" fill="none" style="stroke:#181818;stroke-width:1;"/><text fill="#000000" font-family="sans-serif" font-size="14" font-weight="700" lengthAdjust="spacing" textLength="68.2979" x="10" y="1156.1364">Tracking</text><text fill="#000000" font-family="sans-serif" font-size="14" font-weight="700" lengthAdjust="spacing" textLength="58.3174" x="14.9902" y="1172.4332">System</text></g><!--cluster Hybrid\nTracker--><g class="cluster" data-qualified-name="Tracking.nSystem.Hybrid.nTracker" data-source-line="33" id="ent0013"><rect fill="none" height="653.38" rx="2.5" ry="2.5" style="stroke:#181818;stroke-width:1;" width="668" x="31" y="1201.1413"/><path d="M100.9102,1201.1413 L100.9102,1226.735 L90.9102,1236.735 L31,1236.735" fill="none" style="stroke:#181818;stroke-width:1;"/><text fill="#000000" font-family="sans-serif" font-size="14" font-weight="700" lengthAdjust="spacing" textLength="52.5889" x="37.6606" y="1215.1364">Hybrid</text><text fill="#000000" font-family="sans-serif" font-size="14" font-weight="700" lengthAdjust="spacing" textLength="59.9102" x="34" y="1231.4332">Tracker</text></g><!--cluster Output--><g class="cluster" data-qualified-name="Output" data-source-line="45" id="ent0021"><rect fill="none" height="242.89" rx="2.5" ry="2.5" style="stroke:#181818;stroke-width:1;" width="245" x="938" y="1767.2213"/><path d="M1003.2412,1767.2213 L1003.2412,1776.5181 L993.2412,1786.5181 L938,1786.5181" fill="none" style="stroke:#181818;stroke-width:1;"/><text fill="#000000" font-family="sans-serif" font-size="14" font-weight="700" lengthAdjust="spacing" textLength="55.2412" x="941" y="1781.2164">Output</text></g><!--entity VideoSource--><g class="entity" data-qualified-name="Input.VideoSource" data-source-line="16" id="ent0002"><rect fill="#87CEFA" height="36.2969" rx="2.5" ry="2.5" style="stroke:#181818;stroke-width:0.5;" width="112.374" x="1359.81" y="86.2813"/><text fill="#000000" font-family="sans-serif" font-size="14" lengthAdjust="spacing" textLength="92.374" x="1369.81" y="109.2764">Video Source</text></g><!--entity Frame--><g class="entity" data-qualified-name="Input.Frame" data-source-line="17" id="ent0003"><rect fill="#87CEFA" height="36.2969" rx="2.5" ry="2.5" style="stroke:#181818;stroke-width:0.5;" width="108.6211" x="1361.69" y="199.5812"/><text fill="#000000" font-family="sans-serif" font-size="14" lengthAdjust="spacing" textLength="88.6211" x="1371.69" y="222.5764">Video Frame</text></g><!--entity YOLODetector--><g class="entity" data-qualified-name="Detection.YOLODetector" data-source-line="21" id="ent0005"><rect fill="#87CEFA" height="36.2969" rx="2.5" ry="2.5" style="stroke:#181818;stroke-width:0.5;" width="123.8447" x="1354.08" y="335.8812"/><text fill="#000000" font-family="sans-serif" font-size="14" lengthAdjust="spacing" textLength="103.8447" x="1364.08" y="358.8764">YOLO Detector</text></g><!--entity MockDetector--><g class="entity" data-qualified-name="Detection.MockDetector" data-source-line="22" id="ent0006"><rect fill="#87CEFA" height="52.5938" rx="2.5" ry="2.5" style="stroke:#181818;stroke-width:0.5;" width="121.9033" x="1290.05" y="449.1712"/><text fill="#000000" font-family="sans-serif" font-size="14" lengthAdjust="spacing" textLength="101.9033" x="1300.05" y="472.1664">Mock Detector</text><text fill="#000000" font-family="sans-serif" font-size="14" lengthAdjust="spacing" textLength="68.6055" x="1300.05" y="488.4632">(Fallback)</text></g><!--entity Detections--><g class="entity" data-qualified-name="Detection.Detections" data-source-line="23" id="ent0007"><path d="M1372.99,588.7713 C1372.99,578.7713 1416.9954,578.7713 1416.9954,578.7713 C1416.9954,578.7713 1461.0007,578.7713 1461.0007,588.7713 L1461.0007,630.365 C1461.0007,640.365 1416.9954,640.365 1416.9954,640.365 C1416.9954,640.365 1372.99,640.365 1372.99,630.365 L1372.99,588.7713" fill="#90EE90" style="stroke:#181818;stroke-width:0.5;"/><path d="M1372.99,588.7713 C1372.99,598.7713 1416.9954,598.7713 1416.9954,598.7713 C1416.9954,598.7713 1461.0007,598.7713 1461.0007,588.7713" fill="none" style="stroke:#181818;stroke-width:0.5;"/><text fill="#000000" font-family="sans-serif" font-size="14" lengthAdjust="spacing" textLength="68.0107" x="1382.99" y="615.7664">Detection</text><text fill="#000000" font-family="sans-serif" font-size="14" lengthAdjust="spacing" textLength="51.1807" x="1382.99" y="632.0632">Results</text></g><!--entity FeatureExtractor--><g class="entity" data-qualified-name="Feature.nExtraction.FeatureExtractor" data-source-line="27" id="ent0009"><rect fill="#87CEFA" height="36.2969" rx="2.5" ry="2.5" style="stroke:#181818;stroke-width:0.5;" width="200.9336" x="1130.53" y="756.3612"/><text fill="#000000" font-family="sans-serif" font-size="14" lengthAdjust="spacing" textLength="180.9336" x="1140.53" y="779.3564">DINOv2 Feature Extractor</text></g><!--entity ResNetFallback--><g class="entity" data-qualified-name="Feature.nExtraction.ResNetFallback" data-source-line="28" id="ent0010"><rect fill="#87CEFA" height="52.5938" rx="2.5" ry="2.5" style="stroke:#181818;stroke-width:0.5;" width="88.6055" x="1123.7" y="869.6612"/><text fill="#000000" font-family="sans-serif" font-size="14" lengthAdjust="spacing" textLength="68.0244" x="1133.7" y="892.6564">ResNet50</text><text fill="#000000" font-family="sans-serif" font-size="14" lengthAdjust="spacing" textLength="68.6055" x="1133.7" y="908.9532">(Fallback)</text></g><!--entity Features--><g class="entity" data-qualified-name="Feature.nExtraction.Features" data-source-line="29" id="ent0011"><path d="M1146.36,1009.2513 C1146.36,999.2513 1186.9953,999.2513 1186.9953,999.2513 C1186.9953,999.2513 1227.6305,999.2513 1227.6305,1009.2513 L1227.6305,1067.1419 C1227.6305,1077.1419 1186.9953,1077.1419 1186.9953,1077.1419 C1186.9953,1077.1419 1146.36,1077.1419 1146.36,1067.1419 L1146.36,1009.2513" fill="#90EE90" style="stroke:#181818;stroke-width:0.5;"/><path d="M1146.36,1009.2513 C1146.36,1019.2513 1186.9953,1019.2513 1186.9953,1019.2513 C1186.9953,1019.2513 1227.6305,1019.2513 1227.6305,1009.2513" fill="none" style="stroke:#181818;stroke-width:0.5;"/><text fill="#000000" font-family="sans-serif" font-size="14" lengthAdjust="spacing" textLength="53.1357" x="1156.36" y="1036.2464">Current</text><text fill="#000000" font-family="sans-serif" font-size="14" lengthAdjust="spacing" textLength="44.6387" x="1156.36" y="1052.5432">Frame</text><text fill="#000000" font-family="sans-serif" font-size="14" lengthAdjust="spacing" textLength="61.2705" x="1156.36" y="1068.8401">Features</text></g><!--entity PrimaryTracker--><g class="entity" data-qualified-name="Tracking.nSystem.PrimaryTracker" data-source-line="42" id="ent0020"><rect fill="#87CEFA" height="52.5938" rx="2.5" ry="2.5" style="stroke:#181818;stroke-width:0.5;" width="181.9023" x="715.05" y="1647.1313"/><text fill="#000000" font-family="sans-serif" font-size="14" lengthAdjust="spacing" textLength="161.9023" x="725.05" y="1670.1264">Primary Object Tracker</text><text fill="#000000" font-family="sans-serif" font-size="14" lengthAdjust="spacing" textLength="39.1904" x="725.05" y="1686.4232">(ID 1)</text></g><!--entity DeepSORT--><g class="entity" data-qualified-name="Tracking.nSystem.Hybrid.nTracker.DeepSORT" data-source-line="34" id="ent0014"><rect fill="#87CEFA" height="36.2969" rx="2.5" ry="2.5" style="stroke:#181818;stroke-width:0.5;" width="152.5898" x="530.71" y="1390.7312"/><text fill="#000000" font-family="sans-serif" font-size="14" lengthAdjust="spacing" textLength="132.5898" x="540.71" y="1413.7264">DeepSORT Tracker</text></g><!--entity Tracks--><g class="entity" data-qualified-name="Tracking.nSystem.Hybrid.nTracker.Tracks" data-source-line="35" id="ent0015"><path d="M580.01,1514.0313 C580.01,1504.0313 613.0027,1504.0313 613.0027,1504.0313 C613.0027,1504.0313 645.9954,1504.0313 645.9954,1514.0313 L645.9954,1555.625 C645.9954,1565.625 613.0027,1565.625 613.0027,1565.625 C613.0027,1565.625 580.01,1565.625 580.01,1555.625 L580.01,1514.0313" fill="#90EE90" style="stroke:#181818;stroke-width:0.5;"/><path d="M580.01,1514.0313 C580.01,1524.0313 613.0027,1524.0313 613.0027,1524.0313 C613.0027,1524.0313 645.9954,1524.0313 645.9954,1514.0313" fill="none" style="stroke:#181818;stroke-width:0.5;"/><text fill="#000000" font-family="sans-serif" font-size="14" lengthAdjust="spacing" textLength="43.5518" x="590.01" y="1541.0264">Active</text><text fill="#000000" font-family="sans-serif" font-size="14" lengthAdjust="spacing" textLength="45.9854" x="590.01" y="1557.3232">Tracks</text></g><!--entity ReID--><g class="entity" data-qualified-name="Tracking.nSystem.Hybrid.nTracker.ReID" data-source-line="36" id="ent0016"><rect fill="#87CEFA" height="36.2969" rx="2.5" ry="2.5" style="stroke:#181818;stroke-width:0.5;" width="113.6592" x="269.17" y="1802.2213"/><text fill="#000000" font-family="sans-serif" font-size="14" lengthAdjust="spacing" textLength="93.6592" x="279.17" y="1825.2164">Re-ID Module</text></g><!--entity FeatureGallery--><g class="entity" data-qualified-name="Tracking.nSystem.Hybrid.nTracker.FeatureGallery" data-source-line="37" id="ent0017"><path d="M363.01,1262.1413 C363.01,1252.1413 399.9983,1252.1413 399.9983,1252.1413 C399.9983,1252.1413 436.9866,1252.1413 436.9866,1262.1413 L436.9866,1303.735 C436.9866,1313.735 399.9983,1313.735 399.9983,1313.735 C399.9983,1313.735 363.01,1313.735 363.01,1303.735 L363.01,1262.1413" fill="#90EE90" style="stroke:#181818;stroke-width:0.5;"/><path d="M363.01,1262.1413 C363.01,1272.1413 399.9983,1272.1413 399.9983,1272.1413 C399.9983,1272.1413 436.9866,1272.1413 436.9866,1262.1413" fill="none" style="stroke:#181818;stroke-width:0.5;"/><text fill="#000000" font-family="sans-serif" font-size="14" lengthAdjust="spacing" textLength="53.9766" x="373.01" y="1289.1364">Feature</text><text fill="#000000" font-family="sans-serif" font-size="14" lengthAdjust="spacing" textLength="49.8613" x="373.01" y="1305.4332">Gallery</text></g><!--entity TrackHistory--><g class="entity" data-qualified-name="Tracking.nSystem.Hybrid.nTracker.TrackHistory" data-source-line="38" id="ent0018"><path d="M251.1,1652.6313 C251.1,1642.6313 286.0033,1642.6313 286.0033,1642.6313 C286.0033,1642.6313 320.9066,1642.6313 320.9066,1652.6313 L320.9066,1694.225 C320.9066,1704.225 286.0033,1704.225 286.0033,1704.225 C286.0033,1704.225 251.1,1704.225 251.1,1694.225 L251.1,1652.6313" fill="#90EE90" style="stroke:#181818;stroke-width:0.5;"/><path d="M251.1,1652.6313 C251.1,1662.6313 286.0033,1662.6313 286.0033,1662.6313 C286.0033,1662.6313 320.9066,1662.6313 320.9066,1652.6313" fill="none" style="stroke:#181818;stroke-width:0.5;"/><text fill="#000000" font-family="sans-serif" font-size="14" lengthAdjust="spacing" textLength="38.6914" x="261.1" y="1679.6264">Track</text><text fill="#000000" font-family="sans-serif" font-size="14" lengthAdjust="spacing" textLength="49.8066" x="261.1" y="1695.9232">History</text></g><!--entity MotionPrediction--><g class="entity" data-qualified-name="Tracking.nSystem.Hybrid.nTracker.MotionPrediction" data-source-line="39" id="ent0019"><rect fill="#87CEFA" height="52.5938" rx="2.5" ry="2.5" style="stroke:#181818;stroke-width:0.5;" width="90.1025" x="375.95" y="1647.1313"/><text fill="#000000" font-family="sans-serif" font-size="14" lengthAdjust="spacing" textLength="47.4619" x="385.95" y="1670.1264">Motion</text><text fill="#000000" font-family="sans-serif" font-size="14" lengthAdjust="spacing" textLength="70.1025" x="385.95" y="1686.4232">Prediction</text></g><!--entity Visualization--><g class="entity" data-qualified-name="Output.Visualization" data-source-line="46" id="ent0022"><rect fill="#87CEFA" height="36.2969" rx="2.5" ry="2.5" style="stroke:#181818;stroke-width:0.5;" width="108.7373" x="953.63" y="1802.2213"/><text fill="#000000" font-family="sans-serif" font-size="14" lengthAdjust="spacing" textLength="88.7373" x="963.63" y="1825.2164">Visualization</text></g><!--entity VideoOutput--><g class="entity" data-qualified-name="Output.VideoOutput" data-source-line="47" id="ent0023"><rect fill="#FFFFE0" height="52.5938" rx="35" ry="35" style="stroke:#181818;stroke-width:0.5;" width="68.6309" x="953.68" y="1941.5213"/><text fill="#000000" font-family="sans-serif" font-size="14" lengthAdjust="spacing" textLength="39.5322" x="963.68" y="1964.5164">Video</text><text fill="#000000" font-family="sans-serif" font-size="14" lengthAdjust="spacing" textLength="48.6309" x="963.68" y="1980.8132">Output</text></g><!--entity Stats--><g class="entity" data-qualified-name="Output.Stats" data-source-line="48" id="ent0024"><rect fill="#FFFFE0" height="52.5938" rx="35" ry="35" style="stroke:#181818;stroke-width:0.5;" width="109.4619" x="1057.27" y="1941.5213"/><text fill="#000000" font-family="sans-serif" font-size="14" lengthAdjust="spacing" textLength="89.4619" x="1067.27" y="1964.5164">Performance</text><text fill="#000000" font-family="sans-serif" font-size="14" lengthAdjust="spacing" textLength="35.7383" x="1067.27" y="1980.8132">Stats</text></g><g class="entity" data-qualified-name="GMN55" data-source-line="92" id="ent0056"><path d="M928.64,1262.8113 L928.64,1278.9412 L437.34,1282.9412 L928.64,1286.9412 L928.64,1303.0769 A0,0 0 0 0 928.64,1303.0769 L1167.3519,1303.0769 A0,0 0 0 0 1167.3519,1303.0769 L1167.3519,1272.8113 L1157.3519,1262.8113 L928.64,1262.8113 A0,0 0 0 0 928.64,1262.8113" fill="#FFFACD" style="stroke:#181818;stroke-width:0.5;"/><path d="M1157.3519,1262.8113 L1157.3519,1272.8113 L1167.3519,1272.8113 L1157.3519,1262.8113" fill="#FFFACD" style="stroke:#181818;stroke-width:0.5;"/><text fill="#000000" font-family="sans-serif" font-size="13" lengthAdjust="spacing" textLength="204.5532" x="934.64" y="1279.8781">Features persist across frames,</text><text fill="#000000" font-family="sans-serif" font-size="13" lengthAdjust="spacing" textLength="217.7119" x="934.64" y="1295.011">building a history of appearances</text></g><!--link VideoSource to Frame--><g class="link" data-entity-1="ent0002" data-entity-2="ent0003" data-link-type="dependency" data-source-line="52" id="lnk25"><path d="M1416,122.8212 C1416,143.6112 1416,173.2012 1416,194.0912" fill="none" id="VideoSource-to-Frame" style="stroke:#000000;stroke-width:1;"/><polygon fill="#000000" points="1416,199.0912,1420,190.0912,1416,194.0912,1412,190.0912,1416,199.0912" style="stroke:#000000;stroke-width:1;stroke-linejoin:miter;stroke-miterlimit:10;"/><text fill="#000000" font-family="sans-serif" font-size="13" lengthAdjust="spacing" textLength="36.334" x="1417" y="165.6481">reads</text></g><!--link Frame to YOLODetector--><g class="link" data-entity-1="ent0003" data-entity-2="ent0005" data-link-type="dependency" data-source-line="53" id="lnk26"><path d="M1416,236.2813 C1416,262.0213 1416,304.7212 1416,330.4612" fill="none" id="Frame-to-YOLODetector" style="stroke:#000000;stroke-width:1;"/><polygon fill="#000000" points="1416,335.4612,1420,326.4612,1416,330.4612,1412,326.4612,1416,335.4612" style="stroke:#000000;stroke-width:1;stroke-linejoin:miter;stroke-miterlimit:10;"/><text fill="#000000" font-family="sans-serif" font-size="13" lengthAdjust="spacing" textLength="33.4395" x="1417" y="280.9481">input</text></g><!--link YOLODetector to Detections--><g class="link" data-entity-1="ent0005" data-entity-2="ent0007" data-link-type="dependency" data-source-line="54" id="lnk27"><path d="M1449.45,372.6012 C1460.29,380.1412 1471.04,390.0413 1477,402.1712 C1506.03,461.2913 1469.2697,532.8319 1441.9197,574.1519" fill="none" id="YOLODetector-to-Detections" style="stroke:#000000;stroke-width:1;"/><polygon fill="#000000" points="1439.16,578.3213,1447.4631,573.0241,1441.9197,574.1519,1440.792,568.6086,1439.16,578.3213" style="stroke:#000000;stroke-width:1;stroke-linejoin:miter;stroke-miterlimit:10;"/><text fill="#000000" font-family="sans-serif" font-size="13" lengthAdjust="spacing" textLength="59.96" x="1488.16" y="480.0381">produces</text></g><!--link YOLODetector to MockDetector--><g class="link" data-entity-1="ent0005" data-entity-2="ent0006" data-link-type="dependency" data-source-line="55" id="lnk28"><path d="M1395.78,372.6512 C1387.39,380.8812 1378.2,391.2713 1372,402.1712 C1363.8,416.6012 1359.6529,429.6299 1356.4629,444.0099" fill="none" id="YOLODetector-to-MockDetector" style="stroke:#000000;stroke-width:1;stroke-dasharray:7,7;"/><polygon fill="#000000" points="1355.38,448.8912,1361.2342,440.9711,1356.4629,444.0099,1353.4241,439.2386,1355.38,448.8912" style="stroke:#000000;stroke-width:1;stroke-linejoin:miter;stroke-miterlimit:10;"/><text fill="#000000" font-family="sans-serif" font-size="13" lengthAdjust="spacing" textLength="99.0996" x="1373" y="415.2381">fallback if error</text></g><!--link MockDetector to Detections--><g class="link" data-entity-1="ent0006" data-entity-2="ent0007" data-link-type="dependency" data-source-line="56" id="lnk29"><path d="M1363.88,502.2513 C1374.84,524.1812 1388.3355,551.1983 1399.8355,574.2183" fill="none" id="MockDetector-to-Detections" style="stroke:#000000;stroke-width:1;"/><polygon fill="#000000" points="1402.07,578.6912,1401.6262,568.8524,1399.8355,574.2183,1394.4695,572.4276,1402.07,578.6912" style="stroke:#000000;stroke-width:1;stroke-linejoin:miter;stroke-miterlimit:10;"/><text fill="#000000" font-family="sans-serif" font-size="13" lengthAdjust="spacing" textLength="59.96" x="1386.98" y="544.8381">produces</text></g><!--link Frame to FeatureExtractor--><g class="link" data-entity-1="ent0003" data-entity-2="ent0009" data-link-type="dependency" data-source-line="57" id="lnk30"><path d="M1361.4,231.1612 C1303.41,247.9812 1220,284.1412 1220,353.0213 C1220,353.0213 1220,353.0213 1220,610.5613 C1220,663.5813 1225.3435,721.1191 1228.5035,750.9591" fill="none" id="Frame-to-FeatureExtractor" style="stroke:#000000;stroke-width:1;"/><polygon fill="#000000" points="1229.03,755.9312,1232.06,746.5601,1228.5035,750.9591,1224.1045,747.4025,1229.03,755.9312" style="stroke:#000000;stroke-width:1;stroke-linejoin:miter;stroke-miterlimit:10;"/><text fill="#000000" font-family="sans-serif" font-size="13" lengthAdjust="spacing" textLength="33.4395" x="1221" y="480.0381">input</text></g><!--link Detections to FeatureExtractor--><g class="link" data-entity-1="ent0007" data-entity-2="ent0009" data-link-type="dependency" data-source-line="58" id="lnk31"><path d="M1372.91,637.2112 C1357.22,647.4612 1339.78,659.7413 1325,672.3612 C1294.01,698.8213 1265.9207,730.8917 1248.3907,752.0417" fill="none" id="Detections-to-FeatureExtractor" style="stroke:#000000;stroke-width:1;"/><polygon fill="#000000" points="1245.2,755.8912,1254.0229,751.5145,1248.3907,752.0417,1247.8636,746.4094,1245.2,755.8912" style="stroke:#000000;stroke-width:1;stroke-linejoin:miter;stroke-miterlimit:10;"/><text fill="#000000" font-family="sans-serif" font-size="13" lengthAdjust="spacing" textLength="81.0024" x="1326" y="685.4281">crop regions</text></g><!--link FeatureExtractor to ResNetFallback--><g class="link" data-entity-1="ent0009" data-entity-2="ent0010" data-link-type="dependency" data-source-line="59" id="lnk32"><path d="M1199.6,793.0413 C1188.95,800.6812 1178.19,810.6512 1172,822.6612 C1164.69,836.8512 1163.36,849.7591 1164.17,864.1991" fill="none" id="FeatureExtractor-to-ResNetFallback" style="stroke:#000000;stroke-width:1;stroke-dasharray:7,7;"/><polygon fill="#000000" points="1164.45,869.1912,1167.9397,859.9814,1164.17,864.1991,1159.9522,860.4294,1164.45,869.1912" style="stroke:#000000;stroke-width:1;stroke-linejoin:miter;stroke-miterlimit:10;"/><text fill="#000000" font-family="sans-serif" font-size="13" lengthAdjust="spacing" textLength="99.0996" x="1173" y="835.7281">fallback if error</text></g><!--link FeatureExtractor to Features--><g class="link" data-entity-1="ent0009" data-entity-2="ent0011" data-link-type="dependency" data-source-line="60" id="lnk33"><path d="M1254.68,793.0913 C1263.43,801.0413 1272.34,811.2212 1277,822.6612 C1279.85,829.6512 1278.02,832.1712 1277,839.6612 C1268.93,898.8912 1268.14,915.9913 1241,969.2513 C1235.8,979.4512 1231.9821,985.6309 1224.8921,994.8309" fill="none" id="FeatureExtractor-to-Features" style="stroke:#000000;stroke-width:1;"/><polygon fill="#000000" points="1221.84,998.7913,1230.5021,994.1042,1224.8921,994.8309,1224.1654,989.2209,1221.84,998.7913" style="stroke:#000000;stroke-width:1;stroke-linejoin:miter;stroke-miterlimit:10;"/><text fill="#000000" font-family="sans-serif" font-size="13" lengthAdjust="spacing" textLength="53.1172" x="1273.76" y="900.5181">extracts</text></g><!--link ResNetFallback to Features--><g class="link" data-entity-1="ent0010" data-entity-2="ent0011" data-link-type="dependency" data-source-line="61" id="lnk34"><path d="M1171.48,922.6812 C1174.38,944.0313 1177.8573,969.7567 1181.1473,993.9867" fill="none" id="ResNetFallback-to-Features" style="stroke:#000000;stroke-width:1;"/><polygon fill="#000000" points="1181.82,998.9412,1184.5727,989.4849,1181.1473,993.9867,1176.6454,990.5613,1181.82,998.9412" style="stroke:#000000;stroke-width:1;stroke-linejoin:miter;stroke-miterlimit:10;"/><text fill="#000000" font-family="sans-serif" font-size="13" lengthAdjust="spacing" textLength="53.1172" x="1178.5" y="965.3181">extracts</text></g><!--link Features to DeepSORT--><g class="link" data-entity-1="ent0011" data-entity-2="ent0014" data-link-type="dependency" data-source-line="64" id="lnk35"><path d="M1200.45,1077.2813 C1218.38,1135.6612 1241.74,1247.4913 1185,1313.7312 C1121.26,1388.1513 830.8287,1403.7676 688.7387,1406.9976" fill="none" id="Features-to-DeepSORT" style="stroke:#000000;stroke-width:1;"/><polygon fill="#000000" points="683.74,1407.1113,692.8286,1410.9057,688.7387,1406.9976,692.6468,1402.9077,683.74,1407.1113" style="stroke:#000000;stroke-width:1;stroke-linejoin:miter;stroke-miterlimit:10;"/><text fill="#000000" font-family="sans-serif" font-size="13" lengthAdjust="spacing" textLength="142.4795" x="1221.8" y="1287.5081">appearance matching</text></g><!--link Detections to DeepSORT--><g class="link" data-entity-1="ent0007" data-entity-2="ent0014" data-link-type="dependency" data-source-line="65" id="lnk36"><path d="M1422.05,640.8013 C1427.07,673.4412 1434,727.0013 1434,773.5113 C1434,773.5113 1434,773.5113 1434,1283.9412 C1434,1359.3913 893.7036,1393.7789 688.6836,1404.1389" fill="none" id="Detections-to-DeepSORT" style="stroke:#000000;stroke-width:1;"/><polygon fill="#000000" points="683.69,1404.3913,692.8804,1407.9319,688.6836,1404.1389,692.4767,1399.9421,683.69,1404.3913" style="stroke:#000000;stroke-width:1;stroke-linejoin:miter;stroke-miterlimit:10;"/><text fill="#000000" font-family="sans-serif" font-size="13" lengthAdjust="spacing" textLength="104.1968" x="1435" y="965.3181">detection boxes</text></g><!--link DeepSORT to Tracks--><g class="link" data-entity-1="ent0014" data-entity-2="ent0015" data-link-type="dependency" data-source-line="66" id="lnk37"><path d="M607.85,1427.3813 C608.81,1447.2613 610.1581,1475.0671 611.3181,1499.0171" fill="none" id="DeepSORT-to-Tracks" style="stroke:#000000;stroke-width:1;"/><polygon fill="#000000" points="611.56,1504.0113,615.1199,1494.8283,611.3181,1499.0171,607.1293,1495.2153,611.56,1504.0113" style="stroke:#000000;stroke-width:1;stroke-linejoin:miter;stroke-miterlimit:10;"/><text fill="#000000" font-family="sans-serif" font-size="13" lengthAdjust="spacing" textLength="52.5776" x="611" y="1470.0981">updates</text></g><!--link Tracks to MotionPrediction--><g class="link" data-entity-1="ent0015" data-entity-2="ent0019" data-link-type="dependency" data-source-line="67" id="lnk38"><path d="M579.67,1554.1612 C571.15,1558.3513 561.88,1562.4913 553,1565.6313 C495.05,1586.1113 456.46,1547.6812 418,1595.6313 C406.65,1609.7813 407.0251,1625.7113 410.9851,1642.0913" fill="none" id="Tracks-to-MotionPrediction" style="stroke:#000000;stroke-width:1;"/><polygon fill="#000000" points="412.16,1646.9512,413.9331,1637.2633,410.9851,1642.0913,406.1571,1639.1432,412.16,1646.9512" style="stroke:#000000;stroke-width:1;stroke-linejoin:miter;stroke-miterlimit:10;"/><text fill="#000000" font-family="sans-serif" font-size="13" lengthAdjust="spacing" textLength="113.7246" x="419" y="1608.6981">calculate velocity</text></g><!--link Features to FeatureGallery--><g class="link" data-entity-1="ent0011" data-entity-2="ent0017" data-link-type="dependency" data-source-line="70" id="lnk39"><path d="M1146.07,1051.8213 C1009.14,1094.0613 573.0579,1228.5575 441.9179,1269.0075" fill="none" id="Features-to-FeatureGallery" style="stroke:#000000;stroke-width:1;"/><polygon fill="#000000" points="437.14,1270.4812,446.9192,1271.6508,441.9179,1269.0075,444.5612,1264.0062,437.14,1270.4812" style="stroke:#000000;stroke-width:1;stroke-linejoin:miter;stroke-miterlimit:10;"/><text fill="#000000" font-family="sans-serif" font-size="13" lengthAdjust="spacing" textLength="39.9395" x="955.45" y="1122.2081">stores</text></g><!--link Tracks to TrackHistory--><g class="link" data-entity-1="ent0015" data-entity-2="ent0018" data-link-type="dependency" data-source-line="71" id="lnk40"><path d="M579.51,1554.7813 C571.07,1558.9013 561.88,1562.8513 553,1565.6313 C465.12,1593.1113 427.98,1550.0012 348,1595.6313 C328.95,1606.4913 316.1788,1621.5015 305.4388,1637.9915" fill="none" id="Tracks-to-TrackHistory" style="stroke:#000000;stroke-width:1;"/><polygon fill="#000000" points="302.71,1642.1812,310.9736,1636.8228,305.4388,1637.9915,304.27,1632.4567,302.71,1642.1812" style="stroke:#000000;stroke-width:1;stroke-linejoin:miter;stroke-miterlimit:10;"/><text fill="#000000" font-family="sans-serif" font-size="13" lengthAdjust="spacing" textLength="52.5776" x="349" y="1608.6981">updates</text></g><!--link Tracks to FeatureGallery--><g class="link" data-entity-1="ent0015" data-entity-2="ent0017" data-link-type="dependency" data-source-line="72" id="lnk41"><path d="M579.53,1517.1113 C519.96,1487.3213 401.65,1428.0813 401,1427.0313 C379.84,1392.9412 383.9209,1349.8078 390.6009,1318.9878" fill="none" id="Tracks-to-FeatureGallery" style="stroke:#000000;stroke-width:1;"/><polygon fill="#000000" points="391.66,1314.1013,385.8444,1322.0497,390.6009,1318.9878,393.6628,1323.7443,391.66,1314.1013" style="stroke:#000000;stroke-width:1;stroke-linejoin:miter;stroke-miterlimit:10;"/><text fill="#000000" font-family="sans-serif" font-size="13" lengthAdjust="spacing" textLength="110.9761" x="402" y="1413.4481">associate with ID</text></g><!--link FeatureGallery to ReID--><g class="link" data-entity-1="ent0017" data-entity-2="ent0016" data-link-type="dependency" data-source-line="73" id="lnk42"><path d="M362.59,1290.3413 C278.53,1305.7813 82,1348.2613 82,1407.8813 C82,1407.8813 82,1407.8813 82,1674.4212 C82,1711.5713 87.53,1726.2112 115,1751.2213 C157.55,1789.9713 217.4191,1805.9351 263.9791,1813.1551" fill="none" id="FeatureGallery-to-ReID" style="stroke:#000000;stroke-width:1;"/><polygon fill="#000000" points="268.92,1813.9212,260.6392,1808.5894,263.9791,1813.1551,259.4133,1816.4949,268.92,1813.9212" style="stroke:#000000;stroke-width:1;stroke-linejoin:miter;stroke-miterlimit:10;"/><text fill="#000000" font-family="sans-serif" font-size="13" lengthAdjust="spacing" textLength="140.5815" x="83" y="1539.3981">compare with current</text></g><!--link ReID to FeatureGallery--><g class="link" data-entity-1="ent0016" data-entity-2="ent0017" data-link-type="dependency" data-source-line="77" id="lnk46"><path d="M268.92,1815.3213 C212,1808.1912 134.89,1788.5113 149,1734.2213 C160.97,1688.1513 323.8451,1411.9592 379.3951,1318.5092" fill="none" id="ReID-to-FeatureGallery" style="stroke:#000000;stroke-width:1;"/><polygon fill="#000000" points="381.95,1314.2112,373.9128,1319.9037,379.3951,1318.5092,380.7896,1323.9915,381.95,1314.2112" style="stroke:#000000;stroke-width:1;stroke-linejoin:miter;stroke-miterlimit:10;"/><text fill="#000000" font-family="sans-serif" font-size="13" lengthAdjust="spacing" textLength="101.5562" x="270.14" y="1539.3981">merge galleries</text></g><!--link TrackHistory to ReID--><g class="link" data-entity-1="ent0018" data-entity-2="ent0016" data-link-type="dependency" data-source-line="74" id="lnk43"><path d="M250.75,1681.2012 C205.92,1691.5012 137.12,1713.9412 162,1751.2213 C185.7,1786.7413 226.8756,1802.7024 264.1656,1810.8624" fill="none" id="TrackHistory-to-ReID" style="stroke:#000000;stroke-width:1;"/><polygon fill="#000000" points="269.05,1811.9312,261.1131,1806.0998,264.1656,1810.8624,259.403,1813.9149,269.05,1811.9312" style="stroke:#000000;stroke-width:1;stroke-linejoin:miter;stroke-miterlimit:10;"/><text fill="#000000" font-family="sans-serif" font-size="13" lengthAdjust="spacing" textLength="119.6533" x="163" y="1747.2881">spatial constraints</text></g><!--link MotionPrediction to ReID--><g class="link" data-entity-1="ent0019" data-entity-2="ent0016" data-link-type="dependency" data-source-line="75" id="lnk44"><path d="M375.54,1690.3013 C355.68,1699.7713 334.36,1713.9713 323,1734.2213 C311.27,1755.1213 314.3241,1778.8242 319.0741,1796.9742" fill="none" id="MotionPrediction-to-ReID" style="stroke:#000000;stroke-width:1;"/><polygon fill="#000000" points="320.34,1801.8113,321.931,1792.0918,319.0741,1796.9742,314.1917,1794.1172,320.34,1801.8113" style="stroke:#000000;stroke-width:1;stroke-linejoin:miter;stroke-miterlimit:10;"/><text fill="#000000" font-family="sans-serif" font-size="13" lengthAdjust="spacing" textLength="108.1895" x="324" y="1747.2881">predict locations</text></g><!--link MotionPrediction to ReID--><g class="link" data-entity-1="ent0019" data-entity-2="ent0016" data-link-type="dependency" data-source-line="95" id="lnk60"><path d="M434.8,1699.9812 C441.25,1715.6013 445.78,1735.5313 437,1751.2213 C423.92,1774.6013 403.6786,1788.8007 380.8586,1799.6107" fill="none" id="MotionPrediction-to-ReID-1" style="stroke:#000000;stroke-width:1;stroke-dasharray:7,7;"/><polygon fill="#000000" points="376.34,1801.7512,386.186,1801.5132,380.8586,1799.6107,382.7612,1794.2834,376.34,1801.7512" style="stroke:#000000;stroke-width:1;stroke-linejoin:miter;stroke-miterlimit:10;"/><text fill="#000000" font-family="sans-serif" font-size="13" lengthAdjust="spacing" textLength="197.4883" x="442.67" y="1747.2881">Next Frame: spatial constraint</text></g><!--link ReID to DeepSORT--><g class="link" data-entity-1="ent0016" data-entity-2="ent0014" data-link-type="dependency" data-source-line="76" id="lnk45"><path d="M383.13,1815.7312 C466.75,1809.0813 616.15,1791.7312 649,1751.2213 C653.76,1745.3513 651.02,1741.5012 649,1734.2213 C646.9,1726.6313 578.1,1620.2213 576,1612.6313 C573.98,1605.3413 571.61,1601.7813 576,1595.6313 C599.74,1562.3213 637.65,1597.7312 663,1565.6313 C721.73,1491.2413 685.2,1482.9212 672,1457.0313 C665.73,1444.7413 658.7672,1437.6491 647.4572,1430.2091" fill="none" id="ReID-to-DeepSORT" style="stroke:#000000;stroke-width:1;"/><polygon fill="#000000" points="643.28,1427.4612,648.6007,1435.7492,647.4572,1430.2091,652.9973,1429.0657,643.28,1427.4612" style="stroke:#000000;stroke-width:1;stroke-linejoin:miter;stroke-miterlimit:10;"/><text fill="#000000" font-family="sans-serif" font-size="13" lengthAdjust="spacing" textLength="105.5107" x="577" y="1608.6981">ID reconciliation</text></g><!--link Tracks to PrimaryTracker--><g class="link" data-entity-1="ent0015" data-entity-2="ent0020" data-link-type="dependency" data-source-line="80" id="lnk47"><path d="M646.18,1559.3113 C680.56,1583.6413 730.0586,1618.6729 765.5686,1643.8029" fill="none" id="Tracks-to-PrimaryTracker" style="stroke:#000000;stroke-width:1;"/><polygon fill="#000000" points="769.65,1646.6912,764.6142,1638.2272,765.5686,1643.8029,759.9929,1644.7573,769.65,1646.6912" style="stroke:#000000;stroke-width:1;stroke-linejoin:miter;stroke-miterlimit:10;"/><text fill="#000000" font-family="sans-serif" font-size="13" lengthAdjust="spacing" textLength="82.6274" x="722.06" y="1608.6981">filter for ID 1</text></g><!--link PrimaryTracker to ReID--><g class="link" data-entity-1="ent0020" data-entity-2="ent0016" data-link-type="dependency" data-source-line="81" id="lnk48"><path d="M772.57,1700.0713 C748.8,1717.0713 715.46,1738.5012 683,1751.2213 C581.8,1790.8613 460.1367,1807.529 388.1067,1814.509" fill="none" id="PrimaryTracker-to-ReID" style="stroke:#000000;stroke-width:1;"/><polygon fill="#000000" points="383.13,1814.9913,392.4738,1818.1045,388.1067,1814.509,391.7022,1810.1418,383.13,1814.9913" style="stroke:#000000;stroke-width:1;stroke-linejoin:miter;stroke-miterlimit:10;"/><text fill="#000000" font-family="sans-serif" font-size="13" lengthAdjust="spacing" textLength="107.4531" x="716.31" y="1747.2881">priority handling</text></g><!--link PrimaryTracker to MotionPrediction--><g class="link" data-entity-1="ent0020" data-entity-2="ent0019" data-link-type="dependency" data-source-line="82" id="lnk49"><path d="M714.82,1673.4212 C636.58,1673.4212 532.12,1673.4212 471.3,1673.4212" fill="none" id="PrimaryTracker-to-MotionPrediction" style="stroke:#000000;stroke-width:1;stroke-dasharray:7,7;"/><polygon fill="#000000" points="466.3,1673.4212,475.3,1677.4212,471.3,1673.4212,475.3,1669.4212,466.3,1673.4212" style="stroke:#000000;stroke-width:1;stroke-linejoin:miter;stroke-miterlimit:10;"/><text fill="#000000" font-family="sans-serif" font-size="13" lengthAdjust="spacing" textLength="116.5493" x="532.55" y="1666.4881">priority prediction</text></g><!--link Frame to Visualization--><g class="link" data-entity-1="ent0003" data-entity-2="ent0022" data-link-type="dependency" data-source-line="85" id="lnk50"><path d="M1470.49,234.0313 C1523.47,252.6312 1596,289.6712 1596,353.0213 C1596,353.0213 1596,353.0213 1596,1674.4212 C1596,1783.6413 1213.7551,1810.8305 1067.7851,1817.2805" fill="none" id="Frame-to-Visualization" style="stroke:#000000;stroke-width:1;"/><polygon fill="#000000" points="1062.79,1817.5012,1071.9578,1821.1001,1067.7851,1817.2805,1071.6047,1813.1079,1062.79,1817.5012" style="stroke:#000000;stroke-width:1;stroke-linejoin:miter;stroke-miterlimit:10;"/><text fill="#000000" font-family="sans-serif" font-size="13" lengthAdjust="spacing" textLength="77.1748" x="1597" y="965.3181">background</text></g><!--link Tracks to Visualization--><g class="link" data-entity-1="ent0015" data-entity-2="ent0022" data-link-type="dependency" data-source-line="86" id="lnk51"><path d="M646.46,1538.5813 C715.85,1544.9112 872.32,1562.5313 913,1595.6313 C979.61,1649.8313 999.6858,1754.2856 1005.3958,1796.8856" fill="none" id="Tracks-to-Visualization" style="stroke:#000000;stroke-width:1;"/><polygon fill="#000000" points="1006.06,1801.8413,1008.8289,1792.3896,1005.3958,1796.8856,1000.8998,1793.4524,1006.06,1801.8413" style="stroke:#000000;stroke-width:1;stroke-linejoin:miter;stroke-miterlimit:10;"/><text fill="#000000" font-family="sans-serif" font-size="13" lengthAdjust="spacing" textLength="140.1689" x="983.64" y="1677.9881">draw bounding boxes</text></g><!--link PrimaryTracker to Visualization--><g class="link" data-entity-1="ent0020" data-entity-2="ent0022" data-link-type="dependency" data-source-line="87" id="lnk52"><path d="M822.33,1700.0213 C833.65,1716.2413 849.9,1736.8113 868,1751.2213 C895.28,1772.9412 925.9961,1788.1688 954.3361,1799.8288" fill="none" id="PrimaryTracker-to-Visualization" style="stroke:#000000;stroke-width:1;"/><polygon fill="#000000" points="958.96,1801.7312,952.1589,1794.6077,954.3361,1799.8288,949.115,1802.006,958.96,1801.7312" style="stroke:#000000;stroke-width:1;stroke-linejoin:miter;stroke-miterlimit:10;"/><text fill="#000000" font-family="sans-serif" font-size="13" lengthAdjust="spacing" textLength="112.1631" x="869" y="1747.2881">highlight primary</text></g><!--link Visualization to VideoOutput--><g class="link" data-entity-1="ent0022" data-entity-2="ent0023" data-link-type="dependency" data-source-line="88" id="lnk53"><path d="M1005.59,1838.9112 C1002.09,1864.3713 996.2509,1906.7778 992.2109,1936.1678" fill="none" id="Visualization-to-VideoOutput" style="stroke:#000000;stroke-width:1;"/><polygon fill="#000000" points="991.53,1941.1213,996.7184,1932.7498,992.2109,1936.1678,988.7929,1931.6604,991.53,1941.1213" style="stroke:#000000;stroke-width:1;stroke-linejoin:miter;stroke-miterlimit:10;"/><text fill="#000000" font-family="sans-serif" font-size="13" lengthAdjust="spacing" textLength="30.4307" x="998.4" y="1907.5881">save</text></g><!--link Visualization to Stats--><g class="link" data-entity-1="ent0022" data-entity-2="ent0024" data-link-type="dependency" data-source-line="89" id="lnk54"><path d="M1020.54,1838.9112 C1038.75,1864.3713 1069.7013,1907.6644 1090.7213,1937.0544" fill="none" id="Visualization-to-Stats" style="stroke:#000000;stroke-width:1;"/><polygon fill="#000000" points="1093.63,1941.1213,1091.6479,1931.4739,1090.7213,1937.0544,1085.1409,1936.1278,1093.63,1941.1213" style="stroke:#000000;stroke-width:1;stroke-linejoin:miter;stroke-miterlimit:10;"/><text fill="#000000" font-family="sans-serif" font-size="13" lengthAdjust="spacing" textLength="48.6357" x="1073.37" y="1907.5881">metrics</text></g><!--link FeatureGallery to DeepSORT--><g class="link" data-entity-1="ent0017" data-entity-2="ent0014" data-link-type="dependency" data-source-line="93" id="lnk58"><path d="M437.49,1306.3813 C477.8,1330.5212 536.7504,1365.8224 573.5204,1387.8424" fill="none" id="FeatureGallery-to-DeepSORT" style="stroke:#000000;stroke-width:1;stroke-dasharray:7,7;"/><polygon fill="#000000" points="577.81,1390.4112,572.1438,1382.3556,573.5204,1387.8424,568.0336,1389.219,577.81,1390.4112" style="stroke:#000000;stroke-width:1;stroke-linejoin:miter;stroke-miterlimit:10;"/><text fill="#000000" font-family="sans-serif" font-size="13" lengthAdjust="spacing" textLength="261.2314" x="529.13" y="1356.7981">Next Frame: influence track assignment</text></g><!--link TrackHistory to DeepSORT--><g class="link" data-entity-1="ent0018" data-entity-2="ent0014" data-link-type="dependency" data-source-line="94" id="lnk59"><path d="M292.66,1642.3913 C297.55,1626.5913 305.73,1607.9913 319,1595.6313 C348.61,1568.0213 369.4,1584.9013 405,1565.6313 C405.62,1565.2913 527.692,1471.0964 580.342,1430.4564" fill="none" id="TrackHistory-to-DeepSORT" style="stroke:#000000;stroke-width:1;stroke-dasharray:7,7;"/><polygon fill="#000000" points="584.3,1427.4013,574.7314,1429.7341,580.342,1430.4564,579.6197,1436.067,584.3,1427.4013" style="stroke:#000000;stroke-width:1;stroke-linejoin:miter;stroke-miterlimit:10;"/><text fill="#000000" font-family="sans-serif" font-size="13" lengthAdjust="spacing" textLength="76.0957" x="483.95" y="1539.3981">Next Frame</text></g><?plantuml-src XLPDRziu4BtpLn2vj0KsHLkWbnuAREFrDa0J1t6mmABkWPP6CXkA54WghhleVzyPaf8eoK4FXgMPDyFvUaEvHwbROKN32zEqHeFsMtzIm2qKNkXQ0NC3H5XhZbT66SltIXIFcMgFhxKrdIwZ_dYGFZSTl7-Q0PMi3zuzdlQgo_6by68l79o5rnP0Ps3dZHNrUUm9b3B7F8a2qPz-4wusVkaE6gEBWwmgan_kfLUmDbWt-HFukpUC1Gd_OdHz-G2suPlzTomcVx3eKEgQtyaMbDJ0Zz8V-1g4xopWFvHKHJGqhMFi1R_gQ-POXIS1lxZMRUSl-7-Cyw__o18CtvhE5l2D2yU38BwF-ZKP1dLuOhzOxsi57gEIHYT__sw-R7WK6XiiID8B275ZCBfUiDClrq8fYlXLG9CsG_SDp0xQwNjmdVBkWl23s6L1fMBiz5y_F9Oh2szrVRjvUZTKA-bJf4aw2Ca0pxe5__xD8j2ew6MJKAywQx7UEnsAXN_HRmouVyd2xLkwqzkJyz34M9FoysblPRdJ0GGswYWJW7QxkN_WIV4jLYCA0sGCw4yimHCa7p6C-1XTtSFbzGehNtOAKcxNgvcBeQH_OyPWJtakIJIp22Viz6T9l3gDXoP1FFh6n9RUMIXbQ5IQ0deSXGZ-XJzgo9sLZR2d2Hs0vWXJU1jRao19bHLwq_byybqdbFmfXbCd4eIaXS0l0WbskZVlMHBVS-0TsChOHkW2AxNr8WrfUA8uNl0LreTNk4iSovZ6Boy_Hchn3xWpHUbOV2DvJY1KIs8lcmW9DH81CQt5PXOuP1FOwzSV9_n2O9NcbykA0-vbooQ0vnsFuSrPCuIO6Jw3AwnfCTqwq7UXft2dB3iRyC8kEun2XgXmRERhEHWswKP8pR6HHs7Bq2ms06D54lK-SD6sWFiR-yqRuN6jwtgUTuOkUmtVcnzOn455kCX8H7KjaWYrIK2wEH-eTa8LdK8WVm9b2kbF57caij0OTdyHg70HJ1AOyXQTqG1FJyofUZwcXHFX7CP14OKR2LV8349Mj5eeUhoKX4t88kvBDZap0xiM6IaK6cc7JP9qbIqgak7RACNC2n6lXg2ODGCb-7M2Tx5KCZ9-G2rIQy0YlUlmBY7CIB-7JDn3Fktml4BJFKJ3AvN71vmiElqjcm4cAKXZiQVyWBrKv7U6ZLnUJCLWruwx4uEDcogDyi3SoRv3u_7hAyzYZYgjEEBy8eg-Gk8WdqbaRdR0pwZmAKKn4fXD4T5csAhKTl44Pq1XcOQUU2kBq8lrPDRnsymQv-85wXXzX74RJZRLihK3CLgm3cTlQlt7JkyxgKAg0dE8iub-HkAx-PXJQx8vkyND4dSxBSOAFr1fMuHv8Sh8MZUBuN_MnNBkuvOCGvEVjEGC-ny0?></g></svg>