<svg xmlns="http://www.w3.org/2000/svg" xmlns:xlink="http://www.w3.org/1999/xlink" contentStyleType="text/css" data-diagram-type="STATE" height="800px" preserveAspectRatio="none" style="width:1547px;height:800px;background:#FFFFFF;" version="1.1" viewBox="0 0 1547 800" width="1547px" zoomAndPan="magnify"><?plantuml 1.2026.6?><defs/><g><g class="title" data-source-line="15"><text fill="#000000" font-family="sans-serif" font-size="18" font-weight="700" lengthAdjust="spacing" textLength="310.4033" x="614.9832" y="26.708">Primary Object (ID 1) Lifecycle</text></g><g class="entity" data-qualified-name="SEL" data-source-line="21" id="ent0001"><rect fill="#FFFFE0" height="85.1875" rx="12.5" ry="12.5" style="stroke:#000000;stroke-width:0.5;" width="160.5264" x="1100.02" y="538.4431"/><line style="stroke:#000000;stroke-width:0.5;" x1="1100.02" x2="1260.5464" y1="564.74" y2="564.74"/><text fill="#000000" font-family="sans-serif" font-size="14" lengthAdjust="spacing" textLength="78.1553" x="1141.2055" y="556.4382">SELECTING</text><text fill="#000000" font-family="sans-serif" font-size="14" lengthAdjust="spacing" textLength="140.5264" x="1105.02" y="582.7351">User chooses target</text><text fill="#000000" font-family="sans-serif" font-size="14" lengthAdjust="spacing" textLength="123.1084" x="1105.02" y="599.032">by mouse click or</text><text fill="#000000" font-family="sans-serif" font-size="14" lengthAdjust="spacing" textLength="122.3359" x="1105.02" y="615.3289">number key (1-9)</text></g><g class="entity" data-qualified-name="WAIT" data-source-line="24" id="ent0002"><rect fill="#FFFFE0" height="68.8906" rx="12.5" ry="12.5" style="stroke:#000000;stroke-width:0.5;" width="322.4629" x="1142.06" y="717.8731"/><line style="stroke:#000000;stroke-width:0.5;" x1="1142.06" x2="1464.5229" y1="744.17" y2="744.17"/><text fill="#000000" font-family="sans-serif" font-size="14" lengthAdjust="spacing" textLength="205.4473" x="1200.5678" y="735.8682">AWAITING_FIRST_DETECTION</text><text fill="#000000" font-family="sans-serif" font-size="14" lengthAdjust="spacing" textLength="257.5098" x="1147.06" y="762.1651">set_primary_object_by_bbox() stores</text><text fill="#000000" font-family="sans-serif" font-size="14" lengthAdjust="spacing" textLength="302.4629" x="1147.06" y="778.462">selected bbox, waiting_for_selection=False</text></g><g class="entity" data-qualified-name="ACT" data-source-line="27" id="ent0003"><rect fill="#90EE90" height="68.8906" rx="12.5" ry="12.5" style="stroke:#000000;stroke-width:0.5;" width="218.0098" x="404.28" y="105.7331"/><line style="stroke:#000000;stroke-width:0.5;" x1="404.28" x2="622.2898" y1="132.03" y2="132.03"/><text fill="#000000" font-family="sans-serif" font-size="14" lengthAdjust="spacing" textLength="129.7188" x="448.4255" y="123.7282">ACTIVE_TRACKING</text><text fill="#000000" font-family="sans-serif" font-size="14" lengthAdjust="spacing" textLength="198.0098" x="409.28" y="150.0251">primary_object_active=True</text><text fill="#000000" font-family="sans-serif" font-size="14" lengthAdjust="spacing" textLength="101.459" x="409.28" y="166.322">ID is fixed to 1</text></g><g class="entity" data-qualified-name="LOST" data-source-line="30" id="ent0004"><rect fill="#FFB6C1" height="68.8906" rx="12.5" ry="12.5" style="stroke:#000000;stroke-width:0.5;" width="261.6572" x="382.46" y="342.3631"/><line style="stroke:#000000;stroke-width:0.5;" x1="382.46" x2="644.1172" y1="368.66" y2="368.66"/><text fill="#000000" font-family="sans-serif" font-size="14" lengthAdjust="spacing" textLength="36.2578" x="495.1597" y="360.3582">LOST</text><text fill="#000000" font-family="sans-serif" font-size="14" lengthAdjust="spacing" textLength="202.6445" x="387.46" y="386.6551">primary_object_active=False</text><text fill="#000000" font-family="sans-serif" font-size="14" lengthAdjust="spacing" textLength="241.6572" x="387.46" y="402.952">Enter primary-only recovery mode</text></g><g class="entity" data-qualified-name="REACQ" data-source-line="33" id="ent0005"><rect fill="#E0FFFF" height="68.8906" rx="12.5" ry="12.5" style="stroke:#000000;stroke-width:0.5;" width="241.2246" x="360.68" y="546.5931"/><line style="stroke:#000000;stroke-width:0.5;" x1="360.68" x2="601.9046" y1="572.89" y2="572.89"/><text fill="#000000" font-family="sans-serif" font-size="14" lengthAdjust="spacing" textLength="98.499" x="432.0428" y="564.5882">REACQUIRING</text><text fill="#000000" font-family="sans-serif" font-size="14" lengthAdjust="spacing" textLength="221.2246" x="365.68" y="590.8851">Feature match candidate found</text><text fill="#000000" font-family="sans-serif" font-size="14" lengthAdjust="spacing" textLength="197.75" x="365.68" y="607.182">Running consistency checks</text></g><g class="entity" data-qualified-name="REACQ_OK" data-source-line="36" id="ent0006"><rect fill="#90EE90" height="68.8906" rx="12.5" ry="12.5" style="stroke:#000000;stroke-width:0.5;" width="219.7324" x="64.42" y="717.8731"/><line style="stroke:#000000;stroke-width:0.5;" x1="64.42" x2="284.1524" y1="744.17" y2="744.17"/><text fill="#000000" font-family="sans-serif" font-size="14" lengthAdjust="spacing" textLength="92.6748" x="127.9488" y="735.8682">REACQUIRED</text><text fill="#000000" font-family="sans-serif" font-size="14" lengthAdjust="spacing" textLength="199.7324" x="69.42" y="762.1651">Match accepted and verified</text><text fill="#000000" font-family="sans-serif" font-size="14" lengthAdjust="spacing" textLength="120.2168" x="69.42" y="778.462">Galleries merged</text></g><g class="entity" data-qualified-name="FALSE" data-source-line="39" id="ent0007"><rect fill="#FFB6C1" height="68.8906" rx="12.5" ry="12.5" style="stroke:#000000;stroke-width:0.5;" width="205.9375" x="704.32" y="717.8731"/><line style="stroke:#000000;stroke-width:0.5;" x1="704.32" x2="910.2575" y1="744.17" y2="744.17"/><text fill="#000000" font-family="sans-serif" font-size="14" lengthAdjust="spacing" textLength="100.6729" x="756.9523" y="735.8682">FALSE_MATCH</text><text fill="#000000" font-family="sans-serif" font-size="14" lengthAdjust="spacing" textLength="185.9375" x="709.32" y="762.1651">Match rejected (IoU &lt; 0.1)</text><text fill="#000000" font-family="sans-serif" font-size="14" lengthAdjust="spacing" textLength="108.0215" x="709.32" y="778.462">Resume search</text></g><g class="start_entity" data-qualified-name=".start." data-source-line="46" id="ent0008"><ellipse cx="1177.29" cy="376.8131" fill="#222222" rx="10" ry="10" style="stroke:#222222;stroke-width:1;"/></g><g class="end_entity" data-qualified-name=".end." data-source-line="64" id="ent0021"><ellipse cx="1037.29" cy="752.3131" fill="none" rx="11" ry="11" style="stroke:#222222;stroke-width:1;"/><ellipse cx="1037.29" cy="752.3131" fill="#222222" rx="6" ry="6" style="stroke:#222222;stroke-width:1;"/></g><g class="entity" data-qualified-name="GMN24" data-source-line="72" id="ent0025"><path d="M878.91,47.9531 L878.91,136.1831 L622.36,140.1831 L878.91,144.1831 L878.91,232.4141 A0,0 0 0 0 878.91,232.4141 L1167.6683,232.4141 A0,0 0 0 0 1167.6683,232.4141 L1167.6683,57.9531 L1157.6683,47.9531 L878.91,47.9531 A0,0 0 0 0 878.91,47.9531" fill="#FFFACD" style="stroke:#B8860B;stroke-width:0.5;"/><path d="M1157.6683,47.9531 L1157.6683,57.9531 L1167.6683,57.9531 L1157.6683,47.9531" fill="#FFFACD" style="stroke:#B8860B;stroke-width:0.5;"/><text fill="#000000" font-family="sans-serif" font-size="13" lengthAdjust="spacing" textLength="248.2314" x="884.91" y="80.1528">_update_primary_motion_prediction():</text><text fill="#000000" font-family="sans-serif" font-size="13" lengthAdjust="spacing" textLength="197.8945" x="884.91" y="95.2856">avg velocity of last 5 positions</text><text fill="#000000" font-family="sans-serif" font-size="13" lengthAdjust="spacing" textLength="202.3062" x="884.91" y="110.4185">pred = last_pos + avg_velocity</text><text fill="#000000" font-family="sans-serif" font-size="13" lengthAdjust="spacing" textLength="208.1841" x="884.91" y="125.5513">Stored in kalman_predictions[1]</text><text fill="#000000" font-family="sans-serif" font-size="13" lengthAdjust="spacing" textLength="4.1323" x="884.91" y="140.6841">&#160;</text><line style="stroke:#B8860B;stroke-width:1;" x1="879.91" x2="966.6395" y1="60.5195" y2="60.5195"/><line style="stroke:#B8860B;stroke-width:1;" x1="879.91" x2="966.6395" y1="62.5195" y2="62.5195"/><text fill="#000000" font-family="sans-serif" font-size="13" lengthAdjust="spacing" textLength="113.2993" x="966.6395" y="64.52">Motion Prediction</text><line style="stroke:#B8860B;stroke-width:1;" x1="1079.9388" x2="1166.6683" y1="60.5195" y2="60.5195"/><line style="stroke:#B8860B;stroke-width:1;" x1="1079.9388" x2="1166.6683" y1="62.5195" y2="62.5195"/><text fill="#000000" font-family="sans-serif" font-size="13" lengthAdjust="spacing" textLength="261.7583" x="884.91" y="174.9497">_primary_features_tensor stored as GPU</text><text fill="#000000" font-family="sans-serif" font-size="13" lengthAdjust="spacing" textLength="247.4507" x="884.91" y="190.0825">tensor via F.normalize() + torch.mm()</text><text fill="#000000" font-family="sans-serif" font-size="13" lengthAdjust="spacing" textLength="94.5737" x="884.91" y="205.2153">Updated when</text><text fill="#000000" font-family="sans-serif" font-size="13" lengthAdjust="spacing" textLength="257.8418" x="884.91" y="220.3481">_primary_features_need_update = True</text><line style="stroke:#B8860B;stroke-width:1;" x1="879.91" x2="975.9483" y1="155.3164" y2="155.3164"/><line style="stroke:#B8860B;stroke-width:1;" x1="879.91" x2="975.9483" y1="157.3164" y2="157.3164"/><text fill="#000000" font-family="sans-serif" font-size="13" lengthAdjust="spacing" textLength="94.6816" x="975.9483" y="159.3169">Feature Cache</text><line style="stroke:#B8860B;stroke-width:1;" x1="1070.63" x2="1166.6683" y1="155.3164" y2="155.3164"/><line style="stroke:#B8860B;stroke-width:1;" x1="1070.63" x2="1166.6683" y1="157.3164" y2="157.3164"/></g><g class="entity" data-qualified-name="GMN27" data-source-line="86" id="ent0028"><path d="M891.43,324.4131 L891.43,372.8131 L644.46,376.8131 L891.43,380.8131 L891.43,429.21 A0,0 0 0 0 891.43,429.21 L1119.1492,429.21 A0,0 0 0 0 1119.1492,429.21 L1119.1492,334.4131 L1109.1492,324.4131 L891.43,324.4131 A0,0 0 0 0 891.43,324.4131" fill="#FFFACD" style="stroke:#B8860B;stroke-width:0.5;"/><path d="M1109.1492,324.4131 L1109.1492,334.4131 L1119.1492,334.4131 L1109.1492,324.4131" fill="#FFFACD" style="stroke:#B8860B;stroke-width:0.5;"/><text fill="#000000" font-family="sans-serif" font-size="13" lengthAdjust="spacing" textLength="159.7578" x="897.43" y="356.6128">Kalman prediction filters</text><text fill="#000000" font-family="sans-serif" font-size="13" lengthAdjust="spacing" textLength="186.7163" x="897.43" y="371.7456">inactive candidates &lt; 300px</text><text fill="#000000" font-family="sans-serif" font-size="13" lengthAdjust="spacing" textLength="174.6558" x="897.43" y="386.8785">Batch GPU distance matrix</text><text fill="#000000" font-family="sans-serif" font-size="13" lengthAdjust="spacing" textLength="200.7192" x="897.43" y="402.0113">merge_threshold relaxed: 0.25</text><text fill="#000000" font-family="sans-serif" font-size="13" lengthAdjust="spacing" textLength="173.6973" x="897.43" y="417.1441">IoU threshold: 0.8x default</text><line style="stroke:#B8860B;stroke-width:1;" x1="892.43" x2="919.4852" y1="336.9795" y2="336.9795"/><line style="stroke:#B8860B;stroke-width:1;" x1="892.43" x2="919.4852" y1="338.9795" y2="338.9795"/><text fill="#000000" font-family="sans-serif" font-size="13" lengthAdjust="spacing" textLength="171.6089" x="919.4852" y="340.98">Primary-Only Offline Re-ID</text><line style="stroke:#B8860B;stroke-width:1;" x1="1091.0941" x2="1118.1492" y1="336.9795" y2="336.9795"/><line style="stroke:#B8860B;stroke-width:1;" x1="1091.0941" x2="1118.1492" y1="338.9795" y2="338.9795"/></g><g class="entity" data-qualified-name="GMN30" data-source-line="95" id="ent0031"><path d="M636.91,536.2131 L636.91,577.0431 L602.14,581.0431 L636.91,585.0431 L636.91,625.8772 A0,0 0 0 0 636.91,625.8772 L875.6615,625.8772 A0,0 0 0 0 875.6615,625.8772 L875.6615,546.2131 L865.6615,536.2131 L636.91,536.2131 A0,0 0 0 0 636.91,536.2131" fill="#FFFACD" style="stroke:#B8860B;stroke-width:0.5;"/><path d="M865.6615,536.2131 L865.6615,546.2131 L875.6615,546.2131 L865.6615,536.2131" fill="#FFFACD" style="stroke:#B8860B;stroke-width:0.5;"/><text fill="#000000" font-family="sans-serif" font-size="13" lengthAdjust="spacing" textLength="200.0718" x="642.91" y="568.4128">1. Cosine distance &lt; threshold</text><text fill="#000000" font-family="sans-serif" font-size="13" lengthAdjust="spacing" textLength="197.2788" x="642.91" y="583.5456">2. Spatial distance cap: 200px</text><text fill="#000000" font-family="sans-serif" font-size="13" lengthAdjust="spacing" textLength="211.7515" x="642.91" y="598.6785">3. IoU with predicted bbox &gt; 0.1</text><text fill="#000000" font-family="sans-serif" font-size="13" lengthAdjust="spacing" textLength="201.0811" x="642.91" y="613.8113">4. Frames since last seen &lt; 30</text><line style="stroke:#B8860B;stroke-width:1;" x1="637.91" x2="691.5365" y1="548.7795" y2="548.7795"/><line style="stroke:#B8860B;stroke-width:1;" x1="637.91" x2="691.5365" y1="550.7795" y2="550.7795"/><text fill="#000000" font-family="sans-serif" font-size="13" lengthAdjust="spacing" textLength="129.4985" x="691.5365" y="552.78">Consistency Checks</text><line style="stroke:#B8860B;stroke-width:1;" x1="821.035" x2="874.6615" y1="548.7795" y2="548.7795"/><line style="stroke:#B8860B;stroke-width:1;" x1="821.035" x2="874.6615" y1="550.7795" y2="550.7795"/></g><!--link *start* to SEL--><g class="link" data-entity-1="ent0008" data-entity-2="ent0001" data-link-type="dependency" data-source-line="46" id="lnk9"><path d="M1176.66,387.1531 C1175.33,408.3431 1172.48,461.6531 1174.29,506.2131 C1174.71,516.6131 1175.0745,522.8488 1175.9045,533.3088" fill="none" id="*start*-to-SEL" style="stroke:#000000;stroke-width:1;"/><polygon fill="#000000" points="1176.3,538.2931,1179.5756,529.0049,1175.9045,533.3088,1171.6006,529.6377,1176.3,538.2931" style="stroke:#000000;stroke-width:1;stroke-linejoin:miter;stroke-miterlimit:10;"/><text fill="#000000" font-family="sans-serif" font-size="13" lengthAdjust="spacing" textLength="143.3491" x="1175.29" y="487.28">python main.py starts</text></g><!--link SEL to WAIT--><g class="link" data-entity-1="ent0001" data-entity-2="ent0002" data-link-type="dependency" data-source-line="47" id="lnk10"><path d="M1170,623.9831 C1167.28,644.6331 1167.78,669.0631 1179.29,687.8731 C1186.54,699.7331 1192.6742,706.6341 1204.2142,714.5941" fill="none" id="SEL-to-WAIT" style="stroke:#000000;stroke-width:1;"/><polygon fill="#000000" points="1208.33,717.4331,1203.1927,709.0303,1204.2142,714.5941,1198.6503,715.6156,1208.33,717.4331" style="stroke:#000000;stroke-width:1;stroke-linejoin:miter;stroke-miterlimit:10;"/><text fill="#000000" font-family="sans-serif" font-size="13" lengthAdjust="spacing" textLength="155.4351" x="1180.29" y="668.94">User clicks on detection</text><text fill="#000000" font-family="sans-serif" font-size="13" lengthAdjust="spacing" textLength="149.5635" x="1183.2258" y="684.0728">or presses number key</text></g><!--link WAIT to ACT--><g class="link" data-entity-1="ent0002" data-entity-2="ent0003" data-link-type="dependency" data-source-line="48" id="lnk11"><path d="M1327.36,717.5531 C1332.67,708.3531 1337.53,698.0931 1340.29,687.8731 C1366.88,589.4931 1363.22,552.9631 1323.29,459.2131 C1292.09,385.9531 1272.95,366.3831 1205.29,324.4131 C1202.13,322.4531 821.8056,222.2947 627.5556,171.2147" fill="none" id="WAIT-to-ACT" style="stroke:#000000;stroke-width:1;"/><polygon fill="#000000" points="622.72,169.9431,630.4068,176.1004,627.5556,171.2147,632.4414,168.3635,622.72,169.9431" style="stroke:#000000;stroke-width:1;stroke-linejoin:miter;stroke-miterlimit:10;"/><text fill="#000000" font-family="sans-serif" font-size="13" lengthAdjust="spacing" textLength="188.6396" x="1342.73" y="472.28">Next frame: DeepSORT track</text><text fill="#000000" font-family="sans-serif" font-size="13" lengthAdjust="spacing" textLength="144.8853" x="1364.6072" y="487.4128">with IoU &gt; 0.1 against</text><text fill="#000000" font-family="sans-serif" font-size="13" lengthAdjust="spacing" textLength="148.8716" x="1362.614" y="502.5456">pending_primary_bbox</text></g><!--link ACT to ACT--><g class="link" data-entity-1="ent0003" data-entity-2="ent0003" data-link-type="dependency" data-source-line="50" id="lnk12"><path d="M622.55,115.5931 C642.94,118.6231 657.29,126.8131 657.29,140.1831 C657.29,153.5431 647.8857,161.0082 627.4957,164.0382" fill="none" id="ACT-to-ACT" style="stroke:#000000;stroke-width:1;"/><polygon fill="#000000" points="622.55,164.7731,632.0402,167.4068,627.4957,164.0382,630.8643,159.4937,622.55,164.7731" style="stroke:#000000;stroke-width:1;stroke-linejoin:miter;stroke-miterlimit:10;"/><text fill="#000000" font-family="sans-serif" font-size="13" lengthAdjust="spacing" textLength="135.2876" x="691.9433" y="129.75">Per-frame: verify IoU</text><text fill="#000000" font-family="sans-serif" font-size="13" lengthAdjust="spacing" textLength="192.5942" x="663.29" y="144.8828">cache features as GPU tensor</text><text fill="#000000" font-family="sans-serif" font-size="13" lengthAdjust="spacing" textLength="165.0962" x="677.039" y="160.0156">update motion prediction</text></g><!--link ACT to LOST--><g class="link" data-entity-1="ent0003" data-entity-2="ent0004" data-link-type="dependency" data-source-line="51" id="lnk13"><path d="M513.29,175.0431 C513.29,219.5931 513.29,292.4131 513.29,336.9531" fill="none" id="ACT-to-LOST" style="stroke:#000000;stroke-width:1;"/><polygon fill="#000000" points="513.29,341.9531,517.29,332.9531,513.29,336.9531,509.29,332.9531,513.29,341.9531" style="stroke:#000000;stroke-width:1;stroke-linejoin:miter;stroke-miterlimit:10;"/><text fill="#000000" font-family="sans-serif" font-size="13" lengthAdjust="spacing" textLength="105.2124" x="559.3552" y="275.48">No detection for</text><polygon fill="#000000" points="519.29,291.1123,522.2289,282.0673,516.3511,282.0673,519.29,291.1123" style="stroke:#000000;stroke-width:1;stroke-linejoin:miter;stroke-miterlimit:10;"/><text fill="#000000" font-family="sans-serif" font-size="13" lengthAdjust="spacing" textLength="182.3428" x="527.29" y="290.6128">max_age DeepSORT frames</text></g><!--link LOST to REACQ--><g class="link" data-entity-1="ent0004" data-entity-2="ent0005" data-link-type="dependency" data-source-line="53" id="lnk14"><path d="M507.93,411.6631 C502.01,449.1031 493.3012,504.1245 487.3912,541.4845" fill="none" id="LOST-to-REACQ" style="stroke:#000000;stroke-width:1;"/><polygon fill="#000000" points="486.61,546.4231,491.9671,538.1587,487.3912,541.4845,484.0654,536.9087,486.61,546.4231" style="stroke:#000000;stroke-width:1;stroke-linejoin:miter;stroke-miterlimit:10;"/><text fill="#000000" font-family="sans-serif" font-size="13" lengthAdjust="spacing" textLength="191.1724" x="501.15" y="472.28">Offline Re-ID finds candidate:</text><text fill="#000000" font-family="sans-serif" font-size="13" lengthAdjust="spacing" textLength="89.8257" x="551.8233" y="487.4128">cosine &lt; 0.25</text><text fill="#000000" font-family="sans-serif" font-size="13" lengthAdjust="spacing" textLength="103.1938" x="545.1393" y="502.5456">spatial &lt; 300px</text></g><!--link LOST to LOST--><g class="link" data-entity-1="ent0004" data-entity-2="ent0004" data-link-type="dependency" data-source-line="54" id="lnk15"><path d="M644.32,359.8631 C664.99,362.3631 679.12,368.0131 679.12,376.8131 C679.12,385.6031 669.9535,390.6504 649.2835,393.1604" fill="none" id="LOST-to-LOST" style="stroke:#000000;stroke-width:1;"/><polygon fill="#000000" points="644.32,393.7631,653.7366,396.649,649.2835,393.1604,652.7722,388.7074,644.32,393.7631" style="stroke:#000000;stroke-width:1;stroke-linejoin:miter;stroke-miterlimit:10;"/><text fill="#000000" font-family="sans-serif" font-size="13" lengthAdjust="spacing" textLength="104.3174" x="724.4025" y="373.88">No match found</text><text fill="#000000" font-family="sans-serif" font-size="13" lengthAdjust="spacing" textLength="182.8823" x="685.12" y="389.0128">(all distances &gt;= threshold)</text></g><!--link REACQ to REACQ_OK--><g class="link" data-entity-1="ent0005" data-entity-2="ent0006" data-link-type="dependency" data-source-line="56" id="lnk16"><path d="M419.9,615.8931 C366.44,645.3631 293.7085,685.4688 240.2085,714.9688" fill="none" id="REACQ-to-REACQ_OK" style="stroke:#000000;stroke-width:1;"/><polygon fill="#000000" points="235.83,717.3831,245.6427,716.5402,240.2085,714.9688,241.7798,709.5346,235.83,717.3831" style="stroke:#000000;stroke-width:1;stroke-linejoin:miter;stroke-miterlimit:10;"/><text fill="#000000" font-family="sans-serif" font-size="13" lengthAdjust="spacing" textLength="177.4487" x="347.17" y="668.94">IoU &gt;= 0.1 within 5 frames</text><text fill="#000000" font-family="sans-serif" font-size="13" lengthAdjust="spacing" textLength="156.5332" x="357.6278" y="684.0728">consistent spatial check</text></g><!--link REACQ to FALSE--><g class="link" data-entity-1="ent0005" data-entity-2="ent0007" data-link-type="dependency" data-source-line="57" id="lnk17"><path d="M546.48,615.8931 C603.24,645.3631 680.6826,685.5789 737.4926,715.0789" fill="none" id="REACQ-to-FALSE" style="stroke:#000000;stroke-width:1;"/><polygon fill="#000000" points="741.93,717.3831,735.7861,709.6856,737.4926,715.0789,732.0993,716.7854,741.93,717.3831" style="stroke:#000000;stroke-width:1;stroke-linejoin:miter;stroke-miterlimit:10;"/><text fill="#000000" font-family="sans-serif" font-size="13" lengthAdjust="spacing" textLength="166.5562" x="684.07" y="668.94">IoU &lt; 0.1 within 5 frames</text><text fill="#000000" font-family="sans-serif" font-size="13" lengthAdjust="spacing" textLength="135.9351" x="699.3805" y="684.0728">spatial inconsistency</text></g><!--link FALSE to LOST--><g class="link" data-entity-1="ent0007" data-entity-2="ent0004" data-link-type="dependency" data-source-line="59" id="lnk18"><path d="M839.72,717.5531 C878.11,673.3431 932.21,594.6031 893.29,536.2131 C838.18,453.5431 735.7747,415.0108 649.2147,396.0908" fill="none" id="FALSE-to-LOST" style="stroke:#000000;stroke-width:1;"/><polygon fill="#000000" points="644.33,395.0231,652.2683,400.8527,649.2147,396.0908,653.9766,393.0372,644.33,395.0231" style="stroke:#000000;stroke-width:1;stroke-linejoin:miter;stroke-miterlimit:10;"/><text fill="#000000" font-family="sans-serif" font-size="13" lengthAdjust="spacing" textLength="88.9497" x="922.7432" y="578.11">False positive</text><text fill="#000000" font-family="sans-serif" font-size="13" lengthAdjust="spacing" textLength="118.936" x="907.75" y="593.2428">reject and resume</text></g><!--link REACQ_OK to ACT--><g class="link" data-entity-1="ent0006" data-entity-2="ent0003" data-link-type="dependency" data-source-line="61" id="lnk19"><path d="M141.05,717.5731 C90.78,662.2531 6,549.3831 53.29,459.2131 C130.05,312.8231 303.5343,222.3813 414.2443,176.9513" fill="none" id="REACQ_OK-to-ACT" style="stroke:#000000;stroke-width:1;"/><polygon fill="#000000" points="418.87,175.0531,409.0252,174.7693,414.2443,176.9513,412.0623,182.1704,418.87,175.0531" style="stroke:#000000;stroke-width:1;stroke-linejoin:miter;stroke-miterlimit:10;"/><text fill="#000000" font-family="sans-serif" font-size="13" lengthAdjust="spacing" textLength="109.5859" x="77.6208" y="479.78">Match confirmed</text><text fill="#000000" font-family="sans-serif" font-size="13" lengthAdjust="spacing" textLength="156.2476" x="54.29" y="494.9128">resume normal tracking</text></g><!--link REACQ_OK to LOST--><g class="link" data-entity-1="ent0006" data-entity-2="ent0004" data-link-type="dependency" data-source-line="62" id="lnk20"><path d="M167.58,717.3931 C160.57,671.9531 155.16,590.7231 192.29,536.2131 C236.19,471.7531 309.4702,434.0446 377.5802,410.6946" fill="none" id="REACQ_OK-to-LOST" style="stroke:#000000;stroke-width:1;"/><polygon fill="#000000" points="382.31,409.0731,372.4992,408.208,377.5802,410.6946,375.0936,415.7756,382.31,409.0731" style="stroke:#000000;stroke-width:1;stroke-linejoin:miter;stroke-miterlimit:10;"/><text fill="#000000" font-family="sans-serif" font-size="13" lengthAdjust="spacing" textLength="149.1255" x="193.29" y="578.11">Immediately lost again</text><text fill="#000000" font-family="sans-serif" font-size="13" lengthAdjust="spacing" textLength="82.7544" x="226.4755" y="593.2428">(false alarm)</text></g><!--link SEL to *end*--><g class="link" data-entity-1="ent0001" data-entity-2="ent0021" data-link-type="dependency" data-source-line="64" id="lnk22"><path d="M1099.84,616.5431 C1083.28,626.9931 1067.49,640.0131 1056.29,655.8731 C1037.67,682.2231 1036.119,717.3848 1036.609,736.0848" fill="none" id="SEL-to-*end*" style="stroke:#000000;stroke-width:1;"/><polygon fill="#000000" points="1036.74,741.0831,1040.5029,731.9814,1036.609,736.0848,1032.5056,732.191,1036.74,741.0831" style="stroke:#000000;stroke-width:1;stroke-linejoin:miter;stroke-miterlimit:10;"/><text fill="#000000" font-family="sans-serif" font-size="13" lengthAdjust="spacing" textLength="103.2065" x="1057.29" y="676.44">User presses 'q'</text></g><!--link LOST to SEL--><g class="link" data-entity-1="ent0004" data-entity-2="ent0001" data-link-type="dependency" data-source-line="65" id="lnk23"><path d="M644.4,395.5931 C757.95,412.0031 912.9,437.1031 971.29,459.2131 C1008.78,473.4031 1013.67,485.9731 1048.29,506.2131 C1066.2,516.6731 1081.2587,525.2679 1099.5587,535.5279" fill="none" id="LOST-to-SEL" style="stroke:#000000;stroke-width:1;"/><polygon fill="#000000" points="1103.92,537.9731,1098.0258,530.0827,1099.5587,535.5279,1094.1135,537.0608,1103.92,537.9731" style="stroke:#000000;stroke-width:1;stroke-linejoin:miter;stroke-miterlimit:10;"/><text fill="#000000" font-family="sans-serif" font-size="13" lengthAdjust="spacing" textLength="115.6543" x="1049.29" y="479.78">Recovery timeout</text><text fill="#000000" font-family="sans-serif" font-size="13" lengthAdjust="spacing" textLength="89.9019" x="1062.1662" y="494.9128">or user resets</text></g><?plantuml-src hLRRSXev47sVh-ZoFXXl0XLogSfIiQi8XeIARRo0Tnz2QahCQ1W5ZJIHX6tswxTRcWksaoV7BtYaLjzqpcaTHyVm-MBPlPmjuTg8WfazpDRVUU9WuPZZSCcIN2YEPejStrbmEGSfCfxi4yb1PtwXh4uwmv8jJq473vtfEVHFyAZBZTvjSh1SuhhGwYKm_BtbuOHGcvSWjRMuh58mlCkI7pjX1PdsekCeicXJCiCAMAFz1hsfTAIbDd2N2ySFzYrb_V6H4PCYuMkvUsgeJSfDC5fBFFNOO6YClllvlj9F0qbUQ8KDopAj7fiUX4gPsMwqJBaoEZsmSy99Fj7ABSH_7FhleyYlmD6ZgmcDXOlw7euYRFBfC_xeUlrrfpmJolVTFjTbv1i8HulnnNYqd5vzEW9c0R_W3oaskTjpAVLTH0i3kB7SG99hRJbYZ9aDTokrtaEXTvP3WlUt1MrMIksADLfk-Huw_UvV9qsKuR_3AGM99zFvOXcVZvSKT7RbWzBUmwX-PO20T745tZY0Dbxlu_LQttTE403QSBjI0RK8Qrf_2NSC-wCsSQPDt03wTCAavMqs6FkVSRoS3qTVwifnhSfXOpXN4NqFu57qG8lJfTdnbS9R5XOoSO-ndOP-u_vYjbXwd_HFvRGKQXlvxryvzIckr5Wvx61bqjLAxf5nYRxbXjgTjaNCnyFHtpVJULs0_wwY9Nkceh0mW0bdRcSu5CmbEIJ8OP6IXuo8iLBpdLBOC4WGLC8whf8zNZLFjlP9gF5v6ocUVNdGhsPnWA94WLYIy9BkXKG3qnUPu1Zk4vCIFn171KSSfKsGoV1YCOulXylHPn_5VnzsBopKxWt_7gwzCzKty05UzVedM0otku8ZS9X9yjz0kwLXolucmdtzynjqksSGA5NkNQuLNefGlN9FScQSzNGZcue0WNT4Bmjed78NyBnIcZ32BV6n9LtW3PqFwBtYzmuob2u-W7FEoyLilWoQlb9tmkL0hJkZrW7RO28MMLron0VofmOfiIhoR6ZzNdFJhTpwYzsJevLAS1WXh0BSBDtXf-iRG4HPqePTwL5NQ2g0aa-5hwNnNR7ZIhTr8aRnv1bswJvc6zuMuQCZGFqPEbo3VPPb4WSYp7aN-ObgcTeMyWFCKLlQ9hoyVeVYKJ8dcCJlDwzUbVUjlpQPG9kAB1r4BwH84wOIBF7ib8OdjpbE2nIxa4IJJc23x_6fRpBrN2XuLwLFsLISSr1dugbtuAb6VOFofrxgeq8TS3Yg-79GZ5SOA3K1-XQb9b2e6kh4cwXbSNlPWMxeEHEc80O7MvoQfi2WzHFXuT4guhJ04m8xZog6BmWNO8Pjp7mgJ39JODzgr1D3Aj3Nu3x-STnUIc3El9P39mgkTywJOKU7y0n74ZsVzbVu8h2-qGZV95SYmKeHbKp8v-i0FJV0aApH0msR705wXCj0ZEk66BY8Et7WJSF7m9-uvK_dP81cx7Q3N9Gw4MvFRYN3Rh-hBflK2ppbuDJlnBWEB-XGN1z2WmLDr1HX15ic2tOOn7xjVuj2dlKu6NcsXnphv6hknu7qOKQdbHAWORLyAnXCUW50-9J2OVu29oWgTgyeEYTeT-DhJl7vY9FbP_uLvsdL6Io9vd64kkLVSeyRJEW9cLVFjEwCXkf3eV1bVF5L7qWJweV4QKpD4wfw4ZTYOXlH0FZeEK9gLsi3oOOHjEV7NDp8189KCdmo3Bm2uJuHkzcbrVVtzCvZE-b-MPFdMYXgT32sHtviXsBwFTpoMjUazA6DWmQlUx2eXAEnI5WvWDTLKMzwFZVFWgedrIihp0mqUTk3YHSXm4XutgFEudF0zwPD_ty0?></g></svg>