<svg xmlns="http://www.w3.org/2000/svg" xmlns:xlink="http://www.w3.org/1999/xlink" contentStyleType="text/css" data-diagram-type="ACTIVITY" height="2588px" preserveAspectRatio="none" style="width:1074px;height:2588px;background:#FFFFFF;" version="1.1" viewBox="0 0 1074 2588" width="1074px" zoomAndPan="magnify"><?plantuml 1.2026.6?><defs/><g><g class="title" data-source-line="86"><text fill="#000000" font-family="sans-serif" font-size="18" font-weight="700" lengthAdjust="spacing" textLength="429.1787" x="321.9076" y="36.708">Offline Re-ID (every re_id_interval frames)</text></g><ellipse cx="405.1871" cy="66.9531" fill="#222222" rx="10" ry="10" style="stroke:#222222;stroke-width:1;"/><rect fill="#ADD8E6" height="35.1328" rx="12.5" ry="12.5" style="stroke:#000000;stroke-width:0.5;" width="292.2573" x="259.0585" y="96.9531"/><text fill="#000000" font-family="sans-serif" font-size="13" lengthAdjust="spacing" textLength="272.2573" x="269.0585" y="119.02">New DeepSORT track becomes confirmed</text><path d="M543.3829,205.9185 L543.3829,244.7505 L523.3829,248.7505 L543.3829,252.7505 L543.3829,291.5825 A0,0 0 0 0 543.3829,291.5825 L771.3165,291.5825 A0,0 0 0 0 771.3165,291.5825 L771.3165,215.9185 L761.3165,205.9185 L543.3829,205.9185 A0,0 0 0 0 543.3829,205.9185" fill="#FFFACD" style="stroke:#B8860B;stroke-width:0.5;"/><path d="M761.3165,205.9185 L761.3165,215.9185 L771.3165,215.9185 L761.3165,205.9185" fill="#FFFACD" style="stroke:#B8860B;stroke-width:0.5;"/><text fill="#000000" font-family="sans-serif" font-size="13" lengthAdjust="spacing" textLength="179.9307" x="549.3829" y="222.9854">_is_primary_object() checks</text><text fill="#000000" font-family="sans-serif" font-size="13" lengthAdjust="spacing" textLength="192.8101" x="549.3829" y="238.1182">cosine distance &lt; 0.2 against</text><text fill="#000000" font-family="sans-serif" font-size="13" lengthAdjust="spacing" textLength="206.9336" x="549.3829" y="253.251">primary_object_features deque,</text><text fill="#000000" font-family="sans-serif" font-size="13" lengthAdjust="spacing" textLength="166.1245" x="549.3829" y="268.3838">cached as GPU tensor via</text><text fill="#000000" font-family="sans-serif" font-size="13" lengthAdjust="spacing" textLength="178.5088" x="549.3829" y="283.5166">F.normalize() + torch.mm()</text><rect fill="#ADD8E6" height="50.2656" rx="12.5" ry="12.5" style="stroke:#000000;stroke-width:0.5;" width="236.3916" x="286.9913" y="223.6177"/><text fill="#000000" font-family="sans-serif" font-size="13" lengthAdjust="spacing" textLength="216.3916" x="296.9913" y="245.6846">Compute cosine distance against</text><text fill="#000000" font-family="sans-serif" font-size="13" lengthAdjust="spacing" textLength="195.9077" x="296.9913" y="260.8174">cached primary gallery tensor</text><polygon fill="#ADD8E6" points="328.4916,361.1489,481.8827,361.1489,493.8827,376.2817,481.8827,391.4146,328.4916,391.4146,316.4916,376.2817,328.4916,361.1489" style="stroke:#000000;stroke-width:0.5;stroke-linejoin:miter;stroke-miterlimit:10;"/><text fill="#000000" font-family="sans-serif" font-size="13" lengthAdjust="spacing" textLength="93.8945" x="328.4916" y="373.2158">IoU &gt; 0.1 AND</text><text fill="#000000" font-family="sans-serif" font-size="13" lengthAdjust="spacing" textLength="153.3911" x="328.4916" y="388.3486">frames since lost &lt; 30?</text><text fill="#000000" font-family="sans-serif" font-size="13" lengthAdjust="spacing" textLength="22.4644" x="294.0272" y="373.2158">yes</text><text fill="#000000" font-family="sans-serif" font-size="13" lengthAdjust="spacing" textLength="16.1929" x="493.8827" y="373.2158">no</text><rect fill="#ADD8E6" height="35.1328" rx="12.5" ry="12.5" style="stroke:#000000;stroke-width:0.5;" width="177.2632" x="198.2256" y="401.4146"/><text fill="#000000" font-family="sans-serif" font-size="13" lengthAdjust="spacing" textLength="157.2632" x="208.2256" y="423.4814">Assign persistent ID = 1</text><rect fill="#ADD8E6" height="35.1328" rx="12.5" ry="12.5" style="stroke:#000000;stroke-width:0.5;" width="159.585" x="207.0647" y="458.5825"/><text fill="#000000" font-family="sans-serif" font-size="13" lengthAdjust="spacing" textLength="139.585" x="217.0647" y="480.6494">(Primary re-acquired)</text><rect fill="#ADD8E6" height="35.1328" rx="12.5" ry="12.5" style="stroke:#000000;stroke-width:0.5;" width="238.3022" x="167.7061" y="513.7153"/><text fill="#000000" font-family="sans-serif" font-size="13" lengthAdjust="spacing" textLength="218.3022" x="177.7061" y="535.7822">Append feature to primary deque</text><ellipse cx="286.8572" cy="579.8481" fill="none" rx="11" ry="11" style="stroke:#222222;stroke-width:1;"/><ellipse cx="286.8572" cy="579.8481" fill="#222222" rx="6" ry="6" style="stroke:#222222;stroke-width:1;"/><rect fill="#ADD8E6" height="35.1328" rx="12.5" ry="12.5" style="stroke:#000000;stroke-width:0.5;" width="195.0176" x="426.0083" y="401.4146"/><text fill="#000000" font-family="sans-serif" font-size="13" lengthAdjust="spacing" textLength="175.0176" x="436.0083" y="423.4814">Reject: spatial check failed</text><polygon fill="#ADD8E6" points="330.3864,311.5825,479.9879,311.5825,491.9879,323.5825,479.9879,335.5825,330.3864,335.5825,318.3864,323.5825,330.3864,311.5825" style="stroke:#000000;stroke-width:0.5;stroke-linejoin:miter;stroke-miterlimit:10;"/><text fill="#000000" font-family="sans-serif" font-size="13" lengthAdjust="spacing" textLength="22.4644" x="409.1871" y="347.6494">yes</text><text fill="#000000" font-family="sans-serif" font-size="13" lengthAdjust="spacing" textLength="149.6016" x="330.3864" y="328.083">Cosine distance &lt; 0.2?</text><text fill="#000000" font-family="sans-serif" font-size="13" lengthAdjust="spacing" textLength="16.1929" x="491.9879" y="320.5166">no</text><polygon fill="#ADD8E6" points="405.1871,610.8481,417.1871,622.8481,405.1871,634.8481,393.1871,622.8481,405.1871,610.8481" style="stroke:#000000;stroke-width:0.5;stroke-linejoin:miter;stroke-miterlimit:10;"/><polygon fill="#ADD8E6" points="317.142,152.0859,493.2323,152.0859,505.2323,167.2188,493.2323,182.3516,317.142,182.3516,305.142,167.2188,317.142,152.0859" style="stroke:#000000;stroke-width:0.5;stroke-linejoin:miter;stroke-miterlimit:10;"/><text fill="#000000" font-family="sans-serif" font-size="13" lengthAdjust="spacing" textLength="22.4644" x="409.1871" y="194.4185">yes</text><text fill="#000000" font-family="sans-serif" font-size="13" lengthAdjust="spacing" textLength="138.3027" x="317.142" y="164.1528">Primary object active</text><text fill="#000000" font-family="sans-serif" font-size="13" lengthAdjust="spacing" textLength="176.0903" x="317.142" y="179.2856">AND seen within 3 frames?</text><polygon fill="#ADD8E6" points="405.1871,654.8481,417.1871,666.8481,405.1871,678.8481,393.1871,666.8481,405.1871,654.8481" style="stroke:#000000;stroke-width:0.5;stroke-linejoin:miter;stroke-miterlimit:10;"/><path d="M516.0721,688.8481 L516.0721,720.1138 L496.0721,724.1138 L516.0721,728.1138 L516.0721,759.3794 A0,0 0 0 0 516.0721,759.3794 L708.6747,759.3794 A0,0 0 0 0 708.6747,759.3794 L708.6747,698.8481 L698.6747,688.8481 L516.0721,688.8481 A0,0 0 0 0 516.0721,688.8481" fill="#FFFACD" style="stroke:#B8860B;stroke-width:0.5;"/><path d="M698.6747,688.8481 L698.6747,698.8481 L708.6747,698.8481 L698.6747,688.8481" fill="#FFFACD" style="stroke:#B8860B;stroke-width:0.5;"/><text fill="#000000" font-family="sans-serif" font-size="13" lengthAdjust="spacing" textLength="171.6025" x="522.0721" y="705.915">Called for every new track</text><text fill="#000000" font-family="sans-serif" font-size="13" lengthAdjust="spacing" textLength="167.1147" x="522.0721" y="721.0479">when primary check fails.</text><text fill="#000000" font-family="sans-serif" font-size="13" lengthAdjust="spacing" textLength="142.9937" x="522.0721" y="736.1807">Queries all inactive ID</text><text fill="#000000" font-family="sans-serif" font-size="13" lengthAdjust="spacing" textLength="110.6523" x="522.0721" y="751.3135">feature galleries.</text><rect fill="#ADD8E6" height="35.1328" rx="12.5" ry="12.5" style="stroke:#000000;stroke-width:0.5;" width="181.77" x="314.3021" y="706.5474"/><text fill="#000000" font-family="sans-serif" font-size="13" lengthAdjust="spacing" textLength="161.77" x="324.3021" y="728.6143">Run _re_identify_object()</text><rect fill="#ADD8E6" height="65.3984" rx="12.5" ry="12.5" style="stroke:#000000;stroke-width:0.5;" width="213.0005" x="298.6869" y="779.3794"/><text fill="#000000" font-family="sans-serif" font-size="13" lengthAdjust="spacing" textLength="193.0005" x="308.6869" y="801.4463">Compute min cosine distance</text><text fill="#000000" font-family="sans-serif" font-size="13" lengthAdjust="spacing" textLength="182.0254" x="308.6869" y="816.5791">against all inactive galleries</text><text fill="#000000" font-family="sans-serif" font-size="13" lengthAdjust="spacing" textLength="153.5371" x="308.6869" y="831.7119">(GPU batch if available)</text><path d="M537.8668,919.3442 L537.8668,935.4771 L517.8668,939.4771 L537.8668,943.4771 L537.8668,959.6099 A0,0 0 0 0 537.8668,959.6099 L791.0197,959.6099 A0,0 0 0 0 791.0197,959.6099 L791.0197,929.3442 L781.0197,919.3442 L537.8668,919.3442 A0,0 0 0 0 537.8668,919.3442" fill="#FFFACD" style="stroke:#B8860B;stroke-width:0.5;"/><path d="M781.0197,919.3442 L781.0197,929.3442 L791.0197,929.3442 L781.0197,919.3442" fill="#FFFACD" style="stroke:#B8860B;stroke-width:0.5;"/><text fill="#000000" font-family="sans-serif" font-size="13" lengthAdjust="spacing" textLength="161.77" x="543.8668" y="936.4111">Uses numba-accelerated</text><text fill="#000000" font-family="sans-serif" font-size="13" lengthAdjust="spacing" textLength="232.1528" x="543.8668" y="951.5439">calculate_spatial_distance_numba()</text><rect fill="#ADD8E6" height="50.2656" rx="12.5" ry="12.5" style="stroke:#000000;stroke-width:0.5;" width="225.3594" x="292.5074" y="914.3442"/><text fill="#000000" font-family="sans-serif" font-size="13" lengthAdjust="spacing" textLength="178.4961" x="302.5074" y="936.4111">Check spatial distance cap:</text><text fill="#000000" font-family="sans-serif" font-size="13" lengthAdjust="spacing" textLength="205.3594" x="302.5074" y="951.5439">200px from last known position</text><polygon fill="#ADD8E6" points="337.9115,984.6099,472.4628,984.6099,484.4628,996.6099,472.4628,1008.6099,337.9115,1008.6099,325.9115,996.6099,337.9115,984.6099" style="stroke:#000000;stroke-width:0.5;stroke-linejoin:miter;stroke-miterlimit:10;"/><text fill="#000000" font-family="sans-serif" font-size="13" lengthAdjust="spacing" textLength="134.5513" x="337.9115" y="1001.1104">Distance &lt;= 200px?</text><text fill="#000000" font-family="sans-serif" font-size="13" lengthAdjust="spacing" textLength="22.4644" x="303.4471" y="993.5439">yes</text><text fill="#000000" font-family="sans-serif" font-size="13" lengthAdjust="spacing" textLength="16.1929" x="484.4628" y="993.5439">no</text><rect fill="#ADD8E6" height="35.1328" rx="12.5" ry="12.5" style="stroke:#000000;stroke-width:0.5;" width="167.7734" x="219.2316" y="1018.6099"/><text fill="#000000" font-family="sans-serif" font-size="13" lengthAdjust="spacing" textLength="147.7734" x="229.2316" y="1040.6768">Re-activate inactive ID</text><rect fill="#ADD8E6" height="35.1328" rx="12.5" ry="12.5" style="stroke:#000000;stroke-width:0.5;" width="212.645" x="196.7958" y="1073.7427"/><text fill="#000000" font-family="sans-serif" font-size="13" lengthAdjust="spacing" textLength="192.645" x="206.7958" y="1095.8096">Remove from inactive_ids set</text><rect fill="#ADD8E6" height="50.2656" rx="12.5" ry="12.5" style="stroke:#000000;stroke-width:0.5;" width="221.1763" x="192.5302" y="1128.8755"/><text fill="#000000" font-family="sans-serif" font-size="13" lengthAdjust="spacing" textLength="201.1763" x="202.5302" y="1150.9424">Map deepsort_id -&gt; inactive_id</text><text fill="#000000" font-family="sans-serif" font-size="13" lengthAdjust="spacing" textLength="119.8247" x="202.5302" y="1166.0752">in id_mapping dict</text><rect fill="#ADD8E6" height="35.1328" rx="12.5" ry="12.5" style="stroke:#000000;stroke-width:0.5;" width="171.4614" x="217.3876" y="1199.1411"/><text fill="#000000" font-family="sans-serif" font-size="13" lengthAdjust="spacing" textLength="151.4614" x="227.3876" y="1221.208">Merge feature galleries</text><ellipse cx="303.1183" cy="1265.2739" fill="none" rx="11" ry="11" style="stroke:#222222;stroke-width:1;"/><ellipse cx="303.1183" cy="1265.2739" fill="#222222" rx="6" ry="6" style="stroke:#222222;stroke-width:1;"/><rect fill="#ADD8E6" height="35.1328" rx="12.5" ry="12.5" style="stroke:#000000;stroke-width:0.5;" width="147.0991" x="433.7064" y="1018.6099"/><text fill="#000000" font-family="sans-serif" font-size="13" lengthAdjust="spacing" textLength="127.0991" x="443.7064" y="1040.6768">Spatial check failed</text><polygon fill="#ADD8E6" points="313.6158,864.7778,496.7584,864.7778,508.7584,876.7778,496.7584,888.7778,313.6158,888.7778,301.6158,876.7778,313.6158,864.7778" style="stroke:#000000;stroke-width:0.5;stroke-linejoin:miter;stroke-miterlimit:10;"/><text fill="#000000" font-family="sans-serif" font-size="13" lengthAdjust="spacing" textLength="22.4644" x="409.1871" y="900.8447">yes</text><text fill="#000000" font-family="sans-serif" font-size="13" lengthAdjust="spacing" textLength="183.1426" x="313.6158" y="881.2783">Min cosine distance &lt; 0.15?</text><polygon fill="#ADD8E6" points="405.1871,1296.2739,417.1871,1308.2739,405.1871,1320.2739,393.1871,1308.2739,405.1871,1296.2739" style="stroke:#000000;stroke-width:0.5;stroke-linejoin:miter;stroke-miterlimit:10;"/><rect fill="#ADD8E6" height="50.2656" rx="12.5" ry="12.5" style="stroke:#000000;stroke-width:0.5;" width="280.2539" x="265.0602" y="1340.2739"/><text fill="#000000" font-family="sans-serif" font-size="13" lengthAdjust="spacing" textLength="203.582" x="275.0602" y="1362.3408">Assign brand-new persistent ID</text><text fill="#000000" font-family="sans-serif" font-size="13" lengthAdjust="spacing" textLength="260.2539" x="275.0602" y="1377.4736">(id_mapping[deepsort_id] = next_id++)</text><rect fill="#ADD8E6" height="50.2656" rx="12.5" ry="12.5" style="stroke:#000000;stroke-width:0.5;" width="240.5811" x="284.8966" y="1410.5396"/><text fill="#000000" font-family="sans-serif" font-size="13" lengthAdjust="spacing" textLength="185.3706" x="294.8966" y="1432.6064">Initialize new feature gallery</text><text fill="#000000" font-family="sans-serif" font-size="13" lengthAdjust="spacing" textLength="220.5811" x="294.8966" y="1447.7393">with empty deque(maxlen=5000)</text><ellipse cx="405.1871" cy="1491.8052" fill="none" rx="11" ry="11" style="stroke:#222222;stroke-width:1;"/><ellipse cx="405.1871" cy="1491.8052" fill="#222222" rx="6" ry="6" style="stroke:#222222;stroke-width:1;"/><ellipse cx="405.1871" cy="1522.8052" fill="#222222" rx="10" ry="10" style="stroke:#222222;stroke-width:1;"/><path d="M520.3029,1557.8052 L520.3029,1573.938 L500.3029,1577.938 L520.3029,1581.938 L520.3029,1598.0708 A0,0 0 0 0 520.3029,1598.0708 L755.8029,1598.0708 A0,0 0 0 0 755.8029,1598.0708 L755.8029,1567.8052 L745.8029,1557.8052 L520.3029,1557.8052 A0,0 0 0 0 520.3029,1557.8052" fill="#FFFACD" style="stroke:#B8860B;stroke-width:0.5;"/><path d="M745.8029,1557.8052 L745.8029,1567.8052 L755.8029,1567.8052 L745.8029,1557.8052" fill="#FFFACD" style="stroke:#B8860B;stroke-width:0.5;"/><text fill="#000000" font-family="sans-serif" font-size="13" lengthAdjust="spacing" textLength="214.5" x="526.3029" y="1574.8721">Runs every re_id_interval frames</text><text fill="#000000" font-family="sans-serif" font-size="13" lengthAdjust="spacing" textLength="162.9824" x="526.3029" y="1590.0049">(default: every 2 frames)</text><rect fill="#ADD8E6" height="50.2656" rx="12.5" ry="12.5" style="stroke:#000000;stroke-width:0.5;" width="190.2314" x="310.0714" y="1552.8052"/><text fill="#000000" font-family="sans-serif" font-size="13" lengthAdjust="spacing" textLength="170.2314" x="320.0714" y="1574.8721">Offline Re-ID triggered via</text><text fill="#000000" font-family="sans-serif" font-size="13" lengthAdjust="spacing" textLength="147.5513" x="320.0714" y="1590.0049">_perform_offline_reid()</text><polygon fill="#ADD8E6" points="340.6251,1623.0708,469.7491,1623.0708,481.7491,1635.0708,469.7491,1647.0708,340.6251,1647.0708,328.6251,1635.0708,340.6251,1623.0708" style="stroke:#000000;stroke-width:0.5;stroke-linejoin:miter;stroke-miterlimit:10;"/><text fill="#000000" font-family="sans-serif" font-size="13" lengthAdjust="spacing" textLength="129.124" x="340.6251" y="1639.5713">Primary object lost?</text><text fill="#000000" font-family="sans-serif" font-size="13" lengthAdjust="spacing" textLength="22.4644" x="306.1608" y="1632.0049">yes</text><text fill="#000000" font-family="sans-serif" font-size="13" lengthAdjust="spacing" textLength="16.1929" x="481.7491" y="1632.0049">no</text><path d="M288.5686,1657.0708 L288.5686,1680.77 L268.5686,1684.77 L288.5686,1688.77 L288.5686,1712.4692 A0,0 0 0 0 288.5686,1712.4692 L525.2556,1712.4692 A0,0 0 0 0 525.2556,1712.4692 L525.2556,1667.0708 L515.2556,1657.0708 L288.5686,1657.0708 A0,0 0 0 0 288.5686,1657.0708" fill="#FFFACD" style="stroke:#B8860B;stroke-width:0.5;"/><path d="M515.2556,1657.0708 L515.2556,1667.0708 L525.2556,1667.0708 L515.2556,1657.0708" fill="#FFFACD" style="stroke:#B8860B;stroke-width:0.5;"/><text fill="#000000" font-family="sans-serif" font-size="13" lengthAdjust="spacing" textLength="210.8184" x="294.5686" y="1674.1377">Compare primary_object_id only</text><text fill="#000000" font-family="sans-serif" font-size="13" lengthAdjust="spacing" textLength="132.6724" x="294.5686" y="1689.2705">against inactive_ids.</text><text fill="#000000" font-family="sans-serif" font-size="13" lengthAdjust="spacing" textLength="215.687" x="294.5686" y="1704.4033">Threshold relaxed: cosine &lt; 0.25</text><rect fill="#ADD8E6" height="35.1328" rx="12.5" ry="12.5" style="stroke:#000000;stroke-width:0.5;" width="244.396" x="24.1726" y="1667.2036"/><text fill="#000000" font-family="sans-serif" font-size="13" lengthAdjust="spacing" textLength="224.396" x="34.1726" y="1689.2705">Enter primary-only recovery mode</text><rect fill="#ADD8E6" height="65.3984" rx="12.5" ry="12.5" style="stroke:#000000;stroke-width:0.5;" width="260.7412" x="16" y="1732.4692"/><text fill="#000000" font-family="sans-serif" font-size="13" lengthAdjust="spacing" textLength="164.0742" x="26" y="1754.5361">Filter inactive candidates</text><text fill="#000000" font-family="sans-serif" font-size="13" lengthAdjust="spacing" textLength="146.5928" x="26" y="1769.6689">by spatial proximity to</text><text fill="#000000" font-family="sans-serif" font-size="13" lengthAdjust="spacing" textLength="240.7412" x="26" y="1784.8018">Kalman predicted position (&lt; 300px)</text><path d="M802.7517,1657.0708 L802.7517,1680.77 L782.7517,1684.77 L802.7517,1688.77 L802.7517,1712.4692 A0,0 0 0 0 802.7517,1712.4692 L1053.9939,1712.4692 A0,0 0 0 0 1053.9939,1712.4692 L1053.9939,1667.0708 L1043.9939,1657.0708 L802.7517,1657.0708 A0,0 0 0 0 802.7517,1657.0708" fill="#FFFACD" style="stroke:#B8860B;stroke-width:0.5;"/><path d="M1043.9939,1657.0708 L1043.9939,1667.0708 L1053.9939,1667.0708 L1043.9939,1657.0708" fill="#FFFACD" style="stroke:#B8860B;stroke-width:0.5;"/><text fill="#000000" font-family="sans-serif" font-size="13" lengthAdjust="spacing" textLength="188.7158" x="808.7517" y="1674.1377">Default merge threshold: 0.2</text><text fill="#000000" font-family="sans-serif" font-size="13" lengthAdjust="spacing" textLength="230.2422" x="808.7517" y="1689.2705">Uses up to 10 most recent features</text><text fill="#000000" font-family="sans-serif" font-size="13" lengthAdjust="spacing" textLength="131.8281" x="808.7517" y="1704.4033">per active ID gallery</text><rect fill="#ADD8E6" height="50.2656" rx="12.5" ry="12.5" style="stroke:#000000;stroke-width:0.5;" width="237.4961" x="545.2556" y="1659.6372"/><text fill="#000000" font-family="sans-serif" font-size="13" lengthAdjust="spacing" textLength="217.4961" x="555.2556" y="1681.7041">Full mode: compare all active IDs</text><text fill="#000000" font-family="sans-serif" font-size="13" lengthAdjust="spacing" textLength="147.4751" x="555.2556" y="1696.8369">against all inactive IDs</text><polygon fill="#ADD8E6" points="405.1871,1803.8677,417.1871,1815.8677,405.1871,1827.8677,393.1871,1815.8677,405.1871,1803.8677" style="stroke:#000000;stroke-width:0.5;stroke-linejoin:miter;stroke-miterlimit:10;"/><path d="M542.3959,1845.3013 L542.3959,1861.4341 L522.3959,1865.4341 L542.3959,1869.4341 L542.3959,1885.5669 A0,0 0 0 0 542.3959,1885.5669 L876.2845,1885.5669 A0,0 0 0 0 876.2845,1885.5669 L876.2845,1855.3013 L866.2845,1845.3013 L542.3959,1845.3013 A0,0 0 0 0 542.3959,1845.3013" fill="#FFFACD" style="stroke:#B8860B;stroke-width:0.5;"/><path d="M866.2845,1845.3013 L866.2845,1855.3013 L876.2845,1855.3013 L866.2845,1845.3013" fill="#FFFACD" style="stroke:#B8860B;stroke-width:0.5;"/><text fill="#000000" font-family="sans-serif" font-size="13" lengthAdjust="spacing" textLength="312.8887" x="548.3959" y="1862.3682">torch.mm(active_features, inactive_features.t())</text><text fill="#000000" font-family="sans-serif" font-size="13" lengthAdjust="spacing" textLength="163.5981" x="548.3959" y="1877.501">Single batched operation</text><rect fill="#ADD8E6" height="35.1328" rx="12.5" ry="12.5" style="stroke:#000000;stroke-width:0.5;" width="234.4175" x="287.9784" y="1847.8677"/><text fill="#000000" font-family="sans-serif" font-size="13" lengthAdjust="spacing" textLength="214.4175" x="297.9784" y="1869.9346">Build full distance matrix on GPU</text><rect fill="#ADD8E6" height="35.1328" rx="12.5" ry="12.5" style="stroke:#000000;stroke-width:0.5;" width="274.7568" x="267.8087" y="1905.5669"/><text fill="#000000" font-family="sans-serif" font-size="13" lengthAdjust="spacing" textLength="254.7568" x="277.8087" y="1927.6338">Extract per-ID-pair minima from matrix</text><path d="M543.8844,1958.1333 L543.8844,1981.8325 L523.8844,1985.8325 L543.8844,1989.8325 L543.8844,2013.5317 A0,0 0 0 0 543.8844,2013.5317 L709.6681,2013.5317 A0,0 0 0 0 709.6681,2013.5317 L709.6681,1968.1333 L699.6681,1958.1333 L543.8844,1958.1333 A0,0 0 0 0 543.8844,1958.1333" fill="#FFFACD" style="stroke:#B8860B;stroke-width:0.5;"/><path d="M699.6681,1958.1333 L699.6681,1968.1333 L709.6681,1968.1333 L699.6681,1958.1333" fill="#FFFACD" style="stroke:#B8860B;stroke-width:0.5;"/><text fill="#000000" font-family="sans-serif" font-size="13" lengthAdjust="spacing" textLength="116.1304" x="549.8844" y="1975.2002">IoU threshold: 0.3</text><text fill="#000000" font-family="sans-serif" font-size="13" lengthAdjust="spacing" textLength="144.7837" x="549.8844" y="1990.333">Relaxed 20% (0.24) in</text><text fill="#000000" font-family="sans-serif" font-size="13" lengthAdjust="spacing" textLength="124.0649" x="549.8844" y="2005.4658">primary-only mode</text><rect fill="#ADD8E6" height="50.2656" rx="12.5" ry="12.5" style="stroke:#000000;stroke-width:0.5;" width="237.3945" x="286.4899" y="1960.6997"/><text fill="#000000" font-family="sans-serif" font-size="13" lengthAdjust="spacing" textLength="185.1357" x="296.4899" y="1982.7666">Apply IoU consistency check</text><text fill="#000000" font-family="sans-serif" font-size="13" lengthAdjust="spacing" textLength="217.3945" x="296.4899" y="1997.8994">using last known bounding boxes</text><rect fill="#ADD8E6" height="35.1328" rx="12.5" ry="12.5" style="stroke:#000000;stroke-width:0.5;" width="271.9893" x="269.1925" y="2033.5317"/><text fill="#000000" font-family="sans-serif" font-size="13" lengthAdjust="spacing" textLength="251.9893" x="279.1925" y="2055.5986">Sort candidates by ascending distance</text><path d="M489.8627,2078.6646 L489.8627,2109.9302 L469.8627,2113.9302 L489.8627,2117.9302 L489.8627,2149.1958 A0,0 0 0 0 489.8627,2149.1958 L715.3842,2149.1958 A0,0 0 0 0 715.3842,2149.1958 L715.3842,2088.6646 L705.3842,2078.6646 L489.8627,2078.6646 A0,0 0 0 0 489.8627,2078.6646" fill="#FFFACD" style="stroke:#B8860B;stroke-width:0.5;"/><path d="M705.3842,2078.6646 L705.3842,2088.6646 L715.3842,2088.6646 L705.3842,2078.6646" fill="#FFFACD" style="stroke:#B8860B;stroke-width:0.5;"/><text fill="#000000" font-family="sans-serif" font-size="13" lengthAdjust="spacing" textLength="153.8545" x="495.8627" y="2095.7314">Prevent A-&gt;B and B-&gt;A</text><text fill="#000000" font-family="sans-serif" font-size="13" lengthAdjust="spacing" textLength="175.7285" x="495.8627" y="2110.8643">pointing to same active ID.</text><text fill="#000000" font-family="sans-serif" font-size="13" lengthAdjust="spacing" textLength="204.5215" x="495.8627" y="2125.9971">Assign each inactive to at most</text><text fill="#000000" font-family="sans-serif" font-size="13" lengthAdjust="spacing" textLength="89.9463" x="495.8627" y="2141.1299">one active ID.</text><rect fill="#ADD8E6" height="35.1328" rx="12.5" ry="12.5" style="stroke:#000000;stroke-width:0.5;" width="129.3511" x="340.5116" y="2096.3638"/><text fill="#000000" font-family="sans-serif" font-size="13" lengthAdjust="spacing" textLength="109.3511" x="350.5116" y="2118.4307">Resolve conflicts</text><rect fill="#ADD8E6" height="35.1328" rx="12.5" ry="12.5" style="stroke:#000000;stroke-width:0.5;" width="171.4614" x="319.4564" y="2218.7622"/><text fill="#000000" font-family="sans-serif" font-size="13" lengthAdjust="spacing" textLength="151.4614" x="329.4564" y="2240.8291">Merge feature galleries</text><rect fill="#ADD8E6" height="50.2656" rx="12.5" ry="12.5" style="stroke:#000000;stroke-width:0.5;" width="196.0078" x="307.1832" y="2273.895"/><text fill="#000000" font-family="sans-serif" font-size="13" lengthAdjust="spacing" textLength="176.0078" x="317.1832" y="2295.9619">Update id_mapping entries</text><text fill="#000000" font-family="sans-serif" font-size="13" lengthAdjust="spacing" textLength="142.5874" x="317.1832" y="2311.0947">pointing to remove_id</text><rect fill="#ADD8E6" height="80.5313" rx="12.5" ry="12.5" style="stroke:#000000;stroke-width:0.5;" width="173.9116" x="318.2313" y="2346.5278"/><text fill="#000000" font-family="sans-serif" font-size="13" lengthAdjust="spacing" textLength="153.9116" x="328.2313" y="2368.5947">Delete remove_id from:</text><text fill="#000000" font-family="sans-serif" font-size="13" lengthAdjust="spacing" textLength="107.0215" x="328.2313" y="2383.7275">- feature_gallery</text><text fill="#000000" font-family="sans-serif" font-size="13" lengthAdjust="spacing" textLength="85.3252" x="328.2313" y="2398.8604">- inactive_ids</text><text fill="#000000" font-family="sans-serif" font-size="13" lengthAdjust="spacing" textLength="93.1201" x="328.2313" y="2413.9932">- track_history</text><rect fill="#ADD8E6" height="35.1328" rx="12.5" ry="12.5" style="stroke:#000000;stroke-width:0.5;" width="177.2441" x="316.5651" y="2447.0591"/><text fill="#000000" font-family="sans-serif" font-size="13" lengthAdjust="spacing" textLength="157.2441" x="326.5651" y="2469.126">Ensure keep_id is active</text><polygon fill="#ADD8E6" points="334.1981,2169.1958,476.1761,2169.1958,488.1761,2181.1958,476.1761,2193.1958,334.1981,2193.1958,322.1981,2181.1958,334.1981,2169.1958" style="stroke:#000000;stroke-width:0.5;stroke-linejoin:miter;stroke-miterlimit:10;"/><text fill="#000000" font-family="sans-serif" font-size="13" lengthAdjust="spacing" textLength="22.4644" x="409.1871" y="2205.2627">yes</text><text fill="#000000" font-family="sans-serif" font-size="13" lengthAdjust="spacing" textLength="141.978" x="334.1981" y="2185.6963">Any merges to apply?</text><polygon fill="#ADD8E6" points="405.1871,2502.1919,417.1871,2514.1919,405.1871,2526.1919,393.1871,2514.1919,405.1871,2502.1919" style="stroke:#000000;stroke-width:0.5;stroke-linejoin:miter;stroke-miterlimit:10;"/><ellipse cx="405.1871" cy="2557.1919" fill="none" rx="11" ry="11" style="stroke:#222222;stroke-width:1;"/><ellipse cx="405.1871" cy="2557.1919" fill="#222222" rx="6" ry="6" style="stroke:#222222;stroke-width:1;"/><line style="stroke:#000000;stroke-width:1;" x1="405.1871" x2="405.1871" y1="76.9531" y2="96.9531"/><polygon fill="#000000" points="401.1871,86.9531,405.1871,96.9531,409.1871,86.9531,405.1871,90.9531" style="stroke:#000000;stroke-width:1;stroke-linejoin:miter;stroke-miterlimit:10;"/><line style="stroke:#000000;stroke-width:1;" x1="286.8572" x2="286.8572" y1="436.5474" y2="458.5825"/><polygon fill="#000000" points="282.8572,448.5825,286.8572,458.5825,290.8572,448.5825,286.8572,452.5825" style="stroke:#000000;stroke-width:1;stroke-linejoin:miter;stroke-miterlimit:10;"/><line style="stroke:#000000;stroke-width:1;" x1="286.8572" x2="286.8572" y1="493.7153" y2="513.7153"/><polygon fill="#000000" points="282.8572,503.7153,286.8572,513.7153,290.8572,503.7153,286.8572,507.7153" style="stroke:#000000;stroke-width:1;stroke-linejoin:miter;stroke-miterlimit:10;"/><line style="stroke:#000000;stroke-width:1;" x1="286.8572" x2="286.8572" y1="548.8481" y2="568.8481"/><polygon fill="#000000" points="282.8572,558.8481,286.8572,568.8481,290.8572,558.8481,286.8572,562.8481" style="stroke:#000000;stroke-width:1;stroke-linejoin:miter;stroke-miterlimit:10;"/><line style="stroke:#000000;stroke-width:1;" x1="316.4916" x2="286.8572" y1="376.2817" y2="376.2817"/><line style="stroke:#000000;stroke-width:1;" x1="286.8572" x2="286.8572" y1="376.2817" y2="401.4146"/><polygon fill="#000000" points="282.8572,391.4146,286.8572,401.4146,290.8572,391.4146,286.8572,395.4146" style="stroke:#000000;stroke-width:1;stroke-linejoin:miter;stroke-miterlimit:10;"/><line style="stroke:#000000;stroke-width:1;" x1="493.8827" x2="523.5171" y1="376.2817" y2="376.2817"/><line style="stroke:#000000;stroke-width:1;" x1="523.5171" x2="523.5171" y1="376.2817" y2="401.4146"/><polygon fill="#000000" points="519.5171,391.4146,523.5171,401.4146,527.5171,391.4146,523.5171,395.4146" style="stroke:#000000;stroke-width:1;stroke-linejoin:miter;stroke-miterlimit:10;"/><line style="stroke:#000000;stroke-width:1;" x1="523.5171" x2="523.5171" y1="436.5474" y2="595.8481"/><line style="stroke:#000000;stroke-width:1;" x1="523.5171" x2="405.1871" y1="595.8481" y2="595.8481"/><line style="stroke:#000000;stroke-width:1;" x1="405.1871" x2="405.1871" y1="595.8481" y2="610.8481"/><polygon fill="#000000" points="401.1871,600.8481,405.1871,610.8481,409.1871,600.8481,405.1871,604.8481" style="stroke:#000000;stroke-width:1;stroke-linejoin:miter;stroke-miterlimit:10;"/><line style="stroke:#000000;stroke-width:1;" x1="405.1871" x2="405.1871" y1="335.5825" y2="361.1489"/><polygon fill="#000000" points="401.1871,351.1489,405.1871,361.1489,409.1871,351.1489,405.1871,355.1489" style="stroke:#000000;stroke-width:1;stroke-linejoin:miter;stroke-miterlimit:10;"/><line style="stroke:#000000;stroke-width:1;" x1="491.9879" x2="641.0259" y1="323.5825" y2="323.5825"/><polygon fill="#000000" points="637.0259,477.5161,641.0259,487.5161,645.0259,477.5161,641.0259,481.5161" style="stroke:#000000;stroke-width:1;stroke-linejoin:miter;stroke-miterlimit:10;"/><line style="stroke:#000000;stroke-width:1;" x1="641.0259" x2="641.0259" y1="323.5825" y2="622.8481"/><line style="stroke:#000000;stroke-width:1;" x1="641.0259" x2="417.1871" y1="622.8481" y2="622.8481"/><polygon fill="#000000" points="427.1871,618.8481,417.1871,622.8481,427.1871,626.8481,423.1871,622.8481" style="stroke:#000000;stroke-width:1;stroke-linejoin:miter;stroke-miterlimit:10;"/><line style="stroke:#000000;stroke-width:1;" x1="405.1871" x2="405.1871" y1="273.8833" y2="311.5825"/><polygon fill="#000000" points="401.1871,301.5825,405.1871,311.5825,409.1871,301.5825,405.1871,305.5825" style="stroke:#000000;stroke-width:1;stroke-linejoin:miter;stroke-miterlimit:10;"/><line style="stroke:#000000;stroke-width:1;" x1="405.1871" x2="405.1871" y1="182.3516" y2="223.6177"/><polygon fill="#000000" points="401.1871,213.6177,405.1871,223.6177,409.1871,213.6177,405.1871,217.6177" style="stroke:#000000;stroke-width:1;stroke-linejoin:miter;stroke-miterlimit:10;"/><line style="stroke:#000000;stroke-width:1;" x1="505.2323" x2="781.3165" y1="167.2188" y2="167.2188"/><polygon fill="#000000" points="777.3165,428.5825,781.3165,438.5825,785.3165,428.5825,781.3165,432.5825" style="stroke:#000000;stroke-width:1;stroke-linejoin:miter;stroke-miterlimit:10;"/><line style="stroke:#000000;stroke-width:1;" x1="781.3165" x2="781.3165" y1="167.2188" y2="666.8481"/><line style="stroke:#000000;stroke-width:1;" x1="781.3165" x2="417.1871" y1="666.8481" y2="666.8481"/><polygon fill="#000000" points="427.1871,662.8481,417.1871,666.8481,427.1871,670.8481,423.1871,666.8481" style="stroke:#000000;stroke-width:1;stroke-linejoin:miter;stroke-miterlimit:10;"/><line style="stroke:#000000;stroke-width:1;" x1="405.1871" x2="405.1871" y1="634.8481" y2="654.8481"/><polygon fill="#000000" points="401.1871,644.8481,405.1871,654.8481,409.1871,644.8481,405.1871,648.8481" style="stroke:#000000;stroke-width:1;stroke-linejoin:miter;stroke-miterlimit:10;"/><line style="stroke:#000000;stroke-width:1;" x1="405.1871" x2="405.1871" y1="132.0859" y2="152.0859"/><polygon fill="#000000" points="401.1871,142.0859,405.1871,152.0859,409.1871,142.0859,405.1871,146.0859" style="stroke:#000000;stroke-width:1;stroke-linejoin:miter;stroke-miterlimit:10;"/><line style="stroke:#000000;stroke-width:1;" x1="405.1871" x2="405.1871" y1="678.8481" y2="706.5474"/><polygon fill="#000000" points="401.1871,696.5474,405.1871,706.5474,409.1871,696.5474,405.1871,700.5474" style="stroke:#000000;stroke-width:1;stroke-linejoin:miter;stroke-miterlimit:10;"/><line style="stroke:#000000;stroke-width:1;" x1="405.1871" x2="405.1871" y1="741.6802" y2="779.3794"/><polygon fill="#000000" points="401.1871,769.3794,405.1871,779.3794,409.1871,769.3794,405.1871,773.3794" style="stroke:#000000;stroke-width:1;stroke-linejoin:miter;stroke-miterlimit:10;"/><line style="stroke:#000000;stroke-width:1;" x1="303.1183" x2="303.1183" y1="1053.7427" y2="1073.7427"/><polygon fill="#000000" points="299.1183,1063.7427,303.1183,1073.7427,307.1183,1063.7427,303.1183,1067.7427" style="stroke:#000000;stroke-width:1;stroke-linejoin:miter;stroke-miterlimit:10;"/><line style="stroke:#000000;stroke-width:1;" x1="303.1183" x2="303.1183" y1="1108.8755" y2="1128.8755"/><polygon fill="#000000" points="299.1183,1118.8755,303.1183,1128.8755,307.1183,1118.8755,303.1183,1122.8755" style="stroke:#000000;stroke-width:1;stroke-linejoin:miter;stroke-miterlimit:10;"/><line style="stroke:#000000;stroke-width:1;" x1="303.1183" x2="303.1183" y1="1179.1411" y2="1199.1411"/><polygon fill="#000000" points="299.1183,1189.1411,303.1183,1199.1411,307.1183,1189.1411,303.1183,1193.1411" style="stroke:#000000;stroke-width:1;stroke-linejoin:miter;stroke-miterlimit:10;"/><line style="stroke:#000000;stroke-width:1;" x1="303.1183" x2="303.1183" y1="1234.2739" y2="1254.2739"/><polygon fill="#000000" points="299.1183,1244.2739,303.1183,1254.2739,307.1183,1244.2739,303.1183,1248.2739" style="stroke:#000000;stroke-width:1;stroke-linejoin:miter;stroke-miterlimit:10;"/><line style="stroke:#000000;stroke-width:1;" x1="325.9115" x2="303.1183" y1="996.6099" y2="996.6099"/><line style="stroke:#000000;stroke-width:1;" x1="303.1183" x2="303.1183" y1="996.6099" y2="1018.6099"/><polygon fill="#000000" points="299.1183,1008.6099,303.1183,1018.6099,307.1183,1008.6099,303.1183,1012.6099" style="stroke:#000000;stroke-width:1;stroke-linejoin:miter;stroke-miterlimit:10;"/><line style="stroke:#000000;stroke-width:1;" x1="484.4628" x2="507.256" y1="996.6099" y2="996.6099"/><line style="stroke:#000000;stroke-width:1;" x1="507.256" x2="507.256" y1="996.6099" y2="1018.6099"/><polygon fill="#000000" points="503.256,1008.6099,507.256,1018.6099,511.256,1008.6099,507.256,1012.6099" style="stroke:#000000;stroke-width:1;stroke-linejoin:miter;stroke-miterlimit:10;"/><line style="stroke:#000000;stroke-width:1;" x1="507.256" x2="507.256" y1="1053.7427" y2="1281.2739"/><line style="stroke:#000000;stroke-width:1;" x1="507.256" x2="405.1871" y1="1281.2739" y2="1281.2739"/><line style="stroke:#000000;stroke-width:1;" x1="405.1871" x2="405.1871" y1="1281.2739" y2="1296.2739"/><polygon fill="#000000" points="401.1871,1286.2739,405.1871,1296.2739,409.1871,1286.2739,405.1871,1290.2739" style="stroke:#000000;stroke-width:1;stroke-linejoin:miter;stroke-miterlimit:10;"/><line style="stroke:#000000;stroke-width:1;" x1="405.1871" x2="405.1871" y1="964.6099" y2="984.6099"/><polygon fill="#000000" points="401.1871,974.6099,405.1871,984.6099,409.1871,974.6099,405.1871,978.6099" style="stroke:#000000;stroke-width:1;stroke-linejoin:miter;stroke-miterlimit:10;"/><line style="stroke:#000000;stroke-width:1;" x1="405.1871" x2="405.1871" y1="888.7778" y2="914.3442"/><polygon fill="#000000" points="401.1871,904.3442,405.1871,914.3442,409.1871,904.3442,405.1871,908.3442" style="stroke:#000000;stroke-width:1;stroke-linejoin:miter;stroke-miterlimit:10;"/><line style="stroke:#000000;stroke-width:1;" x1="508.7584" x2="801.0197" y1="876.7778" y2="876.7778"/><polygon fill="#000000" points="797.0197,1095.8091,801.0197,1105.8091,805.0197,1095.8091,801.0197,1099.8091" style="stroke:#000000;stroke-width:1;stroke-linejoin:miter;stroke-miterlimit:10;"/><line style="stroke:#000000;stroke-width:1;" x1="801.0197" x2="801.0197" y1="876.7778" y2="1308.2739"/><line style="stroke:#000000;stroke-width:1;" x1="801.0197" x2="417.1871" y1="1308.2739" y2="1308.2739"/><polygon fill="#000000" points="427.1871,1304.2739,417.1871,1308.2739,427.1871,1312.2739,423.1871,1308.2739" style="stroke:#000000;stroke-width:1;stroke-linejoin:miter;stroke-miterlimit:10;"/><line style="stroke:#000000;stroke-width:1;" x1="405.1871" x2="405.1871" y1="844.7778" y2="864.7778"/><polygon fill="#000000" points="401.1871,854.7778,405.1871,864.7778,409.1871,854.7778,405.1871,858.7778" style="stroke:#000000;stroke-width:1;stroke-linejoin:miter;stroke-miterlimit:10;"/><line style="stroke:#000000;stroke-width:1;" x1="405.1871" x2="405.1871" y1="1320.2739" y2="1340.2739"/><polygon fill="#000000" points="401.1871,1330.2739,405.1871,1340.2739,409.1871,1330.2739,405.1871,1334.2739" style="stroke:#000000;stroke-width:1;stroke-linejoin:miter;stroke-miterlimit:10;"/><line style="stroke:#000000;stroke-width:1;" x1="405.1871" x2="405.1871" y1="1390.5396" y2="1410.5396"/><polygon fill="#000000" points="401.1871,1400.5396,405.1871,1410.5396,409.1871,1400.5396,405.1871,1404.5396" style="stroke:#000000;stroke-width:1;stroke-linejoin:miter;stroke-miterlimit:10;"/><line style="stroke:#000000;stroke-width:1;" x1="405.1871" x2="405.1871" y1="1460.8052" y2="1480.8052"/><polygon fill="#000000" points="401.1871,1470.8052,405.1871,1480.8052,409.1871,1470.8052,405.1871,1474.8052" style="stroke:#000000;stroke-width:1;stroke-linejoin:miter;stroke-miterlimit:10;"/><line style="stroke:#000000;stroke-width:1;" x1="405.1871" x2="405.1871" y1="1532.8052" y2="1552.8052"/><polygon fill="#000000" points="401.1871,1542.8052,405.1871,1552.8052,409.1871,1542.8052,405.1871,1546.8052" style="stroke:#000000;stroke-width:1;stroke-linejoin:miter;stroke-miterlimit:10;"/><line style="stroke:#000000;stroke-width:1;" x1="146.3706" x2="146.3706" y1="1702.3364" y2="1732.4692"/><polygon fill="#000000" points="142.3706,1722.4692,146.3706,1732.4692,150.3706,1722.4692,146.3706,1726.4692" style="stroke:#000000;stroke-width:1;stroke-linejoin:miter;stroke-miterlimit:10;"/><line style="stroke:#000000;stroke-width:1;" x1="328.6251" x2="146.3706" y1="1635.0708" y2="1635.0708"/><line style="stroke:#000000;stroke-width:1;" x1="146.3706" x2="146.3706" y1="1635.0708" y2="1667.2036"/><polygon fill="#000000" points="142.3706,1657.2036,146.3706,1667.2036,150.3706,1657.2036,146.3706,1661.2036" style="stroke:#000000;stroke-width:1;stroke-linejoin:miter;stroke-miterlimit:10;"/><line style="stroke:#000000;stroke-width:1;" x1="481.7491" x2="664.0037" y1="1635.0708" y2="1635.0708"/><line style="stroke:#000000;stroke-width:1;" x1="664.0037" x2="664.0037" y1="1635.0708" y2="1659.6372"/><polygon fill="#000000" points="660.0037,1649.6372,664.0037,1659.6372,668.0037,1649.6372,664.0037,1653.6372" style="stroke:#000000;stroke-width:1;stroke-linejoin:miter;stroke-miterlimit:10;"/><line style="stroke:#000000;stroke-width:1;" x1="146.3706" x2="146.3706" y1="1797.8677" y2="1815.8677"/><line style="stroke:#000000;stroke-width:1;" x1="146.3706" x2="393.1871" y1="1815.8677" y2="1815.8677"/><polygon fill="#000000" points="383.1871,1811.8677,393.1871,1815.8677,383.1871,1819.8677,387.1871,1815.8677" style="stroke:#000000;stroke-width:1;stroke-linejoin:miter;stroke-miterlimit:10;"/><line style="stroke:#000000;stroke-width:1;" x1="664.0037" x2="664.0037" y1="1709.9028" y2="1815.8677"/><line style="stroke:#000000;stroke-width:1;" x1="664.0037" x2="417.1871" y1="1815.8677" y2="1815.8677"/><polygon fill="#000000" points="427.1871,1811.8677,417.1871,1815.8677,427.1871,1819.8677,423.1871,1815.8677" style="stroke:#000000;stroke-width:1;stroke-linejoin:miter;stroke-miterlimit:10;"/><line style="stroke:#000000;stroke-width:1;" x1="405.1871" x2="405.1871" y1="1603.0708" y2="1623.0708"/><polygon fill="#000000" points="401.1871,1613.0708,405.1871,1623.0708,409.1871,1613.0708,405.1871,1617.0708" style="stroke:#000000;stroke-width:1;stroke-linejoin:miter;stroke-miterlimit:10;"/><line style="stroke:#000000;stroke-width:1;" x1="405.1871" x2="405.1871" y1="1827.8677" y2="1847.8677"/><polygon fill="#000000" points="401.1871,1837.8677,405.1871,1847.8677,409.1871,1837.8677,405.1871,1841.8677" style="stroke:#000000;stroke-width:1;stroke-linejoin:miter;stroke-miterlimit:10;"/><line style="stroke:#000000;stroke-width:1;" x1="405.1871" x2="405.1871" y1="1883.0005" y2="1905.5669"/><polygon fill="#000000" points="401.1871,1895.5669,405.1871,1905.5669,409.1871,1895.5669,405.1871,1899.5669" style="stroke:#000000;stroke-width:1;stroke-linejoin:miter;stroke-miterlimit:10;"/><line style="stroke:#000000;stroke-width:1;" x1="405.1871" x2="405.1871" y1="1940.6997" y2="1960.6997"/><polygon fill="#000000" points="401.1871,1950.6997,405.1871,1960.6997,409.1871,1950.6997,405.1871,1954.6997" style="stroke:#000000;stroke-width:1;stroke-linejoin:miter;stroke-miterlimit:10;"/><line style="stroke:#000000;stroke-width:1;" x1="405.1871" x2="405.1871" y1="2010.9653" y2="2033.5317"/><polygon fill="#000000" points="401.1871,2023.5317,405.1871,2033.5317,409.1871,2023.5317,405.1871,2027.5317" style="stroke:#000000;stroke-width:1;stroke-linejoin:miter;stroke-miterlimit:10;"/><line style="stroke:#000000;stroke-width:1;" x1="405.1871" x2="405.1871" y1="2068.6646" y2="2096.3638"/><polygon fill="#000000" points="401.1871,2086.3638,405.1871,2096.3638,409.1871,2086.3638,405.1871,2090.3638" style="stroke:#000000;stroke-width:1;stroke-linejoin:miter;stroke-miterlimit:10;"/><line style="stroke:#000000;stroke-width:1;" x1="405.1871" x2="405.1871" y1="2253.895" y2="2273.895"/><polygon fill="#000000" points="401.1871,2263.895,405.1871,2273.895,409.1871,2263.895,405.1871,2267.895" style="stroke:#000000;stroke-width:1;stroke-linejoin:miter;stroke-miterlimit:10;"/><line style="stroke:#000000;stroke-width:1;" x1="405.1871" x2="405.1871" y1="2324.1606" y2="2346.5278"/><polygon fill="#000000" points="401.1871,2336.5278,405.1871,2346.5278,409.1871,2336.5278,405.1871,2340.5278" style="stroke:#000000;stroke-width:1;stroke-linejoin:miter;stroke-miterlimit:10;"/><line style="stroke:#000000;stroke-width:1;" x1="405.1871" x2="405.1871" y1="2427.0591" y2="2447.0591"/><polygon fill="#000000" points="401.1871,2437.0591,405.1871,2447.0591,409.1871,2437.0591,405.1871,2441.0591" style="stroke:#000000;stroke-width:1;stroke-linejoin:miter;stroke-miterlimit:10;"/><line style="stroke:#000000;stroke-width:1;" x1="405.1871" x2="405.1871" y1="2193.1958" y2="2218.7622"/><polygon fill="#000000" points="401.1871,2208.7622,405.1871,2218.7622,409.1871,2208.7622,405.1871,2212.7622" style="stroke:#000000;stroke-width:1;stroke-linejoin:miter;stroke-miterlimit:10;"/><line style="stroke:#000000;stroke-width:1;" x1="488.1761" x2="513.191" y1="2181.1958" y2="2181.1958"/><polygon fill="#000000" points="509.191,2334.1606,513.191,2344.1606,517.191,2334.1606,513.191,2338.1606" style="stroke:#000000;stroke-width:1;stroke-linejoin:miter;stroke-miterlimit:10;"/><line style="stroke:#000000;stroke-width:1;" x1="513.191" x2="513.191" y1="2181.1958" y2="2514.1919"/><line style="stroke:#000000;stroke-width:1;" x1="513.191" x2="417.1871" y1="2514.1919" y2="2514.1919"/><polygon fill="#000000" points="427.1871,2510.1919,417.1871,2514.1919,427.1871,2518.1919,423.1871,2514.1919" style="stroke:#000000;stroke-width:1;stroke-linejoin:miter;stroke-miterlimit:10;"/><line style="stroke:#000000;stroke-width:1;" x1="405.1871" x2="405.1871" y1="2482.1919" y2="2502.1919"/><polygon fill="#000000" points="401.1871,2492.1919,405.1871,2502.1919,409.1871,2492.1919,405.1871,2496.1919" style="stroke:#000000;stroke-width:1;stroke-linejoin:miter;stroke-miterlimit:10;"/><line style="stroke:#000000;stroke-width:1;" x1="405.1871" x2="405.1871" y1="2131.4966" y2="2169.1958"/><polygon fill="#000000" points="401.1871,2159.1958,405.1871,2169.1958,409.1871,2159.1958,405.1871,2163.1958" style="stroke:#000000;stroke-width:1;stroke-linejoin:miter;stroke-miterlimit:10;"/><line style="stroke:#000000;stroke-width:1;" x1="405.1871" x2="405.1871" y1="2526.1919" y2="2546.1919"/><polygon fill="#000000" points="401.1871,2536.1919,405.1871,2546.1919,409.1871,2536.1919,405.1871,2540.1919" style="stroke:#000000;stroke-width:1;stroke-linejoin:miter;stroke-miterlimit:10;"/><?plantuml-src hLVRZjis47tNLn01YjX8R7Yp3L1ukrli9Ti6RIxTorDT2BGqjbbBf49IktQ_lcUeYoNRoKkQXyJst6VEd65UHY_5RtyyZ3vyUX1tD7f_8sueKKuPBMupympf_SeyE-5N91AJ5nbv4ccZuYsHU5wH5b9eUeOj5VUVxXuWaCbQoA8WQTrhU2coid9Ia5KcLOamYqMcDDLHvz8dAx50o77qCehSMkb2Mfb3aAoNrfGwlJQPiOYcF7NaCl7gIVdjrPvUffOhFy_Aexh6fcGhlNa6mwwEjURvk4WRJmTXA3SwMQd5mkXzrKwKLDhrqcGfQMlIZfvNFgDRe_sz-fV4oKyTKKeBMMP-9poDeg0kNdnZO2yYDFlyE_x0_9Fk3COHcWRd0mnkj41YDFpU297pqleecduyXCoSW39om9fUA9jJUXP5QY46dwtAfTqAC_y72LMJf9c-_CWP0d_Fog-K5gSYfEX-6JBOaFMMt30IOdeDx9QUCUoujbGX1vsGa4kfjFCpdSXaHQaewZXBcMM4VprfP-mPNF18XMLKuOiGiN9nhHnNIGs60YwIjGlo_K0_YyduJHCkQFIjumL9NrgKdjANabvNJggaf1E_VdwiSn5FIWRXxLWRcyiCu43eLy8Rcwp6UJxWWacd8UC8dxb_ryVIsUzIfVhUF8eBY4y4kZlJLKC5p66M6UTXUpevD4MJBvrJIyqhxX27j1S0qBauEMiKsZ5Q6idaIwaifSDMUWcwGDfr8r1FEutGaaRFULE4ZvGv4WDjslXtn9sS2bT8hsHMZKCifCeOHy54fseHzKshtwg_e-bTgKLiALROLQyMk-6UHJq4N3D0a2m6Ga-C5EQ_W6480oKsoU-oS6F8_Yp1W6Wex8NI5P3H9qYQmYliGMSSxSRO8ZW7pFV0DTCrhlfEMpypFM3yL1oB4Sid92Fd6GthxVfmw3CWvEJjuIA5QfeEjzg9BAOGlvbCYWrsqEGYayXdhSqpEW7NJ297rkZHeHMwpESIW4W8-KfFQGt-B2apV8thQ74JBGu6Ht5-qwP_NYLp25J0P1Gw1DVT2PmrqjpWUwYXaG8Ds03ojSe7MG2IL60RFKHYTD7Ld6bqKwLnZlEdz18zIbf3iaiwd7CbhN7TH_Nq_YjOxgEsthovbJeTCH9xEuZvx_BvgvFvtzXEJHl--EeLm31zhnL7utl3NlgPRcUQQLPGNlXw9mUvt6IapzzE9XFOXnB-XmFKUneCsYT31M1JC4W0f-y_HFKztOjNxNFWW5XfJ_O9_QzeSFXYTxtwLXwONXBuZFbvfcCa2Mx8u_gP0qfHwG69W6oS-4Oug0pgTy2qrdlJPDBXXYC7aedwO7VViVU6bqP6PnmsCS5lRb8wif_CEX88s3jM03sR1vM6UxhBCWwIXnNksGhF7eJ9v8RIQSCouVoyxUulqhjL6UVNhcG2CAiKMme2cszRpYcisQWSppXSY9d-NMQvPB8btZE-u3NPY07VAJ00cjxTgUbj2PBaSgVXHSlLCMssFE2-GgUG76dGJJKUaOVLzat5Kovmnt1bmUViP8AuS8kcys8s5xzw3Q3oDb2pSDq6DQj-LIeqTC55jEoRIy1lWv7mEs4FO-spe9vE4_NrRc3DJsESEMxHFMW2Un7M3Hrj5wvxZjvj-DXvpXlm7nLIMJvDG4b5dLLAe1HSTU2C7nLuqrMSbDH7SQPBnmpPEHLpVbhpRtEpOMBibS9EUXq-vHsge0Ms_q4CqFGVXoWi4dsOyxYxsT-3_phu4e2NT0bLePks8laxSYPZAE8vcW5V-nbzjjXAZF9oT74bu4vSZIukERZ19hClJDrXNNUZvSsesPead-C6Nj2KFk036aRtJFghVgct5TnSCEB-7gpwDoxDzB58m-dRdIYKKBqJkddRS0YnpS7eXi9__TeVmvJvv8-QAF4EjACU6OGVmjCeNg6rncxFAZPodDiQvuZzALTNVDP0FLoJ_m00?></g></svg>