<svg xmlns="http://www.w3.org/2000/svg" xmlns:xlink="http://www.w3.org/1999/xlink" contentStyleType="text/css" data-diagram-type="DESCRIPTION" height="801px" preserveAspectRatio="none" style="width:888px;height:801px;" version="1.1" viewBox="0 0 888 801" width="888px" zoomAndPan="magnify"><?plantuml 1.2026.6?><defs/><g><g class="title" data-source-line="19"><text fill="#000000" font-family="Inter" font-size="14" font-weight="700" lengthAdjust="spacing" textLength="394.7959" x="243.1709" y="22.9951">Voxelize Navmesh &#8212; ROS 2 Node and Topic Graph</text></g><!--entity VoxNode--><g class="entity" data-qualified-name="VoxNode" data-source-line="21" id="ent0001"><rect fill="#E8F0FE" height="57.9375" rx="2.5" ry="2.5" style="stroke:#1A73E8;stroke-width:0.5;" width="130.1582" x="496.33" y="313.1769"/><rect fill="#E8F0FE" height="10" style="stroke:#1A73E8;stroke-width:0.5;" width="15" x="606.4882" y="318.1769"/><rect fill="#E8F0FE" height="2" style="stroke:#1A73E8;stroke-width:0.5;" width="4" x="604.4882" y="320.1769"/><rect fill="#E8F0FE" height="2" style="stroke:#1A73E8;stroke-width:0.5;" width="4" x="604.4882" y="324.1769"/><text fill="#000000" font-family="Inter" font-size="12" lengthAdjust="spacing" textLength="90.1582" x="511.33" y="344.3155">voxelizer_node</text><text fill="#000000" font-family="Inter" font-size="12" lengthAdjust="spacing" textLength="37.8516" x="511.33" y="358.2843">[C++]</text></g><!--entity ObsNode--><g class="entity" data-qualified-name="ObsNode" data-source-line="22" id="ent0002"><rect fill="#E8F0FE" height="57.9375" rx="2.5" ry="2.5" style="stroke:#1A73E8;stroke-width:0.5;" width="189.4551" x="339.68" y="582.0469"/><rect fill="#E8F0FE" height="10" style="stroke:#1A73E8;stroke-width:0.5;" width="15" x="509.1351" y="587.0469"/><rect fill="#E8F0FE" height="2" style="stroke:#1A73E8;stroke-width:0.5;" width="4" x="507.1351" y="589.0469"/><rect fill="#E8F0FE" height="2" style="stroke:#1A73E8;stroke-width:0.5;" width="4" x="507.1351" y="593.0469"/><text fill="#000000" font-family="Inter" font-size="12" lengthAdjust="spacing" textLength="149.4551" x="354.68" y="613.1855">simulate_obstacle_cosim</text><text fill="#000000" font-family="Inter" font-size="12" lengthAdjust="spacing" textLength="50.959" x="354.68" y="627.1543">[Python]</text></g><!--entity CrowdNode--><g class="entity" data-qualified-name="CrowdNode" data-source-line="23" id="ent0003"><rect fill="#E8F0FE" height="57.9375" rx="2.5" ry="2.5" style="stroke:#1A73E8;stroke-width:0.5;" width="175.1758" x="105.82" y="582.0469"/><rect fill="#E8F0FE" height="10" style="stroke:#1A73E8;stroke-width:0.5;" width="15" x="260.9958" y="587.0469"/><rect fill="#E8F0FE" height="2" style="stroke:#1A73E8;stroke-width:0.5;" width="4" x="258.9958" y="589.0469"/><rect fill="#E8F0FE" height="2" style="stroke:#1A73E8;stroke-width:0.5;" width="4" x="258.9958" y="593.0469"/><text fill="#000000" font-family="Inter" font-size="12" lengthAdjust="spacing" textLength="135.1758" x="120.82" y="613.1855">simulate_crowd_cosim</text><text fill="#000000" font-family="Inter" font-size="12" lengthAdjust="spacing" textLength="50.959" x="120.82" y="627.1543">[Python]</text></g><!--entity FakePose--><g class="entity" data-qualified-name="FakePose" data-source-line="24" id="ent0004"><rect fill="#E8F0FE" height="57.9375" rx="2.5" ry="2.5" style="stroke:#1A73E8;stroke-width:0.5;" width="138.4434" x="215.19" y="44.2969"/><rect fill="#E8F0FE" height="10" style="stroke:#1A73E8;stroke-width:0.5;" width="15" x="333.6334" y="49.2969"/><rect fill="#E8F0FE" height="2" style="stroke:#1A73E8;stroke-width:0.5;" width="4" x="331.6334" y="51.2969"/><rect fill="#E8F0FE" height="2" style="stroke:#1A73E8;stroke-width:0.5;" width="4" x="331.6334" y="55.2969"/><text fill="#000000" font-family="Inter" font-size="12" lengthAdjust="spacing" textLength="98.4434" x="230.19" y="75.4355">fake_robot_pose</text><text fill="#000000" font-family="Inter" font-size="12" lengthAdjust="spacing" textLength="50.959" x="230.19" y="89.4043">[Python]</text></g><!--entity LidarTopic--><g class="entity" data-qualified-name="LidarTopic" data-source-line="26" id="ent0005"><path d="M378.07,189.2369 C378.07,179.2369 431.4089,179.2369 431.4089,179.2369 C431.4089,179.2369 484.7477,179.2369 484.7477,189.2369 L484.7477,226.1744 C484.7477,236.1744 431.4089,236.1744 431.4089,236.1744 C431.4089,236.1744 378.07,236.1744 378.07,226.1744 L378.07,189.2369" fill="#FFF3E0" style="stroke:#E65100;stroke-width:0.5;"/><path d="M378.07,189.2369 C378.07,199.2369 431.4089,199.2369 431.4089,199.2369 C431.4089,199.2369 484.7477,199.2369 484.7477,189.2369" fill="none" style="stroke:#E65100;stroke-width:0.5;"/><text fill="#000000" font-family="Inter" font-size="12" lengthAdjust="spacing" textLength="86.6777" x="388.07" y="214.3755">/front_3d_lidar</text><text fill="#000000" font-family="Inter" font-size="12" lengthAdjust="spacing" textLength="73.4707" x="388.07" y="228.3443">/lidar_points</text></g><!--entity PoseTopic--><g class="entity" data-qualified-name="PoseTopic" data-source-line="27" id="ent0006"><path d="M239.62,189.2369 C239.62,179.2369 284.41,179.2369 284.41,179.2369 C284.41,179.2369 329.2001,179.2369 329.2001,189.2369 L329.2001,226.1744 C329.2001,236.1744 284.41,236.1744 284.41,236.1744 C284.41,236.1744 239.62,236.1744 239.62,226.1744 L239.62,189.2369" fill="#FFF3E0" style="stroke:#E65100;stroke-width:0.5;"/><path d="M239.62,189.2369 C239.62,199.2369 284.41,199.2369 284.41,199.2369 C284.41,199.2369 329.2001,199.2369 329.2001,189.2369" fill="none" style="stroke:#E65100;stroke-width:0.5;"/><text fill="#000000" font-family="Inter" font-size="12" lengthAdjust="spacing" textLength="64.1953" x="249.62" y="214.3755">/robotPose</text><text fill="#000000" font-family="Inter" font-size="12" lengthAdjust="spacing" textLength="69.5801" x="249.62" y="228.3443">(Odometry)</text></g><!--entity MapTopic--><g class="entity" data-qualified-name="MapTopic" data-source-line="28" id="ent0007"><path d="M519.66,189.2369 C519.66,179.2369 570.409,179.2369 570.409,179.2369 C570.409,179.2369 621.158,179.2369 621.158,189.2369 L621.158,226.1744 C621.158,236.1744 570.409,236.1744 570.409,236.1744 C570.409,236.1744 519.66,236.1744 519.66,226.1744 L519.66,189.2369" fill="#FFF3E0" style="stroke:#E65100;stroke-width:0.5;"/><path d="M519.66,189.2369 C519.66,199.2369 570.409,199.2369 570.409,199.2369 C570.409,199.2369 621.158,199.2369 621.158,189.2369" fill="none" style="stroke:#E65100;stroke-width:0.5;"/><text fill="#000000" font-family="Inter" font-size="12" lengthAdjust="spacing" textLength="69.7031" x="529.66" y="214.3755">/initial_map</text><text fill="#000000" font-family="Inter" font-size="12" lengthAdjust="spacing" textLength="81.498" x="529.66" y="228.3443">(PointCloud2)</text></g><!--entity FgTopic--><g class="entity" data-qualified-name="FgTopic" data-source-line="29" id="ent0008"><path d="M346.84,458.1169 C346.84,448.1169 411.4113,448.1169 411.4113,448.1169 C411.4113,448.1169 475.9826,448.1169 475.9826,458.1169 L475.9826,495.0544 C475.9826,505.0544 411.4113,505.0544 411.4113,505.0544 C411.4113,505.0544 346.84,505.0544 346.84,495.0544 L346.84,458.1169" fill="#FFF3E0" style="stroke:#E65100;stroke-width:0.5;"/><path d="M346.84,458.1169 C346.84,468.1169 411.4113,468.1169 411.4113,468.1169 C411.4113,468.1169 475.9826,468.1169 475.9826,458.1169" fill="none" style="stroke:#E65100;stroke-width:0.5;"/><text fill="#000000" font-family="Inter" font-size="12" lengthAdjust="spacing" textLength="109.1426" x="356.84" y="483.2555">/foreground_cloud</text><text fill="#000000" font-family="Inter" font-size="12" lengthAdjust="spacing" textLength="81.498" x="356.84" y="497.2243">(PointCloud2)</text></g><!--entity FullTopic--><g class="entity" data-qualified-name="FullTopic" data-source-line="30" id="ent0009"><path d="M510.66,458.1169 C510.66,448.1169 561.409,448.1169 561.409,448.1169 C561.409,448.1169 612.158,448.1169 612.158,458.1169 L612.158,495.0544 C612.158,505.0544 561.409,505.0544 561.409,505.0544 C561.409,505.0544 510.66,505.0544 510.66,495.0544 L510.66,458.1169" fill="#FFF3E0" style="stroke:#E65100;stroke-width:0.5;"/><path d="M510.66,458.1169 C510.66,468.1169 561.409,468.1169 561.409,468.1169 C561.409,468.1169 612.158,468.1169 612.158,458.1169" fill="none" style="stroke:#E65100;stroke-width:0.5;"/><text fill="#000000" font-family="Inter" font-size="12" lengthAdjust="spacing" textLength="61.0371" x="520.66" y="483.2555">/full_cloud</text><text fill="#000000" font-family="Inter" font-size="12" lengthAdjust="spacing" textLength="81.498" x="520.66" y="497.2243">(PointCloud2)</text></g><!--entity CmdVel--><g class="entity" data-qualified-name="CmdVel" data-source-line="31" id="ent0010"><path d="M301.53,729.1269 C301.53,719.1269 338.4128,719.1269 338.4128,719.1269 C338.4128,719.1269 375.2956,719.1269 375.2956,729.1269 L375.2956,766.0644 C375.2956,776.0644 338.4128,776.0644 338.4128,776.0644 C338.4128,776.0644 301.53,776.0644 301.53,766.0644 L301.53,729.1269" fill="#FFF3E0" style="stroke:#E65100;stroke-width:0.5;"/><path d="M301.53,729.1269 C301.53,739.1269 338.4128,739.1269 338.4128,739.1269 C338.4128,739.1269 375.2956,739.1269 375.2956,729.1269" fill="none" style="stroke:#E65100;stroke-width:0.5;"/><text fill="#000000" font-family="Inter" font-size="12" lengthAdjust="spacing" textLength="53.7656" x="311.53" y="754.2655">/cmd_vel</text><text fill="#000000" font-family="Inter" font-size="12" lengthAdjust="spacing" textLength="40.7988" x="311.53" y="768.2343">(Twist)</text></g><!--entity Markers--><g class="entity" data-qualified-name="Markers" data-source-line="32" id="ent0011"><path d="M647.51,458.1169 C647.51,448.1169 699.4104,448.1169 699.4104,448.1169 C699.4104,448.1169 751.3108,448.1169 751.3108,458.1169 L751.3108,495.0544 C751.3108,505.0544 699.4104,505.0544 699.4104,505.0544 C699.4104,505.0544 647.51,505.0544 647.51,495.0544 L647.51,458.1169" fill="#FFF3E0" style="stroke:#E65100;stroke-width:0.5;"/><path d="M647.51,458.1169 C647.51,468.1169 699.4104,468.1169 699.4104,468.1169 C699.4104,468.1169 751.3108,468.1169 751.3108,458.1169" fill="none" style="stroke:#E65100;stroke-width:0.5;"/><text fill="#000000" font-family="Inter" font-size="12" lengthAdjust="spacing" textLength="53.5371" x="657.51" y="483.2555">/markers</text><text fill="#000000" font-family="Inter" font-size="12" lengthAdjust="spacing" textLength="83.8008" x="657.51" y="497.2243">(MarkerArray)</text></g><g class="entity" data-qualified-name="GMN25" data-source-line="52" id="ent0026"><path d="M655.69,183.4969 L655.69,231.9109 L873.1378,231.9109 L873.1378,193.4969 L863.1378,183.4969 L655.69,183.4969" fill="#F3E8FD" style="stroke:#9334E6;stroke-width:0.5;"/><path d="M863.1378,183.4969 L863.1378,193.4969 L873.1378,193.4969 L863.1378,183.4969" fill="#F3E8FD" style="stroke:#9334E6;stroke-width:1;"/><text fill="#000000" font-family="Inter" font-size="11" lengthAdjust="spacing" textLength="153.9731" x="661.69" y="198.7073">Launch: voxelizer.launch.py</text><text fill="#000000" font-family="Inter" font-size="11" lengthAdjust="spacing" textLength="168.5986" x="661.69" y="211.512">Params: leaf_size, map_frame,</text><text fill="#000000" font-family="Inter" font-size="11" lengthAdjust="spacing" textLength="196.4478" x="661.69" y="224.3167">chebyshev_radius, range_filter, etc.</text></g><g class="entity" data-qualified-name="GMN28" data-source-line="58" id="ent0029"><path d="M409.81,716.9869 L409.81,778.2056 A0,0 0 0 0 409.81,778.2056 L683.0097,778.2056 A0,0 0 0 0 683.0097,778.2056 L683.0097,726.9869 L673.0097,716.9869 L525.41,716.9869 L457.89,640.2269 L517.41,716.9869 L409.81,716.9869 A0,0 0 0 0 409.81,716.9869" fill="#F3E8FD" style="stroke:#9334E6;stroke-width:0.5;"/><path d="M673.0097,716.9869 L673.0097,726.9869 L683.0097,726.9869 L673.0097,716.9869" fill="#F3E8FD" style="stroke:#9334E6;stroke-width:0.5;"/><text fill="#000000" font-family="Inter" font-size="11" lengthAdjust="spacing" textLength="241.2803" x="415.81" y="732.1973">Launch: simulate_obstacle_cosim.launch.py</text><text fill="#000000" font-family="Inter" font-size="11" lengthAdjust="spacing" textLength="252.1997" x="415.81" y="745.002">Params: cluster_voxel_size, cylinder_padding,</text><text fill="#000000" font-family="Inter" font-size="11" lengthAdjust="spacing" textLength="203.8276" x="415.81" y="757.8067">max_obstacles, obstacle_decay_time</text><text fill="#000000" font-family="Inter" font-size="11" lengthAdjust="spacing" textLength="224.4741" x="415.81" y="770.6114">Mode: dyn_obstacle_source = "obstacle"</text></g><g class="entity" data-qualified-name="GMN31" data-source-line="65" id="ent0032"><path d="M6,716.9869 L6,778.2056 A0,0 0 0 0 6,778.2056 L266.8247,778.2056 A0,0 0 0 0 266.8247,778.2056 L266.8247,726.9869 L256.8247,716.9869 L153.14,716.9869 L181.46,640.2269 L145.14,716.9869 L6,716.9869 A0,0 0 0 0 6,716.9869" fill="#F3E8FD" style="stroke:#9334E6;stroke-width:0.5;"/><path d="M256.8247,716.9869 L256.8247,726.9869 L266.8247,726.9869 L256.8247,716.9869" fill="#F3E8FD" style="stroke:#9334E6;stroke-width:0.5;"/><text fill="#000000" font-family="Inter" font-size="11" lengthAdjust="spacing" textLength="228.1909" x="12" y="732.1973">Launch: simulate_crowd_cosim.launch.py</text><text fill="#000000" font-family="Inter" font-size="11" lengthAdjust="spacing" textLength="239.8247" x="12" y="745.002">Params: dyn_obstacle_count, dyn_max_life,</text><text fill="#000000" font-family="Inter" font-size="11" lengthAdjust="spacing" textLength="150.6108" x="12" y="757.8067">agent_radius, agent_height</text><text fill="#000000" font-family="Inter" font-size="11" lengthAdjust="spacing" textLength="211.3848" x="12" y="770.6114">Mode: dyn_obstacle_source = "crowd"</text></g><!--link LidarTopic to VoxNode--><g class="link" data-entity-1="ent0005" data-entity-2="ent0001" data-link-type="dependency" data-source-line="34" id="lnk12"><path d="M452.73,236.5569 C464.23,250.9769 478.98,268.5769 493.41,283.1769 C503.45,293.3269 511.2302,300.4405 521.9802,309.5205" fill="none" id="LidarTopic-to-VoxNode" style="stroke:#181818;stroke-width:1;"/><polygon fill="#181818" points="525.8,312.7469,521.5055,303.8836,521.9802,309.5205,516.3433,309.9952,525.8,312.7469" style="stroke:#181818;stroke-width:1;stroke-linejoin:miter;stroke-miterlimit:10;"/><text fill="#000000" font-family="Inter" font-size="13" lengthAdjust="spacing" textLength="62.3911" x="494.41" y="279.2438">subscribe</text></g><!--link PoseTopic to VoxNode--><g class="link" data-entity-1="ent0006" data-entity-2="ent0001" data-link-type="dependency" data-source-line="35" id="lnk13"><path d="M325.65,236.5869 C348.78,251.5269 378.52,269.5969 406.41,283.1769 C435.09,297.1269 463.3269,308.2175 491.4469,318.1775" fill="none" id="PoseTopic-to-VoxNode" style="stroke:#181818;stroke-width:1;"/><polygon fill="#181818" points="496.16,319.8469,489.0119,313.0716,491.4469,318.1775,486.3409,320.6125,496.16,319.8469" style="stroke:#181818;stroke-width:1;stroke-linejoin:miter;stroke-miterlimit:10;"/><text fill="#000000" font-family="Inter" font-size="13" lengthAdjust="spacing" textLength="62.3911" x="407.41" y="279.2438">subscribe</text></g><!--link MapTopic to VoxNode--><g class="link" data-entity-1="ent0007" data-entity-2="ent0001" data-link-type="dependency" data-source-line="36" id="lnk14"><path d="M568.53,236.4669 C567,258.9169 565.1983,285.4083 563.6683,307.9683" fill="none" id="MapTopic-to-VoxNode" style="stroke:#181818;stroke-width:1;"/><polygon fill="#181818" points="563.33,312.9569,567.9298,304.2482,563.6683,307.9683,559.9481,303.7068,563.33,312.9569" style="stroke:#181818;stroke-width:1;stroke-linejoin:miter;stroke-miterlimit:10;"/><text fill="#000000" font-family="Inter" font-size="13" lengthAdjust="spacing" textLength="108.0054" x="567.45" y="279.2438">subscribe (once)</text></g><!--link VoxNode to FgTopic--><g class="link" data-entity-1="ent0001" data-entity-2="ent0008" data-link-type="dependency" data-source-line="37" id="lnk15"><path d="M529.23,371.5569 C503.75,394.0569 472.0977,421.9971 446.7677,444.3671" fill="none" id="VoxNode-to-FgTopic" style="stroke:#181818;stroke-width:1;"/><polygon fill="#181818" points="443.02,447.6769,452.4137,444.7175,446.7677,444.3671,447.1181,438.7211,443.02,447.6769" style="stroke:#181818;stroke-width:1;stroke-linejoin:miter;stroke-miterlimit:10;"/><text fill="#000000" font-family="Inter" font-size="13" lengthAdjust="spacing" textLength="46.979" x="496.39" y="414.1838">publish</text></g><!--link VoxNode to FullTopic--><g class="link" data-entity-1="ent0001" data-entity-2="ent0009" data-link-type="dependency" data-source-line="38" id="lnk16"><path d="M561.41,371.5569 C561.41,394.0569 561.41,420.3069 561.41,442.6769" fill="none" id="VoxNode-to-FullTopic" style="stroke:#181818;stroke-width:1;"/><polygon fill="#181818" points="561.41,447.6769,565.41,438.6769,561.41,442.6769,557.41,438.6769,561.41,447.6769" style="stroke:#181818;stroke-width:1;stroke-linejoin:miter;stroke-miterlimit:10;"/><text fill="#000000" font-family="Inter" font-size="13" lengthAdjust="spacing" textLength="46.979" x="562.41" y="414.1838">publish</text></g><!--link VoxNode to Markers--><g class="link" data-entity-1="ent0001" data-entity-2="ent0011" data-link-type="dependency" data-source-line="39" id="lnk17"><path d="M591.02,371.5569 C614.46,394.0569 643.4232,421.8441 666.7232,444.2141" fill="none" id="VoxNode-to-Markers" style="stroke:#181818;stroke-width:1;"/><polygon fill="#181818" points="670.33,447.6769,666.608,438.5584,666.7232,444.2141,661.0675,444.3292,670.33,447.6769" style="stroke:#181818;stroke-width:1;stroke-linejoin:miter;stroke-miterlimit:10;"/><text fill="#000000" font-family="Inter" font-size="13" lengthAdjust="spacing" textLength="46.979" x="639.67" y="414.1838">publish</text></g><!--link FgTopic to ObsNode--><g class="link" data-entity-1="ent0008" data-entity-2="ent0002" data-link-type="dependency" data-source-line="41" id="lnk18"><path d="M416.23,505.3469 C420.13,527.7969 424.744,554.3507 428.664,576.9107" fill="none" id="FgTopic-to-ObsNode" style="stroke:#181818;stroke-width:1;"/><polygon fill="#181818" points="429.52,581.8369,431.9202,572.285,428.664,576.9107,424.0383,573.6545,429.52,581.8369" style="stroke:#181818;stroke-width:1;stroke-linejoin:miter;stroke-miterlimit:10;"/><text fill="#000000" font-family="Inter" font-size="13" lengthAdjust="spacing" textLength="62.3911" x="425.29" y="548.1138">subscribe</text></g><!--link FgTopic to CrowdNode--><g class="link" data-entity-1="ent0008" data-entity-2="ent0003" data-link-type="dependency" data-source-line="42" id="lnk19"><path d="M365.45,505.5069 C328.6,527.8969 281.373,556.5805 244.343,579.0805" fill="none" id="FgTopic-to-CrowdNode" style="stroke:#181818;stroke-width:1;"/><polygon fill="#181818" points="240.07,581.6769,249.8386,580.4218,244.343,579.0805,245.6844,573.585,240.07,581.6769" style="stroke:#181818;stroke-width:1;stroke-linejoin:miter;stroke-miterlimit:10;"/><text fill="#000000" font-family="Inter" font-size="13" lengthAdjust="spacing" textLength="62.3911" x="316.46" y="548.1138">subscribe</text></g><!--link PoseTopic to ObsNode--><g class="link" data-entity-1="ent0006" data-entity-2="ent0002" data-link-type="dependency" data-source-line="43" id="lnk20"><path d="M277.46,236.2269 C263.39,298.7269 238.32,453.5369 306.41,552.0469 C314.87,564.2969 322.2729,571.4306 335.1829,579.1106" fill="none" id="PoseTopic-to-ObsNode" style="stroke:#181818;stroke-width:1;"/><polygon fill="#181818" points="339.48,581.6669,333.7902,573.6278,335.1829,579.1106,329.7001,580.5032,339.48,581.6669" style="stroke:#181818;stroke-width:1;stroke-linejoin:miter;stroke-miterlimit:10;"/><text fill="#000000" font-family="Inter" font-size="13" lengthAdjust="spacing" textLength="62.3911" x="263.67" y="414.1838">subscribe</text></g><!--link PoseTopic to CrowdNode--><g class="link" data-entity-1="ent0006" data-entity-2="ent0003" data-link-type="dependency" data-source-line="44" id="lnk21"><path d="M262.97,236.3969 C236.79,272.1169 193.96,337.2969 177.41,401.1169 C161.07,464.1369 174.1938,536.3146 184.2938,576.9446" fill="none" id="PoseTopic-to-CrowdNode" style="stroke:#181818;stroke-width:1;"/><polygon fill="#181818" points="185.5,581.7969,187.2107,572.0977,184.2938,576.9446,179.447,574.0277,185.5,581.7969" style="stroke:#181818;stroke-width:1;stroke-linejoin:miter;stroke-miterlimit:10;"/><text fill="#000000" font-family="Inter" font-size="13" lengthAdjust="spacing" textLength="62.3911" x="178.41" y="414.1838">subscribe</text></g><!--link ObsNode to CmdVel--><g class="link" data-entity-1="ent0002" data-entity-2="ent0010" data-link-type="dependency" data-source-line="46" id="lnk22"><path d="M414.29,640.2269 C397.79,663.3569 377.4837,691.8264 361.0837,714.8164" fill="none" id="ObsNode-to-CmdVel" style="stroke:#181818;stroke-width:1;"/><polygon fill="#181818" points="358.18,718.8869,366.663,713.883,361.0837,714.8164,360.1503,709.2371,358.18,718.8869" style="stroke:#181818;stroke-width:1;stroke-linejoin:miter;stroke-miterlimit:10;"/><text fill="#000000" font-family="Inter" font-size="13" lengthAdjust="spacing" textLength="46.979" x="393.16" y="683.0538">publish</text></g><!--link CrowdNode to CmdVel--><g class="link" data-entity-1="ent0003" data-entity-2="ent0010" data-link-type="dependency" data-source-line="47" id="lnk23"><path d="M223.81,640.2269 C248.72,663.3569 280.1259,692.4947 304.8859,715.4847" fill="none" id="CrowdNode-to-CmdVel" style="stroke:#181818;stroke-width:1;"/><polygon fill="#181818" points="308.55,718.8869,304.6764,709.8318,304.8859,715.4847,299.233,715.6943,308.55,718.8869" style="stroke:#181818;stroke-width:1;stroke-linejoin:miter;stroke-miterlimit:10;"/><text fill="#000000" font-family="Inter" font-size="13" lengthAdjust="spacing" textLength="46.979" x="271.26" y="683.0538">publish</text></g><!--link FakePose to PoseTopic--><g class="link" data-entity-1="ent0004" data-entity-2="ent0006" data-link-type="dependency" data-source-line="49" id="lnk24"><path d="M284.41,102.6769 C284.41,125.1769 284.41,151.4269 284.41,173.7969" fill="none" id="FakePose-to-PoseTopic" style="stroke:#181818;stroke-width:1;"/><polygon fill="#181818" points="284.41,178.7969,288.41,169.7969,284.41,173.7969,280.41,169.7969,284.41,178.7969" style="stroke:#181818;stroke-width:1;stroke-linejoin:miter;stroke-miterlimit:10;"/><text fill="#000000" font-family="Inter" font-size="13" lengthAdjust="spacing" textLength="86.2202" x="285.41" y="145.3038">publish (test)</text></g><!--link GMN25 to VoxNode--><g class="link" data-entity-1="ent0026" data-entity-2="ent0001" data-link-type="association" data-source-line="52" id="lnk27"><path d="M742.91,232.2269 C727.65,248.0069 706.1,268.4969 684.41,283.1769 C666.72,295.1469 646.16,305.9069 626.98,314.7969" fill="none" id="GMN25-VoxNode" style="stroke:#181818;stroke-width:1;stroke-dasharray:7,7;"/></g><?plantuml-src XLJTRjCm5BxtKrZbPeXkR2k_aq22qY0ajbKCSGF8SkoJnffZHxOpA0Y9X-09UHAEtIPDktHShJlVp_byx1n_hKpD7QzepiNrmjd6oAdLrj7WkF48WGd4Tom91MzqoAm95xm2-iu4S3rSsAgs1ZNq9w7qzOxdlTcpx3YRHSGw2MvTFNdrT39xXjLeUwL-03qv9R_wNNdWEVSmR9fbsMHsl6iwU_BuvFZu3bDZmpv3J9EzsJLyFfaycZtPCZn1Gn9Kq40_sU-WO_62trJWI_htzn_wuVAAdj8BAu5o8-b7Moj1tpfUbuHi9ZMwMMiTCqZzOZvF7ppuEgBSHzUexfEzgXhD0p2R-y251YOirb0rNuRIcfNmClTxXSBPRt9GDOt8hgxWry2SpMrWjVMm8yaGdMEPaEwIHWyBXoDY4ycqajnzCG_JNvGh4toIlO-5D8--BdMPfoO7bz9M4DpoVkB7uYswCYeehbd5QnJCe_jKsqQUhZJdlBubAQo3rLqp4Qb3kcnnMzPeVOS0qLiIKKbs0nhv7xyf7rRCQIK_WUxJAkwkmNcadQTVhvpZopP_WWZP38iU7hvi7mKzexx9lN0g1zBDPo-ZdSO-0ZsmHi1zqaAHjfu4qkecrygNssXxx3tuEdyF9QrXXDTFT2ja7-yUunq77VBOPWoxa5QOAEbIUZ4tca6Oj6y-mPjs7OCU1C0R9oIjc61hQelkKwRqFM-CACzezzaVwLGvgfU8pkDoycTK0o-OHtXCyNsp0gimHboKa2zz2JVCSQaQFwQug1V02gLn5Oyf17540BTDRBwEW5zLi5LCqUw5JOez-sGmaz2DnoOi9L-74qkj36v9LdCfbLd4Z1N_tjbXmCvPWk1B5bGL0vnZZZCgbsRJsTl62Q0lwAWjZVOVPREi1WxJst639zbgAt0VX76gnUHQ5MdIV87xhvlowhyIrA8C_qkVklUY_mC0?></g></svg>