<svg xmlns="http://www.w3.org/2000/svg" xmlns:xlink="http://www.w3.org/1999/xlink" contentStyleType="text/css" data-diagram-type="DESCRIPTION" height="1035px" preserveAspectRatio="none" style="width:2502px;height:1035px;" version="1.1" viewBox="0 0 2502 1035" width="2502px" zoomAndPan="magnify"><?plantuml 1.2026.6?><defs/><g><g class="title" data-source-line="24"><text fill="#000000" font-family="Inter" font-size="14" font-weight="700" lengthAdjust="spacing" textLength="329.0547" x="1082.9727" y="22.9951">Voxelize Navmesh &#8212; System Architecture</text></g><!--cluster Voxelizer--><g class="cluster" data-qualified-name="Voxelizer" data-source-line="26" id="ent0001"><path d="M8.5,50.8669 L275.377,50.8669 A3.75,3.75 0 0 1 277.877,53.3669 L284.877,73.1637 L284.5,73.1637 A2.5,2.5 0 0 1 287,75.6637 L287,686.6769 A2.5,2.5 0 0 1 284.5,689.1769 L8.5,689.1769 A2.5,2.5 0 0 1 6,686.6769 L6,53.3669 A2.5,2.5 0 0 1 8.5,50.8669" fill="#F3E8FD" style="stroke:#9334E6;stroke-width:1.5;"/><line style="stroke:#9334E6;stroke-width:1.5;" x1="6" x2="284.877" y1="73.1637" y2="73.1637"/><text fill="#000000" font-family="Inter" font-size="14" font-weight="700" lengthAdjust="spacing" textLength="265.877" x="10" y="65.862">pointcloud_voxelizer (C++ ROS 2)</text></g><!--cluster VoxNav--><g class="cluster" data-qualified-name="VoxNav" data-source-line="33" id="ent0006"><path d="M313.5,201.5669 L535.2188,201.5669 A3.75,3.75 0 0 1 537.7188,204.0669 L544.7188,223.8637 L1852.5,223.8637 A2.5,2.5 0 0 1 1855,226.3637 L1855,886.9369 A2.5,2.5 0 0 1 1852.5,889.4369 L313.5,889.4369 A2.5,2.5 0 0 1 311,886.9369 L311,204.0669 A2.5,2.5 0 0 1 313.5,201.5669" fill="#F3E8FD" style="stroke:#9334E6;stroke-width:1.5;"/><line style="stroke:#9334E6;stroke-width:1.5;" x1="311" x2="544.7188" y1="223.8637" y2="223.8637"/><text fill="#000000" font-family="Inter" font-size="14" font-weight="700" lengthAdjust="spacing" textLength="220.7188" x="315" y="216.562">voxnav (C++/Python ROS 2)</text></g><!--cluster Bridge--><g class="cluster" data-qualified-name="VoxNav.Bridge" data-source-line="34" id="ent0007"><path d="M1184.5,571.5769 L1446.1475,571.5769 A3.75,3.75 0 0 1 1448.6475,574.0769 L1455.6475,593.8738 L1820.5,593.8738 A2.5,2.5 0 0 1 1823,596.3738 L1823,854.9369 A2.5,2.5 0 0 1 1820.5,857.4369 L1184.5,857.4369 A2.5,2.5 0 0 1 1182,854.9369 L1182,574.0769 A2.5,2.5 0 0 1 1184.5,571.5769" fill="#F3E8FD" style="stroke:#9334E6;stroke-width:1.5;"/><line style="stroke:#9334E6;stroke-width:1.5;" x1="1182" x2="1455.6475" y1="593.8738" y2="593.8738"/><text fill="#000000" font-family="Inter" font-size="14" font-weight="700" lengthAdjust="spacing" textLength="260.6475" x="1186" y="586.572">C++ Bridge (navmesh_bridge.so)</text></g><!--cluster Python--><g class="cluster" data-qualified-name="VoxNav.Python" data-source-line="42" id="ent0013"><path d="M337.5,420.8269 L512.5361,420.8269 A3.75,3.75 0 0 1 515.0361,423.3269 L522.0361,443.1238 L1147.5,443.1238 A2.5,2.5 0 0 1 1150,445.6238 L1150,680.7769 A2.5,2.5 0 0 1 1147.5,683.2769 L337.5,683.2769 A2.5,2.5 0 0 1 335,680.7769 L335,423.3269 A2.5,2.5 0 0 1 337.5,420.8269" fill="#F3E8FD" style="stroke:#9334E6;stroke-width:1.5;"/><line style="stroke:#9334E6;stroke-width:1.5;" x1="335" x2="522.0361" y1="443.1238" y2="443.1238"/><text fill="#000000" font-family="Inter" font-size="14" font-weight="700" lengthAdjust="spacing" textLength="174.0361" x="339" y="435.822">Python Layer (ctypes)</text></g><!--cluster CoSim--><g class="cluster" data-qualified-name="VoxNav.CoSim" data-source-line="50" id="ent0019"><path d="M566.5,252.5669 L732.0205,252.5669 A3.75,3.75 0 0 1 734.5205,255.0669 L741.5205,274.8638 L1051.5,274.8638 A2.5,2.5 0 0 1 1054,277.3638 L1054,377.3269 A2.5,2.5 0 0 1 1051.5,379.8269 L566.5,379.8269 A2.5,2.5 0 0 1 564,377.3269 L564,255.0669 A2.5,2.5 0 0 1 566.5,252.5669" fill="#F3E8FD" style="stroke:#9334E6;stroke-width:1.5;"/><line style="stroke:#9334E6;stroke-width:1.5;" x1="564" x2="741.5205" y1="274.8638" y2="274.8638"/><text fill="#000000" font-family="Inter" font-size="14" font-weight="700" lengthAdjust="spacing" textLength="164.5205" x="568" y="267.562">Co-Simulation Nodes</text></g><!--cluster RecastNav--><g class="cluster" data-qualified-name="RecastNav" data-source-line="56" id="ent0022"><path d="M1889.5,730.1769 L2154.4219,730.1769 A3.75,3.75 0 0 1 2156.9219,732.6769 L2163.9219,752.4738 L2269.5,752.4738 A2.5,2.5 0 0 1 2272,754.9738 L2272,1018.2069 A2.5,2.5 0 0 1 2269.5,1020.7069 L1889.5,1020.7069 A2.5,2.5 0 0 1 1887,1018.2069 L1887,732.6769 A2.5,2.5 0 0 1 1889.5,730.1769" fill="#F3E8FD" style="stroke:#9334E6;stroke-width:1.5;"/><line style="stroke:#9334E6;stroke-width:1.5;" x1="1887" x2="2163.9219" y1="752.4738" y2="752.4738"/><text fill="#000000" font-family="Inter" font-size="14" font-weight="700" lengthAdjust="spacing" textLength="263.9219" x="1891" y="745.172">recastnavigation (git submodule)</text></g><!--cluster Tools--><g class="cluster" data-qualified-name="Tools" data-source-line="63" id="ent0027"><path d="M2123.5,43.2969 L2182.8721,43.2969 A3.75,3.75 0 0 1 2185.3721,45.7969 L2192.3721,65.5938 L2484.5,65.5938 A2.5,2.5 0 0 1 2487,68.0938 L2487,369.3269 A2.5,2.5 0 0 1 2484.5,371.8269 L2123.5,371.8269 A2.5,2.5 0 0 1 2121,369.3269 L2121,45.7969 A2.5,2.5 0 0 1 2123.5,43.2969" fill="#F3E8FD" style="stroke:#9334E6;stroke-width:1.5;"/><line style="stroke:#9334E6;stroke-width:1.5;" x1="2121" x2="2192.3721" y1="65.5938" y2="65.5938"/><text fill="#000000" font-family="Inter" font-size="14" font-weight="700" lengthAdjust="spacing" textLength="58.3721" x="2125" y="58.292">Tooling</text></g><!--entity VoxNode--><g class="entity" data-qualified-name="Voxelizer.VoxNode" data-source-line="27" id="ent0002"><rect fill="#E8F0FE" height="45.1328" rx="2.5" ry="2.5" style="stroke:#1A73E8;stroke-width:0.5;" width="137.6714" x="126.16" y="85.8669"/><rect fill="#E8F0FE" height="10" style="stroke:#1A73E8;stroke-width:0.5;" width="15" x="243.8314" y="90.8669"/><rect fill="#E8F0FE" height="2" style="stroke:#1A73E8;stroke-width:0.5;" width="4" x="241.8314" y="92.8669"/><rect fill="#E8F0FE" height="2" style="stroke:#1A73E8;stroke-width:0.5;" width="4" x="241.8314" y="96.8669"/><text fill="#000000" font-family="Inter" font-size="13" lengthAdjust="spacing" textLength="97.6714" x="141.16" y="117.9338">voxelizer_node</text></g><!--entity VoxGrid--><g class="entity" data-qualified-name="Voxelizer.VoxGrid" data-source-line="28" id="ent0003"><rect fill="#E8F0FE" height="45.1328" rx="2.5" ry="2.5" style="stroke:#1A73E8;stroke-width:0.5;" width="131.7236" x="100.14" y="303.1369"/><rect fill="#E8F0FE" height="10" style="stroke:#1A73E8;stroke-width:0.5;" width="15" x="211.8636" y="308.1369"/><rect fill="#E8F0FE" height="2" style="stroke:#1A73E8;stroke-width:0.5;" width="4" x="209.8636" y="310.1369"/><rect fill="#E8F0FE" height="2" style="stroke:#1A73E8;stroke-width:0.5;" width="4" x="209.8636" y="314.1369"/><text fill="#000000" font-family="Inter" font-size="13" lengthAdjust="spacing" textLength="91.7236" x="115.14" y="335.2038">PCL VoxelGrid</text></g><!--entity MapSub--><g class="entity" data-qualified-name="Voxelizer.MapSub" data-source-line="29" id="ent0004"><rect fill="#E8F0FE" height="60.2656" rx="2.5" ry="2.5" style="stroke:#1A73E8;stroke-width:0.5;" width="238.4912" x="32.75" y="455.8269"/><rect fill="#E8F0FE" height="10" style="stroke:#1A73E8;stroke-width:0.5;" width="15" x="251.2412" y="460.8269"/><rect fill="#E8F0FE" height="2" style="stroke:#1A73E8;stroke-width:0.5;" width="4" x="249.2412" y="462.8269"/><rect fill="#E8F0FE" height="2" style="stroke:#1A73E8;stroke-width:0.5;" width="4" x="249.2412" y="466.8269"/><text fill="#000000" font-family="Inter" font-size="13" lengthAdjust="spacing" textLength="106.7676" x="47.75" y="487.8938">Map Subtraction</text><text fill="#000000" font-family="Inter" font-size="13" lengthAdjust="spacing" textLength="198.4912" x="47.75" y="503.0266">(Chebyshev R-neighbourhood)</text></g><!--entity StaticMap--><g class="entity" data-qualified-name="Voxelizer.StaticMap" data-source-line="30" id="ent0005"><path d="M56.02,626.2369 C56.02,616.2369 151.9975,616.2369 151.9975,616.2369 C151.9975,616.2369 247.9751,616.2369 247.9751,626.2369 L247.9751,663.1744 C247.9751,673.1744 151.9975,673.1744 151.9975,673.1744 C151.9975,673.1744 56.02,673.1744 56.02,663.1744 L56.02,626.2369" fill="#E8F5E9" style="stroke:#2E7D32;stroke-width:0.5;"/><path d="M56.02,626.2369 C56.02,636.2369 151.9975,636.2369 151.9975,636.2369 C151.9975,636.2369 247.9751,636.2369 247.9751,626.2369" fill="none" style="stroke:#2E7D32;stroke-width:0.5;"/><text fill="#000000" font-family="Inter" font-size="12" lengthAdjust="spacing" textLength="65.6074" x="66.02" y="651.3755">static_map</text><text fill="#000000" font-family="Inter" font-size="12" lengthAdjust="spacing" textLength="171.9551" x="66.02" y="665.3443">(unordered_set&lt;VoxelKey&gt;)</text></g><!--entity API--><g class="entity" data-qualified-name="VoxNav.Bridge.API" data-source-line="35" id="ent0008"><rect fill="#E8F0FE" height="60.2656" rx="2.5" ry="2.5" style="stroke:#1A73E8;stroke-width:0.5;" width="147.8657" x="1206.07" y="614.5769"/><rect fill="#E8F0FE" height="10" style="stroke:#1A73E8;stroke-width:0.5;" width="15" x="1333.9357" y="619.5769"/><rect fill="#E8F0FE" height="2" style="stroke:#1A73E8;stroke-width:0.5;" width="4" x="1331.9357" y="621.5769"/><rect fill="#E8F0FE" height="2" style="stroke:#1A73E8;stroke-width:0.5;" width="4" x="1331.9357" y="625.5769"/><text fill="#000000" font-family="Inter" font-size="13" lengthAdjust="spacing" textLength="107.8657" x="1221.07" y="646.6438">~30 extern \"C\"</text><text fill="#000000" font-family="Inter" font-size="13" lengthAdjust="spacing" textLength="84.5762" x="1221.07" y="661.7766">API functions</text></g><!--entity Recast--><g class="entity" data-qualified-name="VoxNav.Bridge.Recast" data-source-line="36" id="ent0009"><rect fill="#E8F0FE" height="60.2656" rx="2.5" ry="2.5" style="stroke:#1A73E8;stroke-width:0.5;" width="206.8672" x="1388.57" y="614.5769"/><rect fill="#E8F0FE" height="10" style="stroke:#1A73E8;stroke-width:0.5;" width="15" x="1575.4372" y="619.5769"/><rect fill="#E8F0FE" height="2" style="stroke:#1A73E8;stroke-width:0.5;" width="4" x="1573.4372" y="621.5769"/><rect fill="#E8F0FE" height="2" style="stroke:#1A73E8;stroke-width:0.5;" width="4" x="1573.4372" y="625.5769"/><text fill="#000000" font-family="Inter" font-size="13" lengthAdjust="spacing" textLength="99.3091" x="1403.57" y="646.6438">Recast Pipeline</text><text fill="#000000" font-family="Inter" font-size="13" lengthAdjust="spacing" textLength="166.8672" x="1403.57" y="661.7766">(heightfield&#8594;detail mesh)</text></g><!--entity Detour--><g class="entity" data-qualified-name="VoxNav.Bridge.Detour" data-source-line="37" id="ent0010"><rect fill="#E8F0FE" height="60.2656" rx="2.5" ry="2.5" style="stroke:#1A73E8;stroke-width:0.5;" width="148.3862" x="1630.81" y="614.5769"/><rect fill="#E8F0FE" height="10" style="stroke:#1A73E8;stroke-width:0.5;" width="15" x="1759.1962" y="619.5769"/><rect fill="#E8F0FE" height="2" style="stroke:#1A73E8;stroke-width:0.5;" width="4" x="1757.1962" y="621.5769"/><rect fill="#E8F0FE" height="2" style="stroke:#1A73E8;stroke-width:0.5;" width="4" x="1757.1962" y="625.5769"/><text fill="#000000" font-family="Inter" font-size="13" lengthAdjust="spacing" textLength="108.3862" x="1645.81" y="646.6438">Detour NavMesh</text><text fill="#000000" font-family="Inter" font-size="13" lengthAdjust="spacing" textLength="92.0474" x="1645.81" y="661.7766">(path queries)</text></g><!--entity TileCache--><g class="entity" data-qualified-name="VoxNav.Bridge.TileCache" data-source-line="38" id="ent0011"><rect fill="#E8F0FE" height="60.2656" rx="2.5" ry="2.5" style="stroke:#1A73E8;stroke-width:0.5;" width="171.4219" x="1206.29" y="773.1769"/><rect fill="#E8F0FE" height="10" style="stroke:#1A73E8;stroke-width:0.5;" width="15" x="1357.7119" y="778.1769"/><rect fill="#E8F0FE" height="2" style="stroke:#1A73E8;stroke-width:0.5;" width="4" x="1355.7119" y="780.1769"/><rect fill="#E8F0FE" height="2" style="stroke:#1A73E8;stroke-width:0.5;" width="4" x="1355.7119" y="784.1769"/><text fill="#000000" font-family="Inter" font-size="13" lengthAdjust="spacing" textLength="108.2339" x="1221.29" y="805.2438">DetourTileCache</text><text fill="#000000" font-family="Inter" font-size="13" lengthAdjust="spacing" textLength="131.4219" x="1221.29" y="820.3766">(dynamic obstacles)</text></g><!--entity Crowd--><g class="entity" data-qualified-name="VoxNav.Bridge.Crowd" data-source-line="39" id="ent0012"><rect fill="#E8F0FE" height="60.2656" rx="2.5" ry="2.5" style="stroke:#1A73E8;stroke-width:0.5;" width="159.5962" x="1413.2" y="773.1769"/><rect fill="#E8F0FE" height="10" style="stroke:#1A73E8;stroke-width:0.5;" width="15" x="1552.7962" y="778.1769"/><rect fill="#E8F0FE" height="2" style="stroke:#1A73E8;stroke-width:0.5;" width="4" x="1550.7962" y="780.1769"/><rect fill="#E8F0FE" height="2" style="stroke:#1A73E8;stroke-width:0.5;" width="4" x="1550.7962" y="784.1769"/><text fill="#000000" font-family="Inter" font-size="13" lengthAdjust="spacing" textLength="85.9028" x="1428.2" y="805.2438">DetourCrowd</text><text fill="#000000" font-family="Inter" font-size="13" lengthAdjust="spacing" textLength="119.5962" x="1428.2" y="820.3766">(agent simulation)</text></g><!--entity CTypes--><g class="entity" data-qualified-name="VoxNav.Python.CTypes" data-source-line="43" id="ent0014"><rect fill="#E8F0FE" height="60.2656" rx="2.5" ry="2.5" style="stroke:#1A73E8;stroke-width:0.5;" width="175.8335" x="958.08" y="455.8269"/><rect fill="#E8F0FE" height="10" style="stroke:#1A73E8;stroke-width:0.5;" width="15" x="1113.9135" y="460.8269"/><rect fill="#E8F0FE" height="2" style="stroke:#1A73E8;stroke-width:0.5;" width="4" x="1111.9135" y="462.8269"/><rect fill="#E8F0FE" height="2" style="stroke:#1A73E8;stroke-width:0.5;" width="4" x="1111.9135" y="466.8269"/><text fill="#000000" font-family="Inter" font-size="13" lengthAdjust="spacing" textLength="102.3242" x="973.08" y="487.8938">ctypes bindings</text><text fill="#000000" font-family="Inter" font-size="13" lengthAdjust="spacing" textLength="135.8335" x="973.08" y="503.0266">(argtypes + restype)</text></g><!--entity NMQuery--><g class="entity" data-qualified-name="VoxNav.Python.NMQuery" data-source-line="44" id="ent0015"><rect fill="#E8F0FE" height="45.1328" rx="2.5" ry="2.5" style="stroke:#1A73E8;stroke-width:0.5;" width="211.374" x="532.31" y="463.3969"/><rect fill="#E8F0FE" height="10" style="stroke:#1A73E8;stroke-width:0.5;" width="15" x="723.684" y="468.3969"/><rect fill="#E8F0FE" height="2" style="stroke:#1A73E8;stroke-width:0.5;" width="4" x="721.684" y="470.3969"/><rect fill="#E8F0FE" height="2" style="stroke:#1A73E8;stroke-width:0.5;" width="4" x="721.684" y="474.3969"/><text fill="#000000" font-family="Inter" font-size="13" lengthAdjust="spacing" textLength="171.374" x="547.31" y="495.4638">NavMesh / NavMeshQuery</text></g><!--entity PyCrowd--><g class="entity" data-qualified-name="VoxNav.Python.PyCrowd" data-source-line="45" id="ent0016"><rect fill="#E8F0FE" height="45.1328" rx="2.5" ry="2.5" style="stroke:#1A73E8;stroke-width:0.5;" width="143.8223" x="779.09" y="463.3969"/><rect fill="#E8F0FE" height="10" style="stroke:#1A73E8;stroke-width:0.5;" width="15" x="902.9123" y="468.3969"/><rect fill="#E8F0FE" height="2" style="stroke:#1A73E8;stroke-width:0.5;" width="4" x="900.9123" y="470.3969"/><rect fill="#E8F0FE" height="2" style="stroke:#1A73E8;stroke-width:0.5;" width="4" x="900.9123" y="474.3969"/><text fill="#000000" font-family="Inter" font-size="13" lengthAdjust="spacing" textLength="103.8223" x="794.09" y="495.4638">Crowd manager</text></g><!--entity PyTileCache--><g class="entity" data-qualified-name="VoxNav.Python.PyTileCache" data-source-line="46" id="ent0017"><rect fill="#E8F0FE" height="45.1328" rx="2.5" ry="2.5" style="stroke:#1A73E8;stroke-width:0.5;" width="166.1533" x="554.92" y="622.1369"/><rect fill="#E8F0FE" height="10" style="stroke:#1A73E8;stroke-width:0.5;" width="15" x="701.0733" y="627.1369"/><rect fill="#E8F0FE" height="2" style="stroke:#1A73E8;stroke-width:0.5;" width="4" x="699.0733" y="629.1369"/><rect fill="#E8F0FE" height="2" style="stroke:#1A73E8;stroke-width:0.5;" width="4" x="699.0733" y="633.1369"/><text fill="#000000" font-family="Inter" font-size="13" lengthAdjust="spacing" textLength="126.1533" x="569.92" y="654.2038">TileCache manager</text></g><!--entity Coords--><g class="entity" data-qualified-name="VoxNav.Python.Coords" data-source-line="47" id="ent0018"><rect fill="#E8F0FE" height="60.2656" rx="2.5" ry="2.5" style="stroke:#1A73E8;stroke-width:0.5;" width="146.6597" x="350.67" y="455.8269"/><rect fill="#E8F0FE" height="10" style="stroke:#1A73E8;stroke-width:0.5;" width="15" x="477.3297" y="460.8269"/><rect fill="#E8F0FE" height="2" style="stroke:#1A73E8;stroke-width:0.5;" width="4" x="475.3297" y="462.8269"/><rect fill="#E8F0FE" height="2" style="stroke:#1A73E8;stroke-width:0.5;" width="4" x="475.3297" y="466.8269"/><text fill="#000000" font-family="Inter" font-size="13" lengthAdjust="spacing" textLength="106.6597" x="365.67" y="487.8938">Coordinate conv</text><text fill="#000000" font-family="Inter" font-size="13" lengthAdjust="spacing" textLength="88.5117" x="365.67" y="503.0266">(Z-up &#8596; Y-up)</text></g><!--entity CrowdSim--><g class="entity" data-qualified-name="VoxNav.CoSim.CrowdSim" data-source-line="51" id="ent0020"><rect fill="#E8F0FE" height="60.2656" rx="2.5" ry="2.5" style="stroke:#1A73E8;stroke-width:0.5;" width="186.4404" x="587.78" y="295.5669"/><rect fill="#E8F0FE" height="10" style="stroke:#1A73E8;stroke-width:0.5;" width="15" x="754.2204" y="300.5669"/><rect fill="#E8F0FE" height="2" style="stroke:#1A73E8;stroke-width:0.5;" width="4" x="752.2204" y="302.5669"/><rect fill="#E8F0FE" height="2" style="stroke:#1A73E8;stroke-width:0.5;" width="4" x="752.2204" y="306.5669"/><text fill="#000000" font-family="Inter" font-size="13" lengthAdjust="spacing" textLength="146.4404" x="602.78" y="327.6338">simulate_crowd_cosim</text><text fill="#000000" font-family="Inter" font-size="13" lengthAdjust="spacing" textLength="123.6206" x="602.78" y="342.7666">(crowd-agent pool)</text></g><!--entity ObsSim--><g class="entity" data-qualified-name="VoxNav.CoSim.ObsSim" data-source-line="52" id="ent0021"><rect fill="#E8F0FE" height="60.2656" rx="2.5" ry="2.5" style="stroke:#1A73E8;stroke-width:0.5;" width="201.9097" x="809.05" y="295.5669"/><rect fill="#E8F0FE" height="10" style="stroke:#1A73E8;stroke-width:0.5;" width="15" x="990.9597" y="300.5669"/><rect fill="#E8F0FE" height="2" style="stroke:#1A73E8;stroke-width:0.5;" width="4" x="988.9597" y="302.5669"/><rect fill="#E8F0FE" height="2" style="stroke:#1A73E8;stroke-width:0.5;" width="4" x="988.9597" y="306.5669"/><text fill="#000000" font-family="Inter" font-size="13" lengthAdjust="spacing" textLength="161.9097" x="824.05" y="327.6338">simulate_obstacle_cosim</text><text fill="#000000" font-family="Inter" font-size="13" lengthAdjust="spacing" textLength="135.897" x="824.05" y="342.7666">(tile cache cylinders)</text></g><!--entity Recast\n(navmesh baking)--><g class="entity" data-qualified-name="RecastNav.Recast.n.navmesh baking." data-source-line="57" id="ent0023"><rect fill="#E8F0FE" height="60.2656" rx="2.5" ry="2.5" style="stroke:#1A73E8;stroke-width:0.5;" width="157.6982" x="1911.15" y="773.1769"/><rect fill="#E8F0FE" height="10" style="stroke:#1A73E8;stroke-width:0.5;" width="15" x="2048.8482" y="778.1769"/><rect fill="#E8F0FE" height="2" style="stroke:#1A73E8;stroke-width:0.5;" width="4" x="2046.8482" y="780.1769"/><rect fill="#E8F0FE" height="2" style="stroke:#1A73E8;stroke-width:0.5;" width="4" x="2046.8482" y="784.1769"/><text fill="#000000" font-family="Inter" font-size="13" lengthAdjust="spacing" textLength="44.0146" x="1926.15" y="805.2438">Recast</text><text fill="#000000" font-family="Inter" font-size="13" lengthAdjust="spacing" textLength="117.6982" x="1926.15" y="820.3766">(navmesh baking)</text></g><!--entity Detour\n(pathfinding)--><g class="entity" data-qualified-name="RecastNav.Detour.n.pathfinding." data-source-line="58" id="ent0024"><rect fill="#E8F0FE" height="60.2656" rx="2.5" ry="2.5" style="stroke:#1A73E8;stroke-width:0.5;" width="124.481" x="2103.76" y="773.1769"/><rect fill="#E8F0FE" height="10" style="stroke:#1A73E8;stroke-width:0.5;" width="15" x="2208.241" y="778.1769"/><rect fill="#E8F0FE" height="2" style="stroke:#1A73E8;stroke-width:0.5;" width="4" x="2206.241" y="780.1769"/><rect fill="#E8F0FE" height="2" style="stroke:#1A73E8;stroke-width:0.5;" width="4" x="2206.241" y="784.1769"/><text fill="#000000" font-family="Inter" font-size="13" lengthAdjust="spacing" textLength="44.6431" x="2118.76" y="805.2438">Detour</text><text fill="#000000" font-family="Inter" font-size="13" lengthAdjust="spacing" textLength="84.481" x="2118.76" y="820.3766">(pathfinding)</text></g><!--entity DetourTileCache\n(compressed tiles)--><g class="entity" data-qualified-name="RecastNav.DetourTileCache.n.compressed tiles." data-source-line="59" id="ent0025"><rect fill="#E8F0FE" height="60.2656" rx="2.5" ry="2.5" style="stroke:#1A73E8;stroke-width:0.5;" width="160.5229" x="1910.74" y="936.4369"/><rect fill="#E8F0FE" height="10" style="stroke:#1A73E8;stroke-width:0.5;" width="15" x="2051.2629" y="941.4369"/><rect fill="#E8F0FE" height="2" style="stroke:#1A73E8;stroke-width:0.5;" width="4" x="2049.2629" y="943.4369"/><rect fill="#E8F0FE" height="2" style="stroke:#1A73E8;stroke-width:0.5;" width="4" x="2049.2629" y="947.4369"/><text fill="#000000" font-family="Inter" font-size="13" lengthAdjust="spacing" textLength="108.2339" x="1925.74" y="968.5038">DetourTileCache</text><text fill="#000000" font-family="Inter" font-size="13" lengthAdjust="spacing" textLength="120.5229" x="1925.74" y="983.6366">(compressed tiles)</text></g><!--entity DetourCrowd\n(avoidance)--><g class="entity" data-qualified-name="RecastNav.DetourCrowd.n.avoidance." data-source-line="60" id="ent0026"><rect fill="#E8F0FE" height="60.2656" rx="2.5" ry="2.5" style="stroke:#1A73E8;stroke-width:0.5;" width="125.9028" x="2106.05" y="936.4369"/><rect fill="#E8F0FE" height="10" style="stroke:#1A73E8;stroke-width:0.5;" width="15" x="2211.9528" y="941.4369"/><rect fill="#E8F0FE" height="2" style="stroke:#1A73E8;stroke-width:0.5;" width="4" x="2209.9528" y="943.4369"/><rect fill="#E8F0FE" height="2" style="stroke:#1A73E8;stroke-width:0.5;" width="4" x="2209.9528" y="947.4369"/><text fill="#000000" font-family="Inter" font-size="13" lengthAdjust="spacing" textLength="85.9028" x="2121.05" y="968.5038">DetourCrowd</text><text fill="#000000" font-family="Inter" font-size="13" lengthAdjust="spacing" textLength="76.9717" x="2121.05" y="983.6366">(avoidance)</text></g><!--entity PyQt5 Baker GUI\n(Open3D preview)--><g class="entity" data-qualified-name="Tools.PyQt5 Baker GUI.n.Open3D preview." data-source-line="64" id="ent0028"><rect fill="#E8F0FE" height="60.2656" rx="2.5" ry="2.5" style="stroke:#1A73E8;stroke-width:0.5;" width="158.8091" x="2136.6" y="78.2969"/><rect fill="#E8F0FE" height="10" style="stroke:#1A73E8;stroke-width:0.5;" width="15" x="2275.4091" y="83.2969"/><rect fill="#E8F0FE" height="2" style="stroke:#1A73E8;stroke-width:0.5;" width="4" x="2273.4091" y="85.2969"/><rect fill="#E8F0FE" height="2" style="stroke:#1A73E8;stroke-width:0.5;" width="4" x="2273.4091" y="89.2969"/><text fill="#000000" font-family="Inter" font-size="13" lengthAdjust="spacing" textLength="108.5767" x="2151.6" y="110.3638">PyQt5 Baker GUI</text><text fill="#000000" font-family="Inter" font-size="13" lengthAdjust="spacing" textLength="118.8091" x="2151.6" y="125.4966">(Open3D preview)</text></g><!--entity CLI Baker\n(bake_tcbin.py)--><g class="entity" data-qualified-name="Tools.CLI Baker.n.bake_tcbin.py." data-source-line="65" id="ent0029"><rect fill="#E8F0FE" height="60.2656" rx="2.5" ry="2.5" style="stroke:#1A73E8;stroke-width:0.5;" width="140.8135" x="2330.59" y="78.2969"/><rect fill="#E8F0FE" height="10" style="stroke:#1A73E8;stroke-width:0.5;" width="15" x="2451.4035" y="83.2969"/><rect fill="#E8F0FE" height="2" style="stroke:#1A73E8;stroke-width:0.5;" width="4" x="2449.4035" y="85.2969"/><rect fill="#E8F0FE" height="2" style="stroke:#1A73E8;stroke-width:0.5;" width="4" x="2449.4035" y="89.2969"/><text fill="#000000" font-family="Inter" font-size="13" lengthAdjust="spacing" textLength="62.042" x="2345.59" y="110.3638">CLI Baker</text><text fill="#000000" font-family="Inter" font-size="13" lengthAdjust="spacing" textLength="100.8135" x="2345.59" y="125.4966">(bake_tcbin.py)</text></g><!--entity reorient_obj.py\n(Y/Z axis swap)--><g class="entity" data-qualified-name="Tools.reorient_obj.py.n.Y.Z axis swap." data-source-line="66" id="ent0030"><rect fill="#E8F0FE" height="60.2656" rx="2.5" ry="2.5" style="stroke:#1A73E8;stroke-width:0.5;" width="139.3027" x="2146.35" y="295.5669"/><rect fill="#E8F0FE" height="10" style="stroke:#1A73E8;stroke-width:0.5;" width="15" x="2265.6527" y="300.5669"/><rect fill="#E8F0FE" height="2" style="stroke:#1A73E8;stroke-width:0.5;" width="4" x="2263.6527" y="302.5669"/><rect fill="#E8F0FE" height="2" style="stroke:#1A73E8;stroke-width:0.5;" width="4" x="2263.6527" y="306.5669"/><text fill="#000000" font-family="Inter" font-size="13" lengthAdjust="spacing" textLength="97.9824" x="2161.35" y="327.6338">reorient_obj.py</text><text fill="#000000" font-family="Inter" font-size="13" lengthAdjust="spacing" textLength="99.3027" x="2161.35" y="342.7666">(Y/Z axis swap)</text></g><g class="entity" data-qualified-name="GMN38" data-source-line="78" id="ent0039"><path d="M1871.48,455.3569 L1871.48,516.5756 L2034.5293,516.5756 L2034.5293,465.3569 L2024.5293,455.3569 L1871.48,455.3569" fill="#FFF3E0" style="stroke:#E65100;stroke-width:0.5;"/><path d="M2024.5293,455.3569 L2024.5293,465.3569 L2034.5293,465.3569 L2024.5293,455.3569" fill="#FFF3E0" style="stroke:#E65100;stroke-width:1;"/><text fill="#000000" font-family="Inter" font-size="11" lengthAdjust="spacing" textLength="137.0703" x="1877.48" y="470.5673">O((2R+1)&#179;) hash lookups</text><text fill="#000000" font-family="Inter" font-size="11" lengthAdjust="spacing" textLength="113.9639" x="1877.48" y="483.372">per voxel. Early exit:</text><text fill="#000000" font-family="Inter" font-size="11" lengthAdjust="spacing" textLength="142.0493" x="1877.48" y="496.1767">most static points resolve</text><text fill="#000000" font-family="Inter" font-size="11" lengthAdjust="spacing" textLength="76.1997" x="1877.48" y="508.9814">in 1-2 probes.</text></g><g class="entity" data-qualified-name="GMN41" data-source-line="85" id="ent0042"><path d="M1870.64,301.4969 L1870.64,349.9109 L2105.3612,349.9109 L2105.3612,311.4969 L2095.3612,301.4969 L1870.64,301.4969" fill="#FFF3E0" style="stroke:#E65100;stroke-width:0.5;"/><path d="M2095.3612,301.4969 L2095.3612,311.4969 L2105.3612,311.4969 L2095.3612,301.4969" fill="#FFF3E0" style="stroke:#E65100;stroke-width:1;"/><text fill="#000000" font-family="Inter" font-size="11" lengthAdjust="spacing" textLength="213.4312" x="1876.64" y="316.7073">dyn_obstacle_source toggles between:</text><text fill="#000000" font-family="Inter" font-size="11" lengthAdjust="spacing" textLength="161.2456" x="1876.64" y="329.512">crowd &#8594; zero-velocity agents</text><text fill="#000000" font-family="Inter" font-size="11" lengthAdjust="spacing" textLength="213.7212" x="1876.64" y="342.3167">obstacle &#8594; cylinder tile cache injection</text></g><g class="entity" data-qualified-name="GMN44" data-source-line="91" id="ent0045"><path d="M2069.95,461.7569 L2069.95,510.1709 L2282.0481,510.1709 L2282.0481,471.7569 L2272.0481,461.7569 L2069.95,461.7569" fill="#FFF3E0" style="stroke:#E65100;stroke-width:0.5;"/><path d="M2272.0481,461.7569 L2272.0481,471.7569 L2282.0481,471.7569 L2272.0481,461.7569" fill="#FFF3E0" style="stroke:#E65100;stroke-width:1;"/><text fill="#000000" font-family="Inter" font-size="11" lengthAdjust="spacing" textLength="120.1191" x="2075.95" y="476.9673">Blender exports Z-up.</text><text fill="#000000" font-family="Inter" font-size="11" lengthAdjust="spacing" textLength="139.0576" x="2075.95" y="489.772">Recast/Detour uses Y-up.</text><text fill="#000000" font-family="Inter" font-size="11" lengthAdjust="spacing" textLength="191.0981" x="2075.95" y="502.5767">Conversion at every API boundary.</text></g><!--link VoxNode to VoxGrid--><g class="link" data-entity-1="ent0002" data-entity-2="ent0003" data-link-type="dependency" data-source-line="69" id="lnk31"><path d="M187.05,131.3269 C183.38,142.3469 179.32,156.0069 177,168.5669 C168.25,215.8569 166.396,267.3972 166.056,297.7772" fill="none" id="VoxNode-to-VoxGrid" style="stroke:#181818;stroke-width:1;"/><polygon fill="#181818" points="166,302.7769,170.1005,293.8222,166.056,297.7772,162.101,293.7327,166,302.7769" style="stroke:#181818;stroke-width:1;stroke-linejoin:miter;stroke-miterlimit:10;"/></g><!--link VoxGrid to MapSub--><g class="link" data-entity-1="ent0003" data-entity-2="ent0004" data-link-type="dependency" data-source-line="70" id="lnk32"><path d="M164.05,348.7069 C161.59,376.5669 157.7806,419.6663 155.0406,450.6363" fill="none" id="VoxGrid-to-MapSub" style="stroke:#181818;stroke-width:1;"/><polygon fill="#181818" points="154.6,455.6169,159.3776,447.0044,155.0406,450.6363,151.4087,446.2994,154.6,455.6169" style="stroke:#181818;stroke-width:1;stroke-linejoin:miter;stroke-miterlimit:10;"/></g><!--link MapSub to StaticMap--><g class="link" data-entity-1="ent0004" data-entity-2="ent0005" data-link-type="dependency" data-source-line="71" id="lnk33"><path d="M152,516.4469 C152,544.9969 152,582.9769 152,610.9369" fill="none" id="MapSub-to-StaticMap" style="stroke:#181818;stroke-width:1;"/><polygon fill="#181818" points="152,615.9369,156,606.9369,152,610.9369,148,606.9369,152,615.9369" style="stroke:#181818;stroke-width:1;stroke-linejoin:miter;stroke-miterlimit:10;"/></g><!--link VoxNode to CoSim--><g class="link" data-entity-1="ent0002" data-entity-2="ent0019" data-link-type="dependency" data-source-line="72" id="lnk34"><path d="M264.32,111.6269 C454.2,118.3069 972.32,141.1869 1027,193.5669 C1037.465,203.5919 1043.93,216.6244 1047.73,230.577 C1049.63,237.5534 1050.3547,262.0826 1051.0891,269.2581" fill="none" id="VoxNode-to-CoSim" style="stroke:#181818;stroke-width:1;"/><polygon fill="#181818" points="1051.5981,274.2321,1054.661,264.8716,1051.0891,269.2581,1046.7026,265.6861,1051.5981,274.2321" style="stroke:#181818;stroke-width:1;stroke-linejoin:miter;stroke-miterlimit:10;"/><text fill="#000000" font-family="Inter" font-size="13" lengthAdjust="spacing" textLength="184.1201" x="1008.7" y="181.6338">publishes /foreground_cloud</text></g><!--link CoSim to CTypes--><g class="link" data-entity-1="ent0019" data-entity-2="ent0014" data-link-type="dependency" data-source-line="73" id="lnk35"><path d="M1046,380.0815 C1046,380.2901 1046,380.499 1046,380.7082 C1046,382.3815 1046,384.0715 1046,385.7748 C1046,389.1815 1046,392.6412 1046,396.1264 C1046,403.097 1046,410.1695 1046,417.1234 C1046,431.0313 1046,439.4644 1046,450.6569" fill="none" id="CoSim-to-CTypes" style="stroke:#181818;stroke-width:1;"/><polygon fill="#181818" points="1046,455.6569,1050,446.6569,1046,450.6569,1042,446.6569,1046,455.6569" style="stroke:#181818;stroke-width:1;stroke-linejoin:miter;stroke-miterlimit:10;"/></g><!--link CTypes to Bridge--><g class="link" data-entity-1="ent0014" data-entity-2="ent0007" data-link-type="dependency" data-source-line="74" id="lnk36"><path d="M1134.3,489.3069 C1321.72,495.0969 1746.2,512.8169 1795,555.5769 C1798.7175,558.8331 1801.823,562.6223 1804.4107,566.7641 C1805.0577,567.7995 1805.6723,568.857 1806.256,569.9337 C1806.5478,570.472 1804.5777,588.849 1804.8543,589.3966" fill="none" id="CTypes-to-Bridge" style="stroke:#181818;stroke-width:1;"/><polygon fill="#181818" points="1807.1086,593.8596,1806.6212,584.0228,1804.8543,589.3966,1799.4804,587.6297,1807.1086,593.8596" style="stroke:#181818;stroke-width:1;stroke-linejoin:miter;stroke-miterlimit:10;"/></g><!--link Bridge to RecastNav--><g class="link" data-entity-1="ent0007" data-entity-2="ent0022" data-link-type="dependency" data-source-line="75" id="lnk37"><path d="M1823.2101,645.7634 C1823.4411,645.7658 1823.6766,645.7682 1823.9167,645.7707 C1824.3968,645.7758 1824.8951,645.7812 1825.4113,645.7871 C1827.4759,645.8106 1829.8261,645.8411 1832.4424,645.8804 C1842.9075,646.0377 1857.629,646.3372 1875.3536,646.9075 C1910.8028,648.0481 1958.2644,650.2719 2007.7113,654.6069 C2106.605,663.2769 2213.44,680.3919 2248,714.1769 C2251.5025,717.6006 2254.3853,721.5161 2256.7479,725.7504 C2257.3386,726.809 2257.8967,727.8876 2258.4239,728.9833 C2258.5557,729.2572 2256.5829,747.2927 2256.7109,747.5688" fill="none" id="Bridge-to-RecastNav" style="stroke:#181818;stroke-width:1;"/><polygon fill="#181818" points="2258.8135,752.1052,2258.6579,742.2576,2256.7109,747.5688,2251.3996,745.6218,2258.8135,752.1052" style="stroke:#181818;stroke-width:1;stroke-linejoin:miter;stroke-miterlimit:10;"/></g><!--link MapSub to GMN38--><g class="link" data-entity-1="ent0004" data-entity-2="ent0039" data-link-type="association" data-source-line="78" id="lnk40"><path d="M209.8,455.4469 C248.89,436.5769 302.34,414.1569 352.5,404.3269 C437.55,387.6769 1045.94,400.0369 1132.5,404.3269 C1403.8,417.7969 1723.69,456.1469 1871.1,475.0969" fill="none" id="MapSub-GMN38" style="stroke:#181818;stroke-width:1;stroke-dasharray:7,7;"/></g><!--link CoSim to GMN41--><g class="link" data-entity-1="ent0019" data-entity-2="ent0042" data-link-type="association" data-source-line="85" id="lnk43"><path d="M1056.1146,325.6969 C1057.1873,325.6969 1058.2601,325.6969 1059.3328,325.6969 C1063.6237,325.6969 1067.9147,325.6969 1072.2056,325.6969 C1080.7875,325.6969 1089.3693,325.6969 1097.9511,325.6969 C1115.1148,325.6969 1132.2785,325.6969 1149.4421,325.6969 C1183.7693,325.6969 1218.0964,325.6969 1252.4234,325.6969 C1321.0775,325.6969 1389.7312,325.6969 1458.385,325.6969 C1595.6925,325.6969 1733,325.6969 1870.31,325.6969" fill="none" id="CoSim-GMN41" style="stroke:#181818;stroke-width:1;stroke-dasharray:7,7;"/></g><!--link Coords to GMN44--><g class="link" data-entity-1="ent0018" data-entity-2="ent0045" data-link-type="association" data-source-line="91" id="lnk46"><path d="M450.83,455.4269 C470.9,435.4469 500.34,411.7269 532.5,404.3269 C573.16,394.9769 1993.84,394.9769 2034.5,404.3269 C2076.51,413.9969 2118.52,440.9569 2145.72,461.2769" fill="none" id="Coords-GMN44" style="stroke:#181818;stroke-width:1;stroke-dasharray:7,7;"/></g><?plantuml-src VLLTRkCs47xNAGRkYuF0IMnlzW_50ebYBuBcnnkd1R88O53IsEP69bMISg8MM_Hf3x3Oc_G6FKfEqY4fAPRYz4dKSERZp3T_-ewBZ2csWeZ5TmibSv64CfKAZ692qnKA4-XQAy4vorCpbi9Si1N2gJ2eDkvZkSga81luCm0uRc7-D7exFXYFx8rK2QfIsZzwCnoz9Qc5dV8_4Fh3uEi6QaOuR87RCSTaEpvfOxuR3b-DNZSmNpKm4sPOn3I-wEZXw5qRT31wSp8SD4073L0XpKjUZidFWpRWwFLX_-2W0TWdmC1maoBy9XymjS8BjbwXNiBZtpzWMcY3ApXIyP8RZ4skC0WgWZgPvCB4gSoJsRgqLj0DTtVXwd8AWvqEC5tZAkVgKyewjSbCo0GhtGiwD_KcuPa7-QXuKgdPSrFjd6KmpIEgfDXmAMv5DrnYLEWbhk6g9v0lbf7CrLBAn3j61gHF87LoEjemm-FPYcLadWj77YOpZUPdvy4lM7pmnbEdIH2Mm9eG2acmjQDWVrAOfHGj9eXRHqDjOSawfbZet1MU-5da_lUqz6RbjJLh1FpNy03mWJf2m6qdlEtSYgF9ASnpuUBNpfOaRRChZ9asCE4PiI-G0brQRioSOveyVlkUe64y1Uk9VzyRj65Eq12RjbZEIPDGCcQMy7kEYgFsXbvbk-4rJp5ayTA-dnI2hNWCCYB-uxGohrMs8uHAtYTaJJIIKFDLdZ8Rk3TsjsH8sTbWkyp96IjieSQcoAh7ofjd97iTYBX8k5Xe-vvQUDakADJsMBvuRQLj-v8VsA-O-aGC5SxWujoTsnRESrWnGHwhqhSgcePYpKzB-KNUGaa5pGMZgH5BiQPOFlVo31w__O0REfHXM2NzZBbGzgOrnM2RL9Vg97vEMvaEdCNMyraiIK3lkR-UprWcPRgHAu9v4QGgZ1h7K8WGkzZZWggOshJCusMaFTBNHcCgLyFKO7pX8-WkE1LD7graagUuMUXLYpvh6Ngtx51QNpI45pkTO4jTbgqmznMpNMUp-kqb5PB616nOUhj5NUrhoHCcOdAv4U0riKdF-SQXisx7C2a-cKFQ57TK-Hz_FIMeomp5y0JeyJN7-_QpuTcfroPD2XTd9gOcsCkAjg92IIql36Nf2rsJ-it-Ps0FN8E-PvdtinpiqEjzgATt-NMoSXRxZvCy3TXDMrzkxo7BevJJQDUmFvSA_VARkLKKU1sdxLlIVvp4pzAW7AbMKYSz2Dm-LNOMWfm_hOVBRdTmjTlV-VUV7LWoodugvLsUsHx9Y4otnlPWn5HQq3pcvZrTh2IDMBzDm6r9ROU5JDUsARc0Vcz0nCi8zLw08d6hlEs0YyEkfq8yTO2cMeWHZ5miKZkNqDmZ2lkaworgvkz0ArNsrfZAc9i2NBTPPoiCfrEr3Moq4XTVqEsE_t6f70x7AJfhVCYaek3i8DaZkMTplrmEkIONRygha4OEjQbjFcO0wLpOzGIHJHrJnGOH_m40?></g></svg>