<svg xmlns="http://www.w3.org/2000/svg" xmlns:xlink="http://www.w3.org/1999/xlink" contentStyleType="text/css" data-diagram-type="STATE" height="2039px" preserveAspectRatio="none" style="width:781px;height:2039px;" version="1.1" viewBox="0 0 781 2039" width="781px" zoomAndPan="magnify"><?plantuml 1.2026.6?><defs/><g><g class="title" data-source-line="14"><text fill="#000000" font-family="Inter" font-size="14" font-weight="700" lengthAdjust="spacing" textLength="382.375" x="195.9346" y="22.9951">Self-Overwriting OTA &#8212; Four Stage System Flow</text></g><g class="entity" data-qualified-name="S1" data-source-line="16" id="ent0001"><path d="M166.85,44.2969 L324.146,44.2969 A12.5,12.5 0 0 1 336.646,56.7969 L336.646,69.4297 L154.35,69.4297 L154.35,56.7969 A12.5,12.5 0 0 1 166.85,44.2969" fill="#E8F0FE"/><path d="M154.35,69.4297 L336.646,69.4297 L336.646,353.8581 A12.5,12.5 0 0 1 324.146,366.3581 L166.85,366.3581 A12.5,12.5 0 0 1 154.35,353.8581 L154.35,69.4297" fill="#E8F0FE"/><rect fill="none" height="322.0613" rx="12.5" ry="12.5" style="stroke:#1A73E8;stroke-width:0.5;" width="182.296" x="154.35" y="44.2969"/><line style="stroke:#1A73E8;stroke-width:0.5;" x1="154.35" x2="336.646" y1="69.4297" y2="69.4297"/><text fill="#000000" font-family="Inter" font-size="13" lengthAdjust="spacing" textLength="123.1001" x="183.9479" y="61.3638">Stage 1: Download</text><g class="entity" data-qualified-name="S1.wifi" data-source-line="17" id="ent0002"><rect fill="#E8F0FE" height="50.2656" rx="12.5" ry="12.5" style="stroke:#1A73E8;stroke-width:0.5;" width="113.6533" x="171.69" y="81.4297"/><line style="stroke:#1A73E8;stroke-width:0.5;" x1="171.69" x2="285.3433" y1="121.6953" y2="121.6953"/><text fill="#000000" font-family="Inter" font-size="13" lengthAdjust="spacing" textLength="93.6533" x="181.69" y="98.4966">WiFi.connect()</text><text fill="#000000" font-family="Inter" font-size="13" lengthAdjust="spacing" textLength="76.229" x="181.69" y="113.6294">(STA mode)</text></g><g class="entity" data-qualified-name="S1.http" data-source-line="18" id="ent0003"><rect fill="#E8F0FE" height="50.2656" rx="12.5" ry="12.5" style="stroke:#1A73E8;stroke-width:0.5;" width="102.3735" x="177.33" y="184.6997"/><line style="stroke:#1A73E8;stroke-width:0.5;" x1="177.33" x2="279.7035" y1="224.9653" y2="224.9653"/><text fill="#000000" font-family="Inter" font-size="13" lengthAdjust="spacing" textLength="63.8574" x="187.33" y="201.7666">HTTP GET</text><text fill="#000000" font-family="Inter" font-size="13" lengthAdjust="spacing" textLength="82.3735" x="187.33" y="216.8994">firmware.bin</text></g><g class="entity" data-qualified-name="S1.psram" data-source-line="19" id="ent0004"><rect fill="#E8F0FE" height="65.3984" rx="12.5" ry="12.5" style="stroke:#1A73E8;stroke-width:0.5;" width="124.3364" x="166.35" y="287.9597"/><line style="stroke:#1A73E8;stroke-width:0.5;" x1="166.35" x2="290.6864" y1="343.3581" y2="343.3581"/><text fill="#000000" font-family="Inter" font-size="13" lengthAdjust="spacing" textLength="74.623" x="176.35" y="305.0266">ps_malloc()</text><text fill="#000000" font-family="Inter" font-size="13" lengthAdjust="spacing" textLength="104.3364" x="176.35" y="320.1594">buffer in PSRAM</text><text fill="#000000" font-family="Inter" font-size="13" lengthAdjust="spacing" textLength="81.8975" x="176.35" y="335.2922">(~4MB max)</text></g><!--link wifi to http--><g class="link" data-entity-1="ent0002" data-entity-2="ent0003" data-link-type="dependency" data-source-line="21" id="lnk22"><path d="M228.52,132.0797 C228.52,147.9997 228.52,163.6597 228.52,179.5397" fill="none" id="wifi-to-http" style="stroke:#181818;stroke-width:1;"/><polygon fill="#181818" points="228.52,184.5397,232.52,175.5397,228.52,179.5397,224.52,175.5397,228.52,184.5397" style="stroke:#181818;stroke-width:1;stroke-linejoin:miter;stroke-miterlimit:10;"/><text fill="#000000" font-family="Inter" font-size="13" lengthAdjust="spacing" textLength="68.0723" x="229.52" y="162.7666">connected</text></g><!--link http to psram--><g class="link" data-entity-1="ent0003" data-entity-2="ent0004" data-link-type="dependency" data-source-line="22" id="lnk23"><path d="M228.52,235.2497 C228.52,250.6697 228.52,265.7597 228.52,282.4697" fill="none" id="http-to-psram" style="stroke:#181818;stroke-width:1;"/><polygon fill="#181818" points="228.52,287.4697,232.52,278.4697,228.52,282.4697,224.52,278.4697,228.52,287.4697" style="stroke:#181818;stroke-width:1;stroke-linejoin:miter;stroke-miterlimit:10;"/><text fill="#000000" font-family="Inter" font-size="13" lengthAdjust="spacing" textLength="82.126" x="229.52" y="266.0266">stream body</text></g></g><g class="entity" data-qualified-name="S2" data-source-line="25" id="ent0005"><path d="M140,443.3669 L350.9814,443.3669 A12.5,12.5 0 0 1 363.4814,455.8669 L363.4814,468.4997 L127.5,468.4997 L127.5,455.8669 A12.5,12.5 0 0 1 140,443.3669" fill="#E8F0FE"/><path d="M127.5,468.4997 L363.4814,468.4997 L363.4814,876.3253 A12.5,12.5 0 0 1 350.9814,888.8253 L140,888.8253 A12.5,12.5 0 0 1 127.5,876.3253 L127.5,468.4997" fill="#E8F0FE"/><rect fill="none" height="445.4584" rx="12.5" ry="12.5" style="stroke:#1A73E8;stroke-width:0.5;" width="235.9814" x="127.5" y="443.3669"/><line style="stroke:#1A73E8;stroke-width:0.5;" x1="127.5" x2="363.4814" y1="468.4997" y2="468.4997"/><text fill="#000000" font-family="Inter" font-size="13" lengthAdjust="spacing" textLength="175.4175" x="157.782" y="460.4338">Stage 2: System Teardown</text><g class="entity" data-qualified-name="S2.nowifi" data-source-line="26" id="ent0006"><rect fill="#E8F0FE" height="50.2656" rx="12.5" ry="12.5" style="stroke:#1A73E8;stroke-width:0.5;" width="158.3853" x="160.3" y="480.4997"/><line style="stroke:#1A73E8;stroke-width:0.5;" x1="160.3" x2="318.6853" y1="520.7653" y2="520.7653"/><text fill="#000000" font-family="Inter" font-size="13" lengthAdjust="spacing" textLength="138.3853" x="170.3" y="497.5666">WiFi.mode(WIFI_OFF)</text><text fill="#000000" font-family="Inter" font-size="13" lengthAdjust="spacing" textLength="112.29" x="170.3" y="512.6994">WiFi.disconnect()</text></g><g class="entity" data-qualified-name="S2.park" data-source-line="27" id="ent0007"><rect fill="#E8F0FE" height="50.2656" rx="12.5" ry="12.5" style="stroke:#1A73E8;stroke-width:0.5;" width="158.8423" x="160.07" y="566.7697"/><line style="stroke:#1A73E8;stroke-width:0.5;" x1="160.07" x2="318.9123" y1="607.0353" y2="607.0353"/><text fill="#000000" font-family="Inter" font-size="13" lengthAdjust="spacing" textLength="138.8423" x="170.07" y="583.8366">esp_ipc_call(CORE_1)</text><text fill="#000000" font-family="Inter" font-size="13" lengthAdjust="spacing" textLength="114.0864" x="170.07" y="598.9694">park in IRAM loop</text></g><g class="entity" data-qualified-name="S2.suspend" data-source-line="28" id="ent0008"><rect fill="#E8F0FE" height="50.2656" rx="12.5" ry="12.5" style="stroke:#1A73E8;stroke-width:0.5;" width="142.2622" x="168.36" y="653.0297"/><line style="stroke:#1A73E8;stroke-width:0.5;" x1="168.36" x2="310.6222" y1="693.2953" y2="693.2953"/><text fill="#000000" font-family="Inter" font-size="13" lengthAdjust="spacing" textLength="120.1675" x="178.36" y="670.0966">vTaskSuspendAll()</text><text fill="#000000" font-family="Inter" font-size="13" lengthAdjust="spacing" textLength="122.2622" x="178.36" y="685.2294">suspend scheduler</text></g><g class="entity" data-qualified-name="S2.noint" data-source-line="29" id="ent0009"><rect fill="#E8F0FE" height="50.2656" rx="12.5" ry="12.5" style="stroke:#1A73E8;stroke-width:0.5;" width="195.4429" x="141.77" y="739.2997"/><line style="stroke:#1A73E8;stroke-width:0.5;" x1="141.77" x2="337.2129" y1="779.5653" y2="779.5653"/><text fill="#000000" font-family="Inter" font-size="13" lengthAdjust="spacing" textLength="175.4429" x="151.77" y="756.3666">esp_intr_noniram_disable()</text><text fill="#000000" font-family="Inter" font-size="13" lengthAdjust="spacing" textLength="149.8936" x="151.77" y="771.4994">disable flash interrupts</text></g><g class="entity" data-qualified-name="S2.core0off" data-source-line="30" id="ent0010"><rect fill="#E8F0FE" height="50.2656" rx="12.5" ry="12.5" style="stroke:#1A73E8;stroke-width:0.5;" width="199.9814" x="139.5" y="825.5597"/><line style="stroke:#1A73E8;stroke-width:0.5;" x1="139.5" x2="339.4814" y1="865.8253" y2="865.8253"/><text fill="#000000" font-family="Inter" font-size="13" lengthAdjust="spacing" textLength="179.9814" x="149.5" y="842.6266">portDISABLE_INTERRUPTS()</text><text fill="#000000" font-family="Inter" font-size="13" lengthAdjust="spacing" textLength="56.2974" x="149.5" y="857.7594">this core</text></g><!--link nowifi to park--><g class="link" data-entity-1="ent0006" data-entity-2="ent0007" data-link-type="dependency" data-source-line="32" id="lnk24"><path d="M239.49,531.0097 C239.49,542.0897 239.49,550.1797 239.49,561.2897" fill="none" id="nowifi-to-park" style="stroke:#181818;stroke-width:1;"/><polygon fill="#181818" points="239.49,566.2897,243.49,557.2897,239.49,561.2897,235.49,557.2897,239.49,566.2897" style="stroke:#181818;stroke-width:1;stroke-linejoin:miter;stroke-miterlimit:10;"/></g><!--link park to suspend--><g class="link" data-entity-1="ent0007" data-entity-2="ent0008" data-link-type="dependency" data-source-line="33" id="lnk25"><path d="M239.49,617.2697 C239.49,628.3597 239.49,636.4397 239.49,647.5597" fill="none" id="park-to-suspend" style="stroke:#181818;stroke-width:1;"/><polygon fill="#181818" points="239.49,652.5597,243.49,643.5597,239.49,647.5597,235.49,643.5597,239.49,652.5597" style="stroke:#181818;stroke-width:1;stroke-linejoin:miter;stroke-miterlimit:10;"/></g><!--link suspend to noint--><g class="link" data-entity-1="ent0008" data-entity-2="ent0009" data-link-type="dependency" data-source-line="34" id="lnk26"><path d="M239.49,703.5397 C239.49,714.6197 239.49,722.7097 239.49,733.8197" fill="none" id="suspend-to-noint" style="stroke:#181818;stroke-width:1;"/><polygon fill="#181818" points="239.49,738.8197,243.49,729.8197,239.49,733.8197,235.49,729.8197,239.49,738.8197" style="stroke:#181818;stroke-width:1;stroke-linejoin:miter;stroke-miterlimit:10;"/></g><!--link noint to core0off--><g class="link" data-entity-1="ent0009" data-entity-2="ent0010" data-link-type="dependency" data-source-line="35" id="lnk27"><path d="M239.49,789.7997 C239.49,800.8897 239.49,808.9797 239.49,820.0897" fill="none" id="noint-to-core0off" style="stroke:#181818;stroke-width:1;"/><polygon fill="#181818" points="239.49,825.0897,243.49,816.0897,239.49,820.0897,235.49,816.0897,239.49,825.0897" style="stroke:#181818;stroke-width:1;stroke-linejoin:miter;stroke-miterlimit:10;"/></g></g><g class="entity" data-qualified-name="S3" data-source-line="38" id="ent0011"><path d="M19.5,980.8169 L471.487,980.8169 A12.5,12.5 0 0 1 483.987,993.3169 L483.987,1021.0825 L7,1021.0825 L7,993.3169 A12.5,12.5 0 0 1 19.5,980.8169" fill="#E8F0FE"/><path d="M7,1021.0825 L483.987,1021.0825 L483.987,1463.1681 A12.5,12.5 0 0 1 471.487,1475.6681 L19.5,1475.6681 A12.5,12.5 0 0 1 7,1463.1681 L7,1021.0825" fill="#E8F0FE"/><rect fill="none" height="494.8513" rx="12.5" ry="12.5" style="stroke:#1A73E8;stroke-width:0.5;" width="476.987" x="7" y="980.8169"/><line style="stroke:#1A73E8;stroke-width:0.5;" x1="7" x2="483.987" y1="1021.0825" y2="1021.0825"/><text fill="#000000" font-family="Inter" font-size="13" lengthAdjust="spacing" textLength="183.9614" x="153.5128" y="997.8838">Stage 3: IRAM Flash Routine</text><text fill="#000000" font-family="Inter" font-size="13" lengthAdjust="spacing" textLength="198.4531" x="146.2669" y="1013.0166">(IRAM_ATTR, no cache access)</text><g class="entity" data-qualified-name="S3.on" data-source-line="39" id="ent0012"><rect fill="#E8F0FE" height="65.3984" rx="12.5" ry="12.5" style="stroke:#1A73E8;stroke-width:0.5;" width="184.0933" x="118.54" y="1033.0825"/><line style="stroke:#1A73E8;stroke-width:0.5;" x1="118.54" x2="302.6333" y1="1088.4809" y2="1088.4809"/><text fill="#000000" font-family="Inter" font-size="13" lengthAdjust="spacing" textLength="68.8975" x="128.54" y="1050.1494">Cache ON:</text><text fill="#000000" font-family="Inter" font-size="13" lengthAdjust="spacing" textLength="164.0933" x="128.54" y="1065.2822">memcpy PSRAM &#8594; DRAM</text><text fill="#000000" font-family="Inter" font-size="13" lengthAdjust="spacing" textLength="79.3838" x="128.54" y="1080.415">(4KB chunk)</text></g><g class="entity" data-qualified-name="S3.off" data-source-line="40" id="ent0013"><rect fill="#E8F0FE" height="50.2656" rx="12.5" ry="12.5" style="stroke:#1A73E8;stroke-width:0.5;" width="205.7769" x="38.7" y="1135.4725"/><line style="stroke:#1A73E8;stroke-width:0.5;" x1="38.7" x2="244.4769" y1="1175.7381" y2="1175.7381"/><text fill="#000000" font-family="Inter" font-size="13" lengthAdjust="spacing" textLength="185.7769" x="48.7" y="1152.5394">Cache_Read_Disable_rom(0)</text><text fill="#000000" font-family="Inter" font-size="13" lengthAdjust="spacing" textLength="67.8184" x="48.7" y="1167.6722">cache OFF</text></g><g class="entity" data-qualified-name="S3.romwrite" data-source-line="41" id="ent0014"><rect fill="#E8F0FE" height="65.3984" rx="12.5" ry="12.5" style="stroke:#1A73E8;stroke-width:0.5;" width="221.1826" x="19" y="1222.7425"/><line style="stroke:#1A73E8;stroke-width:0.5;" x1="19" x2="240.1826" y1="1278.1409" y2="1278.1409"/><text fill="#000000" font-family="Inter" font-size="13" lengthAdjust="spacing" textLength="201.1826" x="29" y="1239.8094">esp_rom_spiflash_erase_sector</text><text fill="#000000" font-family="Inter" font-size="13" lengthAdjust="spacing" textLength="165.9976" x="29" y="1254.9422">+ esp_rom_spiflash_write</text><text fill="#000000" font-family="Inter" font-size="13" lengthAdjust="spacing" textLength="104.6348" x="29" y="1270.075">(ROM functions)</text></g><g class="entity" data-qualified-name="S3.enable" data-source-line="42" id="ent0015"><rect fill="#E8F0FE" height="50.2656" rx="12.5" ry="12.5" style="stroke:#1A73E8;stroke-width:0.5;" width="201.835" x="42.67" y="1325.1425"/><line style="stroke:#1A73E8;stroke-width:0.5;" x1="42.67" x2="244.505" y1="1365.4081" y2="1365.4081"/><text fill="#000000" font-family="Inter" font-size="13" lengthAdjust="spacing" textLength="181.835" x="52.67" y="1342.2094">Cache_Read_Enable_rom(0)</text><text fill="#000000" font-family="Inter" font-size="13" lengthAdjust="spacing" textLength="62.5879" x="52.67" y="1357.3422">cache ON</text></g><g class="entity" data-qualified-name="S3.next" data-source-line="43" id="ent0016"><rect fill="#E8F0FE" height="50.2656" rx="12.5" ry="12.5" style="stroke:#1A73E8;stroke-width:0.5;" width="93.4741" x="162.85" y="1412.4025"/><line style="stroke:#1A73E8;stroke-width:0.5;" x1="162.85" x2="256.3241" y1="1452.6681" y2="1452.6681"/><text fill="#000000" font-family="Inter" font-size="13" lengthAdjust="spacing" textLength="73.3726" x="172.85" y="1429.4694">Advance to</text><text fill="#000000" font-family="Inter" font-size="13" lengthAdjust="spacing" textLength="73.4741" x="172.85" y="1444.6022">next sector</text></g><!--link on to off--><g class="link" data-entity-1="ent0012" data-entity-2="ent0013" data-link-type="dependency" data-source-line="45" id="lnk28"><path d="M186.85,1098.7225 C177.96,1110.6825 170.9921,1120.0492 162.6921,1131.2192" fill="none" id="on-to-off" style="stroke:#181818;stroke-width:1;"/><polygon fill="#181818" points="159.71,1135.2325,168.2885,1130.3942,162.6921,1131.2192,161.8672,1125.6228,159.71,1135.2325" style="stroke:#181818;stroke-width:1;stroke-linejoin:miter;stroke-miterlimit:10;"/></g><!--link off to romwrite--><g class="link" data-entity-1="ent0013" data-entity-2="ent0014" data-link-type="dependency" data-source-line="46" id="lnk29"><path d="M138.44,1186.0025 C136.99,1197.1725 135.8985,1205.6034 134.3585,1217.5634" fill="none" id="off-to-romwrite" style="stroke:#181818;stroke-width:1;"/><polygon fill="#181818" points="133.72,1222.5225,138.8366,1214.107,134.3585,1217.5634,130.9021,1213.0854,133.72,1222.5225" style="stroke:#181818;stroke-width:1;stroke-linejoin:miter;stroke-miterlimit:10;"/></g><!--link romwrite to enable--><g class="link" data-entity-1="ent0014" data-entity-2="ent0015" data-link-type="dependency" data-source-line="47" id="lnk30"><path d="M134.41,1288.3925 C136.21,1300.3425 137.4857,1308.7882 139.1657,1319.9482" fill="none" id="romwrite-to-enable" style="stroke:#181818;stroke-width:1;"/><polygon fill="#181818" points="139.91,1324.8925,142.5257,1315.3973,139.1657,1319.9482,134.6148,1316.5882,139.91,1324.8925" style="stroke:#181818;stroke-width:1;stroke-linejoin:miter;stroke-miterlimit:10;"/></g><!--link enable to next--><g class="link" data-entity-1="ent0015" data-entity-2="ent0016" data-link-type="dependency" data-source-line="48" id="lnk31"><path d="M162.33,1375.4825 C171.17,1386.9025 178.6375,1396.5602 187.5175,1408.0202" fill="none" id="enable-to-next" style="stroke:#181818;stroke-width:1;"/><polygon fill="#181818" points="190.58,1411.9725,188.2293,1402.4083,187.5175,1408.0202,181.9056,1407.3083,190.58,1411.9725" style="stroke:#181818;stroke-width:1;stroke-linejoin:miter;stroke-miterlimit:10;"/></g><!--link next to on--><g class="link" data-entity-1="ent0016" data-entity-2="ent0012" data-link-type="dependency" data-source-line="49" id="lnk32"><path d="M243.09,1411.9825 C259.84,1396.6925 276.59,1375.3725 276.59,1351.2725 C276.59,1159.6125 276.59,1159.6125 276.59,1159.6125 C276.59,1136.4725 266.1832,1118.7832 251.2032,1102.3932" fill="none" id="next-to-on" style="stroke:#181818;stroke-width:1;"/><polygon fill="#181818" points="247.83,1098.7025,250.9492,1108.0444,251.2032,1102.3932,256.8544,1102.6472,247.83,1098.7025" style="stroke:#181818;stroke-width:1;stroke-linejoin:miter;stroke-miterlimit:10;"/><text fill="#000000" font-family="Inter" font-size="13" lengthAdjust="spacing" textLength="181.397" x="277.59" y="1260.0094">loop until all sectors written</text></g></g><g class="entity" data-qualified-name="S4" data-source-line="52" id="ent0017"><path d="M161.46,1552.6769 L329.5186,1552.6769 A12.5,12.5 0 0 1 342.0186,1565.1769 L342.0186,1577.8097 L148.96,1577.8097 L148.96,1565.1769 A12.5,12.5 0 0 1 161.46,1552.6769" fill="#E8F0FE"/><path d="M148.96,1577.8097 L342.0186,1577.8097 L342.0186,1899.3653 A12.5,12.5 0 0 1 329.5186,1911.8653 L161.46,1911.8653 A12.5,12.5 0 0 1 148.96,1899.3653 L148.96,1577.8097" fill="#E8F0FE"/><rect fill="none" height="359.1884" rx="12.5" ry="12.5" style="stroke:#1A73E8;stroke-width:0.5;" width="193.0586" x="148.96" y="1552.6769"/><line style="stroke:#1A73E8;stroke-width:0.5;" x1="148.96" x2="342.0186" y1="1577.8097" y2="1577.8097"/><text fill="#000000" font-family="Inter" font-size="13" lengthAdjust="spacing" textLength="104.7681" x="193.1053" y="1569.7438">Stage 4: Reboot</text><g class="entity" data-qualified-name="S4.wdt" data-source-line="53" id="ent0018"><rect fill="#E8F0FE" height="50.2656" rx="12.5" ry="12.5" style="stroke:#1A73E8;stroke-width:0.5;" width="157.0586" x="160.96" y="1589.8097"/><line style="stroke:#1A73E8;stroke-width:0.5;" x1="160.96" x2="318.0186" y1="1630.0753" y2="1630.0753"/><text fill="#000000" font-family="Inter" font-size="13" lengthAdjust="spacing" textLength="113.3311" x="170.96" y="1606.8766">Reconfigure WDT</text><text fill="#000000" font-family="Inter" font-size="13" lengthAdjust="spacing" textLength="137.0586" x="170.96" y="1622.0094">stg0 = System Reset</text></g><g class="entity" data-qualified-name="S4.timeout" data-source-line="54" id="ent0019"><rect fill="#E8F0FE" height="50.2656" rx="12.5" ry="12.5" style="stroke:#1A73E8;stroke-width:0.5;" width="70.6606" x="204.16" y="1676.0697"/><line style="stroke:#1A73E8;stroke-width:0.5;" x1="204.16" x2="274.8206" y1="1716.3353" y2="1716.3353"/><text fill="#000000" font-family="Inter" font-size="13" lengthAdjust="spacing" textLength="43.9893" x="214.16" y="1693.1366">100 &#956;s</text><text fill="#000000" font-family="Inter" font-size="13" lengthAdjust="spacing" textLength="50.6606" x="214.16" y="1708.2694">timeout</text></g><g class="entity" data-qualified-name="S4.reset" data-source-line="55" id="ent0020"><rect fill="#E8F0FE" height="50.2656" rx="12.5" ry="12.5" style="stroke:#1A73E8;stroke-width:0.5;" width="98.2666" x="190.36" y="1762.3397"/><line style="stroke:#1A73E8;stroke-width:0.5;" x1="190.36" x2="288.6266" y1="1802.6053" y2="1802.6053"/><text fill="#000000" font-family="Inter" font-size="13" lengthAdjust="spacing" textLength="78.2666" x="200.36" y="1779.4066">WDT fires &#8594;</text><text fill="#000000" font-family="Inter" font-size="13" lengthAdjust="spacing" textLength="63.394" x="200.36" y="1794.5394">RTC reset</text></g><g class="entity" data-qualified-name="S4.boot" data-source-line="56" id="ent0021"><rect fill="#E8F0FE" height="50.2656" rx="12.5" ry="12.5" style="stroke:#1A73E8;stroke-width:0.5;" width="109.1401" x="184.92" y="1848.5997"/><line style="stroke:#1A73E8;stroke-width:0.5;" x1="184.92" x2="294.0601" y1="1888.8653" y2="1888.8653"/><text fill="#000000" font-family="Inter" font-size="13" lengthAdjust="spacing" textLength="81.0088" x="194.92" y="1865.6666">ESP32 boots</text><text fill="#000000" font-family="Inter" font-size="13" lengthAdjust="spacing" textLength="89.1401" x="194.92" y="1880.7994">new firmware</text></g><!--link wdt to timeout--><g class="link" data-entity-1="ent0018" data-entity-2="ent0019" data-link-type="dependency" data-source-line="58" id="lnk33"><path d="M239.49,1640.3097 C239.49,1651.3997 239.49,1659.4797 239.49,1670.5997" fill="none" id="wdt-to-timeout" style="stroke:#181818;stroke-width:1;"/><polygon fill="#181818" points="239.49,1675.5997,243.49,1666.5997,239.49,1670.5997,235.49,1666.5997,239.49,1675.5997" style="stroke:#181818;stroke-width:1;stroke-linejoin:miter;stroke-miterlimit:10;"/></g><!--link timeout to reset--><g class="link" data-entity-1="ent0019" data-entity-2="ent0020" data-link-type="dependency" data-source-line="59" id="lnk34"><path d="M239.49,1726.5797 C239.49,1737.6597 239.49,1745.7497 239.49,1756.8597" fill="none" id="timeout-to-reset" style="stroke:#181818;stroke-width:1;"/><polygon fill="#181818" points="239.49,1761.8597,243.49,1752.8597,239.49,1756.8597,235.49,1752.8597,239.49,1761.8597" style="stroke:#181818;stroke-width:1;stroke-linejoin:miter;stroke-miterlimit:10;"/></g><!--link reset to boot--><g class="link" data-entity-1="ent0020" data-entity-2="ent0021" data-link-type="dependency" data-source-line="60" id="lnk35"><path d="M239.49,1812.8397 C239.49,1823.9297 239.49,1832.0197 239.49,1843.1297" fill="none" id="reset-to-boot" style="stroke:#181818;stroke-width:1;"/><polygon fill="#181818" points="239.49,1848.1297,243.49,1839.1297,239.49,1843.1297,235.49,1839.1297,239.49,1848.1297" style="stroke:#181818;stroke-width:1;stroke-linejoin:miter;stroke-miterlimit:10;"/></g></g><g class="entity" data-qualified-name="GMN39" data-source-line="68" id="ent0040"><path d="M398.52,633.1569 L398.52,662.0869 L363.64,666.0869 L398.52,670.0869 L398.52,699.0319 A0,0 0 0 0 398.52,699.0319 L594.4634,699.0319 A0,0 0 0 0 594.4634,699.0319 L594.4634,643.1569 L584.4634,633.1569 L398.52,633.1569 A0,0 0 0 0 398.52,633.1569" fill="#FFF3E0" style="stroke:#E65100;stroke-width:0.5;"/><path d="M584.4634,633.1569 L584.4634,643.1569 L594.4634,643.1569 L584.4634,633.1569" fill="#FFF3E0" style="stroke:#E65100;stroke-width:0.5;"/><text fill="#000000" font-family="Inter" font-size="12" lengthAdjust="spacing" textLength="103.1543" x="404.52" y="649.2955">Critical invariant:</text><text fill="#000000" font-family="Inter" font-size="12" lengthAdjust="spacing" textLength="174.1641" x="404.52" y="663.2643">Both cores must never touch</text><text fill="#000000" font-family="Inter" font-size="12" lengthAdjust="spacing" textLength="174.9434" x="404.52" y="677.233">flash while cache is disabled.</text><text fill="#000000" font-family="Inter" font-size="12" lengthAdjust="spacing" textLength="127.1836" x="404.52" y="691.2018">Core 1 spins in IRAM.</text></g><g class="entity" data-qualified-name="GMN42" data-source-line="75" id="ent0043"><path d="M518.75,1188.3269 L518.75,1224.2469 L484.31,1228.2469 L518.75,1232.2469 L518.75,1268.1706 A0,0 0 0 0 518.75,1268.1706 L766.2441,1268.1706 A0,0 0 0 0 766.2441,1268.1706 L766.2441,1198.3269 L756.2441,1188.3269 L518.75,1188.3269 A0,0 0 0 0 518.75,1188.3269" fill="#FFF3E0" style="stroke:#E65100;stroke-width:0.5;"/><path d="M756.2441,1188.3269 L756.2441,1198.3269 L766.2441,1198.3269 L756.2441,1188.3269" fill="#FFF3E0" style="stroke:#E65100;stroke-width:0.5;"/><text fill="#000000" font-family="Inter" font-size="12" lengthAdjust="spacing" textLength="221.25" x="524.75" y="1204.4655">PSRAM inaccessible when cache OFF</text><text fill="#000000" font-family="Inter" font-size="12" lengthAdjust="spacing" textLength="163.9336" x="524.75" y="1218.4343">&#8594; DRAM_ATTR buffer [4KB]</text><text fill="#000000" font-family="Inter" font-size="12" lengthAdjust="spacing" textLength="98.4785" x="524.75" y="1232.403">bridges the gap.</text><text fill="#000000" font-family="Inter" font-size="12" lengthAdjust="spacing" textLength="158.2617" x="524.75" y="1246.3718">ets_printf() for diagnostics</text><text fill="#000000" font-family="Inter" font-size="12" lengthAdjust="spacing" textLength="226.4941" x="524.75" y="1260.3405">(ROM function, DRAM format strings).</text></g><g class="entity" data-qualified-name="GMN45" data-source-line="83" id="ent0046"><path d="M139.42,1972.8569 L139.42,2024.7631 A0,0 0 0 0 139.42,2024.7631 L351.5645,2024.7631 A0,0 0 0 0 351.5645,2024.7631 L351.5645,1982.8569 L341.5645,1972.8569 L249.49,1972.8569 L245.49,1912.2869 L241.49,1972.8569 L139.42,1972.8569 A0,0 0 0 0 139.42,1972.8569" fill="#FFF3E0" style="stroke:#E65100;stroke-width:0.5;"/><path d="M341.5645,1972.8569 L341.5645,1982.8569 L351.5645,1982.8569 L341.5645,1972.8569" fill="#FFF3E0" style="stroke:#E65100;stroke-width:0.5;"/><text fill="#000000" font-family="Inter" font-size="12" lengthAdjust="spacing" textLength="115.7871" x="145.42" y="1988.9955">No return to loop().</text><text fill="#000000" font-family="Inter" font-size="12" lengthAdjust="spacing" textLength="124.3535" x="145.42" y="2002.9643">No rollback possible.</text><text fill="#000000" font-family="Inter" font-size="12" lengthAdjust="spacing" textLength="191.1445" x="145.42" y="2016.933">Power loss during write = brick.</text></g><!--link S1 to S2--><g class="link" data-entity-1="ent0001" data-entity-2="ent0005" data-link-type="dependency" data-source-line="63" id="lnk36"><path d="M245.49,366.7869 C245.49,391.4569 245.49,412.3069 245.49,438.0369" fill="none" id="S1-to-S2" style="stroke:#181818;stroke-width:1;"/><polygon fill="#181818" points="245.49,443.0369,249.49,434.0369,245.49,438.0369,241.49,434.0369,245.49,443.0369" style="stroke:#181818;stroke-width:1;stroke-linejoin:miter;stroke-miterlimit:10;"/><text fill="#000000" font-family="Inter" font-size="13" lengthAdjust="spacing" textLength="179.8545" x="246.49" y="409.4338">all bytes buffered in PSRAM</text></g><!--link S2 to S3--><g class="link" data-entity-1="ent0005" data-entity-2="ent0011" data-link-type="dependency" data-source-line="64" id="lnk37"><path d="M245.49,889.2869 C245.49,919.2169 245.49,945.0769 245.49,975.4069" fill="none" id="S2-to-S3" style="stroke:#181818;stroke-width:1;"/><polygon fill="#181818" points="245.49,980.4069,249.49,971.4069,245.49,975.4069,241.49,971.4069,245.49,980.4069" style="stroke:#181818;stroke-width:1;stroke-linejoin:miter;stroke-miterlimit:10;"/><text fill="#000000" font-family="Inter" font-size="13" lengthAdjust="spacing" textLength="113.5342" x="271.8267" y="931.8838">system quiesced,</text><text fill="#000000" font-family="Inter" font-size="13" lengthAdjust="spacing" textLength="164.2075" x="246.49" y="947.0166">single-core, no interrupts</text></g><!--link S3 to S4--><g class="link" data-entity-1="ent0011" data-entity-2="ent0017" data-link-type="dependency" data-source-line="65" id="lnk38"><path d="M245.49,1475.8469 C245.49,1501.6369 245.49,1522.4869 245.49,1547.3069" fill="none" id="S3-to-S4" style="stroke:#181818;stroke-width:1;"/><polygon fill="#181818" points="245.49,1552.3069,249.49,1543.3069,245.49,1547.3069,241.49,1543.3069,245.49,1552.3069" style="stroke:#181818;stroke-width:1;stroke-linejoin:miter;stroke-miterlimit:10;"/><text fill="#000000" font-family="Inter" font-size="13" lengthAdjust="spacing" textLength="118.0474" x="246.49" y="1518.7438">last sector written</text></g><?plantuml-src TLPTRkCs47xNAGRR5mTD33jssuM1BU34KckqYGD9HHxgGg2baKrO8bMIYZSjTj6d7g3eSNg67c9FqY4f_yJPliJK_7oS-UQ7qLik6gPO3IkMRzTAjgAubPLKO1GJcbGeJA0FLWMMhArC98MvPpN2N1XK9tfjc47uFG2uESFx8dmR3QBGQgGgK7NIuVIRKVYMf1OouRyX34V1XnD48VyFC8gYKJWu1mo__ceu6Bm0l2R0m71J8IHObLUB9rGxnGqNQrYaK_ZqnzzatIf835kJpRCsM4DKoLqG-8JUUCrm0ZEv4vLanHjW6fAXYwopUUGHx-TI2CnDxs8fUWbXrxB02sUyuoK_6d-VfW_mNPWkHSbLlIEU-oikdE76cEPesEYiPbKbSmkvQiiI5N013qaylQCxFexlRg1cx_qTZIRA0dAsby7LrRSE32RGXOK5wPp8wfmrARLHQ3j05i-MgHSfNq_sVAJ8L47P-yolNsLkC-qzpgDvjeWYYjK92wuFZ3X78L_oWBh9U9DdEUNOkrt4OJOaNohzrcOvfoIXahBnsP7qwFcKChrDMjsWAARaJ6xQVu7EDrYq5IhdradFxXH6PK8AJXHa52LRLMWXkYEK5TCR2e7QMxMDqLtm93WfZLHcDa-cDp-6sVm-3UFufuSqiIXcmpLnhj2vsSD0bgKjZC_Vq-_JSRdQxvCukpoiT7-d-tMI0znvhKOJJrZaOezbInsEr2DMc4tJDBua5CWPiGCipr5hNvDaT5hCMwTVt4-MeiOwRvvzhy6dF_-2cM-wyGyta6zQiVN-KfnvPp6o8fjvAZCbwzw0IF4NKtDu9qhWHKN8BDCDTyHdg9Z6J5FVIBKKNy8h0pk_DhTuSGTbAtB3fUZI8Jkd_MnGeVXSJFVE4Ptkw3OjdfZ84OnSKWk_D-3ZyQr0txQUKhYQ-6peh_iwYM1_TFB31VxWwsk1mFru944JQLiUMc5u1JGNtRsqGWZ9e7XL-F44Obn9QNmvnwVbZ946iEJhLY4ypcZVQBCUmBlzLCUeqRljYfFMfXKA__wZgPDvZTH8pg8xdypzB0LQNwXjSon5dDw2Ek2vqz4sJ1v6rs23r9RD7UptdZEsShUt2i_2yQhkv7dj8DslapW_eeCsiVsajJHnZAsU3KNbroKMXuKPa86p6zcrvndujUMeSomkYHfw4IgyiWFcHkKu_W5vECUnhGxJ-ruub2HmxvJYwusXDg10ACnR-yRGOYES9wOu4sRYNYkpSJEieMu9I20zHzHZRRuXhTyxkmsdzl3DIPkaMqf5tuAI9mo11a7e_Ohi1tPRs0XUnJ4Y5p-_NFYPvxRpTXiKS1X8ijbFjziJ7N7mCmtwBwHSALwiALv3vclMs33GwAnHH53Pku2IY2WuMmkfAM5DwXTpUUcGhLNDZ7rjY6PzyIhebJH6rYxgCK7SIwgpQPKWRjn0z2xwdLXMbVrt1Hhfqx7o1xcZY2kIGD7Q6y3FtJiRVRuzkUq_?></g></svg>