<svg xmlns="http://www.w3.org/2000/svg" xmlns:xlink="http://www.w3.org/1999/xlink" contentStyleType="text/css" data-diagram-type="STATE" height="711px" preserveAspectRatio="none" style="width:821px;height:711px;" version="1.1" viewBox="0 0 821 711" width="821px" zoomAndPan="magnify"><title>DBC-Driven Code Generation &#8212; Single Source of Truth</title><defs/><g><g class="title" data-source-line="14"><text fill="#000000" font-family="Inter" font-size="14" font-weight="bold" lengthAdjust="spacing" textLength="367.582" x="216.709" y="24.5332">DBC-Driven Code Generation &#8212; Single Source of Truth</text></g><!--cluster CODEGEN--><g class="cluster" data-entity="CODEGEN" data-source-line="25" data-uid="ent0008" id="cluster_CODEGEN"><path d="M183.5,428.6094 L795.5,428.6094 A12.5,12.5 0 0 1 808,441.1094 L808,466.3125 L171,466.3125 L171,441.1094 A12.5,12.5 0 0 1 183.5,428.6094" fill="#E8F0FE"/><rect fill="none" height="152" rx="12.5" ry="12.5" style="stroke:#1A73E8;stroke-width:0.5;" width="637" x="171" y="428.6094"/><line style="stroke:#1A73E8;stroke-width:0.5;" x1="171" x2="808" y1="466.3125" y2="466.3125"/><text fill="#000000" font-family="Inter" font-size="13" lengthAdjust="spacing" textLength="96.1226" x="441.4387" y="446.1045">Generated Code</text><text fill="#000000" font-family="Inter" font-size="13" lengthAdjust="spacing" textLength="109.8271" x="434.5864" y="462.4561">lecture.h / lecture.c</text></g><g id="CODEGEN.STRUCT"><rect fill="#E8F0FE" height="69.0547" rx="12.5" ry="12.5" style="stroke:#1A73E8;stroke-width:0.5;" width="169.6079" x="614" y="487.6094"/><line style="stroke:#1A73E8;stroke-width:0.5;" x1="614" x2="783.6079" y1="546.6641" y2="546.6641"/><text fill="#000000" font-family="Inter" font-size="13" lengthAdjust="spacing" textLength="87.4136" x="624" y="506.1045">Cluster_t struct</text><text fill="#000000" font-family="Inter" font-size="13" lengthAdjust="spacing" textLength="149.6079" x="624" y="522.4561">{speed, Left_Turn_Signal,</text><text fill="#000000" font-family="Inter" font-size="13" lengthAdjust="spacing" textLength="112.0171" x="624" y="538.8076">Right_Turn_Signal}</text></g><g id="CODEGEN.PACK"><rect fill="#E8F0FE" height="52.7031" rx="12.5" ry="12.5" style="stroke:#1A73E8;stroke-width:0.5;" width="157.3125" x="214.5" y="495.6094"/><line style="stroke:#1A73E8;stroke-width:0.5;" x1="214.5" x2="371.8125" y1="538.3125" y2="538.3125"/><text fill="#000000" font-family="Inter" font-size="13" lengthAdjust="spacing" textLength="132.2153" x="224.5" y="514.1045">Pack_Cluster_lecture()</text><text fill="#000000" font-family="Inter" font-size="13" lengthAdjust="spacing" textLength="137.3125" x="224.5" y="530.4561">encode to CAN payload</text></g><g id="CODEGEN.UNPACK"><rect fill="#E8F0FE" height="52.7031" rx="12.5" ry="12.5" style="stroke:#1A73E8;stroke-width:0.5;" width="172.4707" x="407" y="495.6094"/><line style="stroke:#1A73E8;stroke-width:0.5;" x1="407" x2="579.4707" y1="538.3125" y2="538.3125"/><text fill="#000000" font-family="Inter" font-size="13" lengthAdjust="spacing" textLength="147.3926" x="417" y="514.1045">Unpack_Cluster_lecture()</text><text fill="#000000" font-family="Inter" font-size="13" lengthAdjust="spacing" textLength="152.4707" x="417" y="530.4561">decode from CAN payload</text></g><path d="M19.5,45.6094 L742.9116,45.6094 A12.5,12.5 0 0 1 755.4116,58.1094 L755.4116,88.3125 L7,88.3125 L7,58.1094 A12.5,12.5 0 0 1 19.5,45.6094" fill="#E8F0FE"/><rect fill="none" height="117.4063" rx="12.5" ry="12.5" style="stroke:#1A73E8;stroke-width:0.5;" width="748.4116" x="7" y="45.6094"/><line style="stroke:#1A73E8;stroke-width:0.5;" x1="7" x2="755.4116" y1="88.3125" y2="88.3125"/><text fill="#000000" font-family="Inter" font-size="13" lengthAdjust="spacing" textLength="99.0044" x="325.5718" y="64.1045">tools/Lecture.dbc</text><text fill="#000000" font-family="Inter" font-size="13" lengthAdjust="spacing" textLength="111.2681" x="325.5718" y="80.4561">CAN Database File</text><g id="DBC.MSG"><rect fill="#E8F0FE" height="50" rx="12.5" ry="12.5" style="stroke:#1A73E8;stroke-width:0.5;" width="213.6606" x="19" y="101.8125"/><line style="stroke:#1A73E8;stroke-width:0.5;" x1="19" x2="232.6606" y1="128.1641" y2="128.1641"/><text fill="#000000" font-family="Inter" font-size="13" lengthAdjust="spacing" textLength="193.6606" x="29" y="120.3076">BO_ 101 Cluster: 3 ECU_Student</text></g><g id="DBC.SIG1"><rect fill="#E8F0FE" height="52.7031" rx="12.5" ry="12.5" style="stroke:#1A73E8;stroke-width:0.5;" width="145.3535" x="251.5" y="100.3125"/><line style="stroke:#1A73E8;stroke-width:0.5;" x1="251.5" x2="396.8535" y1="143.0156" y2="143.0156"/><text fill="#000000" font-family="Inter" font-size="13" lengthAdjust="spacing" textLength="125.3535" x="261.5" y="118.8076">SG_ speed: 9|12@1+</text><text fill="#000000" font-family="Inter" font-size="13" lengthAdjust="spacing" textLength="77.0923" x="261.5" y="135.1592">(1,0) [0|4095]</text></g><g id="DBC.SIG2"><rect fill="#E8F0FE" height="52.7031" rx="12.5" ry="12.5" style="stroke:#1A73E8;stroke-width:0.5;" width="152.2471" x="415" y="100.3125"/><line style="stroke:#1A73E8;stroke-width:0.5;" x1="415" x2="567.2471" y1="143.0156" y2="143.0156"/><text fill="#000000" font-family="Inter" font-size="13" lengthAdjust="spacing" textLength="132.2471" x="425" y="118.8076">SG_ Left_Turn_Signal:</text><text fill="#000000" font-family="Inter" font-size="13" lengthAdjust="spacing" textLength="45.8555" x="425" y="135.1592">8|1@1+</text></g><g id="DBC.SIG3"><rect fill="#E8F0FE" height="52.7031" rx="12.5" ry="12.5" style="stroke:#1A73E8;stroke-width:0.5;" width="160.9116" x="585.5" y="100.3125"/><line style="stroke:#1A73E8;stroke-width:0.5;" x1="585.5" x2="746.4116" y1="143.0156" y2="143.0156"/><text fill="#000000" font-family="Inter" font-size="13" lengthAdjust="spacing" textLength="140.9116" x="595.5" y="118.8076">SG_ Right_Turn_Signal:</text><text fill="#000000" font-family="Inter" font-size="13" lengthAdjust="spacing" textLength="53.0854" x="595.5" y="135.1592">21|1@1+</text></g><g id="GEN"><rect fill="#E8F0FE" height="52.7031" rx="12.5" ry="12.5" style="stroke:#1A73E8;stroke-width:0.5;" width="113.2217" x="122.5" y="272.1094"/><line style="stroke:#1A73E8;stroke-width:0.5;" x1="122.5" x2="235.7217" y1="314.8125" y2="314.8125"/><text fill="#000000" font-family="Inter" font-size="13" lengthAdjust="spacing" textLength="64.3081" x="132.5" y="290.6045">c-coderdbc</text><text fill="#000000" font-family="Inter" font-size="13" lengthAdjust="spacing" textLength="93.2217" x="132.5" y="306.9561">Code Generator</text></g><g id="TXFW"><rect fill="#E8F0FE" height="52.7031" rx="12.5" ry="12.5" style="stroke:#1A73E8;stroke-width:0.5;" width="94.3882" x="246" y="652.6094"/><line style="stroke:#1A73E8;stroke-width:0.5;" x1="246" x2="340.3882" y1="695.3125" y2="695.3125"/><text fill="#000000" font-family="Inter" font-size="13" lengthAdjust="spacing" textLength="74.3882" x="256" y="671.1045">TX Firmware</text><text fill="#000000" font-family="Inter" font-size="13" lengthAdjust="spacing" textLength="59.249" x="256" y="687.4561">(tx_board)</text></g><g id="RXFW"><rect fill="#E8F0FE" height="52.7031" rx="12.5" ry="12.5" style="stroke:#1A73E8;stroke-width:0.5;" width="95.8354" x="445" y="652.6094"/><line style="stroke:#1A73E8;stroke-width:0.5;" x1="445" x2="540.8354" y1="695.3125" y2="695.3125"/><text fill="#000000" font-family="Inter" font-size="13" lengthAdjust="spacing" textLength="75.8354" x="455" y="671.1045">RX Firmware</text><text fill="#000000" font-family="Inter" font-size="13" lengthAdjust="spacing" textLength="59.9663" x="455" y="687.4561">(rx_board)</text></g><g class="entity" data-entity="GMN2" data-source-line="40" data-uid="ent0003" id="entity_GMN2"><path d="M271,240.6094 L271,294.6094 L235.78,298.6094 L271,302.6094 L271,356.2656 A0,0 0 0 0 271,356.2656 L467.4121,356.2656 A0,0 0 0 0 467.4121,356.2656 L467.4121,250.6094 L457.4121,240.6094 L271,240.6094 A0,0 0 0 0 271,240.6094" fill="#FFF3E0" style="stroke:#E65100;stroke-width:0.5;"/><path d="M457.4121,240.6094 L457.4121,250.6094 L467.4121,250.6094 L457.4121,240.6094" fill="#FFF3E0" style="stroke:#E65100;stroke-width:0.5;"/><text fill="#000000" font-family="Inter" font-size="12" lengthAdjust="spacing" textLength="128.7363" x="277" y="258.0664">Tool: astand/c-coderdbc</text><text fill="#000000" font-family="Inter" font-size="12" lengthAdjust="spacing" textLength="111.3867" x="277" y="273.1602">Command: coderdbc</text><text fill="#000000" font-family="Inter" font-size="12" lengthAdjust="spacing" textLength="72.7031" x="283.668" y="288.2539">-i Lecture.dbc</text><text fill="#000000" font-family="Inter" font-size="12" lengthAdjust="spacing" textLength="89.3848" x="283.668" y="303.3477">-o lib/Generated/</text><text fill="#000000" font-family="Inter" font-size="12" lengthAdjust="spacing" textLength="3.334" x="277" y="318.4414">&#160;</text><text fill="#000000" font-family="Inter" font-size="12" lengthAdjust="spacing" textLength="140.0801" x="277" y="333.5352">Never edit generated files.</text><text fill="#000000" font-family="Inter" font-size="12" lengthAdjust="spacing" textLength="175.4121" x="277" y="348.6289">DBC is the single source of truth.</text></g><g class="entity" data-entity="GMN5" data-source-line="50" data-uid="ent0006" id="entity_GMN5"><path d="M502,271.1094 L502,326.3906 A0,0 0 0 0 502,326.3906 L666.3965,326.3906 A0,0 0 0 0 666.3965,326.3906 L666.3965,281.1094 L656.3965,271.1094 L559.9,271.1094 L441.91,162.8694 L551.9,271.1094 L502,271.1094 A0,0 0 0 0 502,271.1094" fill="#FFF3E0" style="stroke:#E65100;stroke-width:0.5;"/><path d="M656.3965,271.1094 L656.3965,281.1094 L666.3965,281.1094 L656.3965,271.1094" fill="#FFF3E0" style="stroke:#E65100;stroke-width:0.5;"/><text fill="#000000" font-family="Inter" font-size="12" lengthAdjust="spacing" textLength="143.3965" x="508" y="288.5664">Edit DBC -&gt; re-generate -&gt;</text><text fill="#000000" font-family="Inter" font-size="12" lengthAdjust="spacing" textLength="121.3828" x="508" y="303.6602">rebuild both firmwares.</text><text fill="#000000" font-family="Inter" font-size="12" lengthAdjust="spacing" textLength="118.7285" x="508" y="318.7539">No manual bit shifting.</text></g><!--link DBC to GEN--><g class="link" data-entity-1="DBC" data-entity-2="GEN" data-source-line="34" data-uid="lnk2" id="link_DBC_GEN"><path d="M320.39,162.8694 C282.28,199.1894 239.313,240.1295 210.233,267.8495" fill="none" id="DBC-to-GEN" style="stroke:#181818;stroke-width:1;"/><polygon fill="#181818" points="205.89,271.9894,215.1644,268.6749,209.5092,268.5395,209.6446,262.8843,205.89,271.9894" style="stroke:#181818;stroke-width:1;"/><text fill="#000000" font-family="Inter" font-size="13" lengthAdjust="spacing" textLength="28.1899" x="287" y="207.1045">input</text></g><!--link GEN to CODEGEN--><g class="link" data-entity-1="GEN" data-entity-2="CODEGEN" data-source-line="35" data-uid="lnk3" id="link_GEN_CODEGEN"><path d="M179,325.4494 C179,339.8294 179,358.9813 179,379.6855 C179,390.0376 179,400.7778 179,411.5036 C179,416.8665 179,422.2259 179,427.5313 C179,427.8629 179,422.1943 179,422.5254" fill="none" id="GEN-to-CODEGEN" style="stroke:#181818;stroke-width:1;"/><polygon fill="#181818" points="179,428.5254,183,419.5254,179,423.5254,175,419.5254,179,428.5254" style="stroke:#181818;stroke-width:1;"/><text fill="#000000" font-family="Inter" font-size="13" lengthAdjust="spacing" textLength="51.3208" x="180" y="401.1045">generate</text></g><!--link PACK to TXFW--><g class="link" data-entity-1="PACK" data-entity-2="TXFW" data-source-line="36" data-uid="lnk4" id="link_PACK_TXFW"><path d="M293,548.7094 C293,577.4194 293,617.7394 293,646.4794" fill="none" id="PACK-to-TXFW" style="stroke:#181818;stroke-width:1;"/><polygon fill="#181818" points="293,652.4794,297,643.4794,293,647.4794,289,643.4794,293,652.4794" style="stroke:#181818;stroke-width:1;"/><text fill="#000000" font-family="Inter" font-size="13" lengthAdjust="spacing" textLength="80.1963" x="294" y="619.1045">compile &amp; link</text></g><!--link UNPACK to RXFW--><g class="link" data-entity-1="UNPACK" data-entity-2="RXFW" data-source-line="37" data-uid="lnk5" id="link_UNPACK_RXFW"><path d="M493,548.7094 C493,577.4194 493,617.7394 493,646.4794" fill="none" id="UNPACK-to-RXFW" style="stroke:#181818;stroke-width:1;"/><polygon fill="#181818" points="493,652.4794,497,643.4794,493,647.4794,489,643.4794,493,652.4794" style="stroke:#181818;stroke-width:1;"/><text fill="#000000" font-family="Inter" font-size="13" lengthAdjust="spacing" textLength="80.1963" x="494" y="619.1045">compile &amp; link</text></g><!--SRC=[TLJRJjj047ttLunQgGAL43ifBUG15HmxGgK1nOcAr5JMsZj9LZYxqNfDBu3KZ-WNzaiwkt5kGD-ScNFEp9pPINahv89fDeUCvRTJhIh9GrKe3KOpML8AfV7ADOhZX5M5YPKqVJP7k906zLQ-DCmWt7i0vq_qNaV7iHz7DgCqHrr7WxCFxUYOebOo4RyGWhRtkAKerVy4upXkH_vJmUZzKU3xEu8j4lICC0L2zpniTBMuGmcXuWWzbAYP4Kh2tzz_815oIgX4LJf7K1COwihCF6yvrYkZL54sBp4tbSP3dkLZ6PxreSiCorY948i2Nm4hRHdNSyqxlqeXy0C8YwealphGXYWSfOcfEDdh69-JtWQVz58e5uYy0oSFGUjZy7Oizu83Vn- - -W_l_9EZRuwJNFI2NT8bJamwhBHC4p6LhEYCvV53GFmLlhMB7uZfx2cX5Ummx3PMy-UDd4pJoy6tx5FQeNjHVmsjCyYTpsDPrARDe0chxzonmgjkHCnjlsgVKaC1NULcBE-T7GVF1ZmOosSpF2vR7mv6uN2ZUKtF9rq9rntixOybIZiJ60LsbGlsir2CEuNhi_3JXZ-Yz_Yo0aUdCD5g_anZr7Sg6mk7D_HAzFmx7HRjrFn8CyKqttVWuKtyPOKRxE3q3cvWSPvzOut6gNKTEa3dKXdFVjlOojCEJEizUBOFbxDLA96h-OAUAxo1GiXRRzce0mnU17Zk4BKrsnw6tJN0a0wYGoqP9dbpypee4whvd89MPXq3Q0ZOkfvbI95-rbo_bwP7uJxUeGRamgm7u32XRif3ojh9HGbcXb0k3xPS7won1tleeUJkdwDkErF6q7OeJrnIYAooC_0KD3PMDUWd9JLcbIYu9Ssew789hd1V0GrLiG8oufSpCJ5KVwlQFm00]--></g></svg>