<svg xmlns="http://www.w3.org/2000/svg" xmlns:xlink="http://www.w3.org/1999/xlink" contentStyleType="text/css" data-diagram-type="STATE" height="1086px" preserveAspectRatio="none" style="width:939px;height:1086px;" version="1.1" viewBox="0 0 939 1086" width="939px" zoomAndPan="magnify"><title>CAN-Demo-ESP32 &#8212; System Overview</title><defs/><g><g class="title" data-source-line="14"><text fill="#000000" font-family="Inter" font-size="14" font-weight="bold" lengthAdjust="spacing" textLength="260.3125" x="332.7051" y="24.5332">CAN-Demo-ESP32 &#8212; System Overview</text></g><!--cluster TX--><g class="cluster" data-entity="TX" data-source-line="16" data-uid="ent0002" id="cluster_TX"><path d="M354.5,45.6094 L828.5,45.6094 A12.5,12.5 0 0 1 841,58.1094 L841,66.9609 L342,66.9609 L342,58.1094 A12.5,12.5 0 0 1 354.5,45.6094" fill="#E8F0FE"/><rect fill="none" height="120" rx="12.5" ry="12.5" style="stroke:#1A73E8;stroke-width:0.5;" width="499" x="342" y="45.6094"/><line style="stroke:#1A73E8;stroke-width:0.5;" x1="342" x2="841" y1="66.9609" y2="66.9609"/><text fill="#000000" font-family="Inter" font-size="13" lengthAdjust="spacing" textLength="123.5571" x="529.7214" y="63.1045">TX ESP32 (tx_board)</text></g><!--cluster RX--><g class="cluster" data-entity="RX" data-source-line="22" data-uid="ent0005" id="cluster_RX"><path d="M19.5,264.6094 L622.5,264.6094 A12.5,12.5 0 0 1 635,277.1094 L635,285.9609 L7,285.9609 L7,277.1094 A12.5,12.5 0 0 1 19.5,264.6094" fill="#E8F0FE"/><rect fill="none" height="694" rx="12.5" ry="12.5" style="stroke:#1A73E8;stroke-width:0.5;" width="628" x="7" y="264.6094"/><line style="stroke:#1A73E8;stroke-width:0.5;" x1="7" x2="635" y1="285.9609" y2="285.9609"/><text fill="#000000" font-family="Inter" font-size="13" lengthAdjust="spacing" textLength="125.7217" x="258.1392" y="282.1045">RX ESP32 (rx_board)</text></g><g id="TX.TX_CAN"><rect fill="#E8F0FE" height="50" rx="12.5" ry="12.5" style="stroke:#1A73E8;stroke-width:0.5;" width="125.5044" x="366" y="90.1094"/><line style="stroke:#1A73E8;stroke-width:0.5;" x1="366" x2="491.5044" y1="116.4609" y2="116.4609"/><text fill="#000000" font-family="Inter" font-size="13" lengthAdjust="spacing" textLength="105.5044" x="376" y="108.6045">CAN0 at 500 kbps</text></g><g id="TX.TX_DATA"><rect fill="#E8F0FE" height="52.7031" rx="12.5" ry="12.5" style="stroke:#1A73E8;stroke-width:0.5;" width="136.7144" x="660.5" y="88.6094"/><line style="stroke:#1A73E8;stroke-width:0.5;" x1="660.5" x2="797.2144" y1="131.3125" y2="131.3125"/><text fill="#000000" font-family="Inter" font-size="13" lengthAdjust="spacing" textLength="52.019" x="670.5" y="107.1045">Cluster_t</text><text fill="#000000" font-family="Inter" font-size="13" lengthAdjust="spacing" textLength="116.7144" x="670.5" y="123.4561">speed + turn signals</text></g><g id="RX.CAN_IF"><rect fill="#E8F0FE" height="52.7031" rx="12.5" ry="12.5" style="stroke:#1A73E8;stroke-width:0.5;" width="181.4971" x="338.5" y="307.6094"/><line style="stroke:#1A73E8;stroke-width:0.5;" x1="338.5" x2="519.9971" y1="350.3125" y2="350.3125"/><text fill="#000000" font-family="Inter" font-size="13" lengthAdjust="spacing" textLength="74.4326" x="348.5" y="326.1045">CanInterface</text><text fill="#000000" font-family="Inter" font-size="13" lengthAdjust="spacing" textLength="161.4971" x="348.5" y="342.4561">ISR: validate + unpack DBC</text></g><g id="RX.EQ"><rect fill="#E8F0FE" height="52.7031" rx="12.5" ry="12.5" style="stroke:#1A73E8;stroke-width:0.5;" width="177.4854" x="340.5" y="464.1094"/><line style="stroke:#1A73E8;stroke-width:0.5;" x1="340.5" x2="517.9854" y1="506.8125" y2="506.8125"/><text fill="#000000" font-family="Inter" font-size="13" lengthAdjust="spacing" textLength="72.2744" x="350.5" y="482.6045">EventQueue</text><text fill="#000000" font-family="Inter" font-size="13" lengthAdjust="spacing" textLength="157.4854" x="350.5" y="498.9561">FreeRTOS (ISR-safe push)</text></g><g id="RX.SC"><rect fill="#E8F0FE" height="52.7031" rx="12.5" ry="12.5" style="stroke:#1A73E8;stroke-width:0.5;" width="165.9517" x="346" y="603.6094"/><line style="stroke:#1A73E8;stroke-width:0.5;" x1="346" x2="511.9517" y1="646.3125" y2="646.3125"/><text fill="#000000" font-family="Inter" font-size="13" lengthAdjust="spacing" textLength="99.6963" x="356" y="622.1045">SystemController</text><text fill="#000000" font-family="Inter" font-size="13" lengthAdjust="spacing" textLength="145.9517" x="356" y="638.4561">State Machine (Dispatch)</text></g><g id="RX.MR"><rect fill="#E8F0FE" height="52.7031" rx="12.5" ry="12.5" style="stroke:#1A73E8;stroke-width:0.5;" width="181.8462" x="213" y="734.6094"/><line style="stroke:#1A73E8;stroke-width:0.5;" x1="213" x2="394.8462" y1="777.3125" y2="777.3125"/><text fill="#000000" font-family="Inter" font-size="13" lengthAdjust="spacing" textLength="91.7681" x="223" y="753.1045">MessageRouter</text><text fill="#000000" font-family="Inter" font-size="13" lengthAdjust="spacing" textLength="161.8462" x="223" y="769.4561">Pub/Sub Bus (sticky values)</text></g><g id="RX.UI"><rect fill="#E8F0FE" height="52.7031" rx="12.5" ry="12.5" style="stroke:#1A73E8;stroke-width:0.5;" width="142.1289" x="31" y="881.6094"/><line style="stroke:#1A73E8;stroke-width:0.5;" x1="31" x2="173.1289" y1="924.3125" y2="924.3125"/><text fill="#000000" font-family="Inter" font-size="13" lengthAdjust="spacing" textLength="68.6309" x="41" y="900.1045">UiController</text><text fill="#000000" font-family="Inter" font-size="13" lengthAdjust="spacing" textLength="122.1289" x="41" y="916.4561">LVGL v9.1 on Core 1</text></g><g id="RX.IO"><rect fill="#E8F0FE" height="52.7031" rx="12.5" ry="12.5" style="stroke:#1A73E8;stroke-width:0.5;" width="172.4326" x="208" y="881.6094"/><line style="stroke:#1A73E8;stroke-width:0.5;" x1="208" x2="380.4326" y1="924.3125" y2="924.3125"/><text fill="#000000" font-family="Inter" font-size="13" lengthAdjust="spacing" textLength="56.3608" x="218" y="900.1045">IOModule</text><text fill="#000000" font-family="Inter" font-size="13" lengthAdjust="spacing" textLength="152.4326" x="218" y="916.4561">Relay Driver (GPIO 32/33)</text></g><g id="RX.HM"><rect fill="#E8F0FE" height="52.7031" rx="12.5" ry="12.5" style="stroke:#1A73E8;stroke-width:0.5;" width="187.6226" x="415" y="881.6094"/><line style="stroke:#1A73E8;stroke-width:0.5;" x1="415" x2="602.6226" y1="924.3125" y2="924.3125"/><text fill="#000000" font-family="Inter" font-size="13" lengthAdjust="spacing" textLength="80.9263" x="425" y="900.1045">HealthMonitor</text><text fill="#000000" font-family="Inter" font-size="13" lengthAdjust="spacing" textLength="167.6226" x="425" y="916.4561">Timeout Watchdog (1500ms)</text></g><g id="TFT"><rect fill="#E8F0FE" height="50" rx="12.5" ry="12.5" style="stroke:#1A73E8;stroke-width:0.5;" width="123.2827" x="40.5" y="1030.6094"/><line style="stroke:#1A73E8;stroke-width:0.5;" x1="40.5" x2="163.7827" y1="1056.9609" y2="1056.9609"/><text fill="#000000" font-family="Inter" font-size="13" lengthAdjust="spacing" textLength="103.2827" x="50.5" y="1049.1045">TFT Display (SPI)</text></g><g id="RLY"><rect fill="#E8F0FE" height="50" rx="12.5" ry="12.5" style="stroke:#1A73E8;stroke-width:0.5;" width="134.8735" x="226.5" y="1030.6094"/><line style="stroke:#1A73E8;stroke-width:0.5;" x1="226.5" x2="361.3735" y1="1056.9609" y2="1056.9609"/><text fill="#000000" font-family="Inter" font-size="13" lengthAdjust="spacing" textLength="114.8735" x="236.5" y="1049.1045">Relays (Left / Right)</text></g><g class="entity" data-entity="GMN2" data-source-line="49" data-uid="ent0003" id="entity_GMN2"><path d="M733,306.6094 L733,361.8906 L932.7227,361.8906 L932.7227,316.6094 L922.7227,306.6094 L733,306.6094" fill="#FFF3E0" style="stroke:#E65100;stroke-width:0.5;"/><path d="M922.7227,306.6094 L922.7227,316.6094 L932.7227,316.6094 L922.7227,306.6094" fill="#FFF3E0" style="stroke:#E65100;stroke-width:1;"/><text fill="#000000" font-family="Inter" font-size="12" lengthAdjust="spacing" textLength="178.7227" x="739" y="324.0664">TX sends Cluster frame (ID 0x65)</text><text fill="#000000" font-family="Inter" font-size="12" lengthAdjust="spacing" textLength="146.7363" x="739" y="339.1602">at 10 Hz with speed (12-bit)</text><text fill="#000000" font-family="Inter" font-size="12" lengthAdjust="spacing" textLength="168.0879" x="739" y="354.2539">and turn signal bits (1-bit each).</text></g><g class="entity" data-entity="GMN5" data-source-line="55" data-uid="ent0006" id="entity_GMN5"><path d="M659.5,455.6094 L659.5,525.9844 L862.5918,525.9844 L862.5918,465.6094 L852.5918,455.6094 L659.5,455.6094" fill="#FFF3E0" style="stroke:#E65100;stroke-width:0.5;"/><path d="M852.5918,455.6094 L852.5918,465.6094 L862.5918,465.6094 L852.5918,455.6094" fill="#FFF3E0" style="stroke:#E65100;stroke-width:1;"/><text fill="#000000" font-family="Inter" font-size="12" lengthAdjust="spacing" textLength="174.0645" x="665.5" y="473.0664">ISR does minimal work: validate,</text><text fill="#000000" font-family="Inter" font-size="12" lengthAdjust="spacing" textLength="170.1035" x="665.5" y="488.1602">unpack DBC, push to queue. All</text><text fill="#000000" font-family="Inter" font-size="12" lengthAdjust="spacing" textLength="182.0918" x="665.5" y="503.2539">business logic runs in task context</text><text fill="#000000" font-family="Inter" font-size="12" lengthAdjust="spacing" textLength="157.4121" x="665.5" y="518.3477">on Core 0. UI runs on Core 1.</text></g><!--reverse link TX_CAN to TX_DATA--><g class="link" data-entity-1="TX_CAN" data-entity-2="TX_DATA" data-source-line="19" data-uid="lnk3" id="link_TX_CAN_TX_DATA"><path d="M498.26,115.1094 C547.51,115.1094 609.77,115.1094 660.34,115.1094" fill="none" id="TX_CAN-backto-TX_DATA" style="stroke:#181818;stroke-width:1;"/><polygon fill="#181818" points="492.26,115.1094,501.26,119.1094,497.26,115.1094,501.26,111.1094,492.26,115.1094" style="stroke:#181818;stroke-width:1;"/><text fill="#000000" font-family="Inter" font-size="13" lengthAdjust="spacing" textLength="132.2153" x="510.25" y="108.6045">Pack_Cluster_lecture()</text></g><!--link CAN_IF to EQ--><g class="link" data-entity-1="CAN_IF" data-entity-2="EQ" data-source-line="31" data-uid="lnk4" id="link_CAN_IF_EQ"><path d="M429,360.6194 C429,389.2494 429,429.4194 429,458.0594" fill="none" id="CAN_IF-to-EQ" style="stroke:#181818;stroke-width:1;"/><polygon fill="#181818" points="429,464.0594,433,455.0594,429,459.0594,425,455.0594,429,464.0594" style="stroke:#181818;stroke-width:1;"/><text fill="#000000" font-family="Inter" font-size="13" lengthAdjust="spacing" textLength="78.7363" x="430" y="406.1045">ClusterFrame</text><text fill="#000000" font-family="Inter" font-size="13" lengthAdjust="spacing" textLength="51.2827" x="443.7268" y="422.4561">from ISR</text></g><!--link EQ to SC--><g class="link" data-entity-1="EQ" data-entity-2="SC" data-source-line="32" data-uid="lnk5" id="link_EQ_SC"><path d="M429,517.1494 C429,541.6894 429,572.5894 429,597.2394" fill="none" id="EQ-to-SC" style="stroke:#181818;stroke-width:1;"/><polygon fill="#181818" points="429,603.2394,433,594.2394,429,598.2394,425,594.2394,429,603.2394" style="stroke:#181818;stroke-width:1;"/><text fill="#000000" font-family="Inter" font-size="13" lengthAdjust="spacing" textLength="88.5244" x="430" y="570.1045">Pop + Dispatch</text></g><!--link SC to MR--><g class="link" data-entity-1="SC" data-entity-2="MR" data-source-line="33" data-uid="lnk6" id="link_SC_MR"><path d="M404,656.9094 C382.2,679.3994 354.915,707.5602 333.125,730.0502" fill="none" id="SC-to-MR" style="stroke:#181818;stroke-width:1;"/><polygon fill="#181818" points="328.95,734.3594,338.0854,730.679,332.4292,730.7684,332.3398,725.1123,328.95,734.3594" style="stroke:#181818;stroke-width:1;"/><text fill="#000000" font-family="Inter" font-size="13" lengthAdjust="spacing" textLength="83.8145" x="375" y="701.1045">PublishCluster</text></g><!--link MR to UI--><g class="link" data-entity-1="MR" data-entity-2="UI" data-source-line="34" data-uid="lnk7" id="link_MR_UI"><path d="M212.95,777.4594 C168.59,786.9094 121.86,800.4994 108,817.6094 C93.69,835.2794 92.935,855.955 95.625,875.575" fill="none" id="MR-to-UI" style="stroke:#181818;stroke-width:1;"/><polygon fill="#181818" points="96.44,881.5194,99.1804,872.0595,95.7608,876.5657,91.2546,873.1461,96.44,881.5194" style="stroke:#181818;stroke-width:1;"/><text fill="#000000" font-family="Inter" font-size="13" lengthAdjust="spacing" textLength="55.6372" x="145.4863" y="832.1045">subscribe</text><text fill="#000000" font-family="Inter" font-size="13" lengthAdjust="spacing" textLength="128.6099" x="109" y="848.4561">(speed arc, indicators)</text></g><!--link MR to IO--><g class="link" data-entity-1="MR" data-entity-2="IO" data-source-line="35" data-uid="lnk8" id="link_MR_IO"><path d="M271.07,787.7094 C262.58,796.2094 254.55,806.3994 250,817.6094 C244.31,831.6094 245.03,837.3394 250,851.6094 C253.76,862.4094 256.7835,868.0596 263.9635,876.7696" fill="none" id="MR-to-IO" style="stroke:#181818;stroke-width:1;"/><polygon fill="#181818" points="267.78,881.3994,265.1418,871.9104,264.5996,877.5413,258.9688,876.9991,267.78,881.3994" style="stroke:#181818;stroke-width:1;"/><text fill="#000000" font-family="Inter" font-size="13" lengthAdjust="spacing" textLength="55.6372" x="272.6709" y="832.1045">subscribe</text><text fill="#000000" font-family="Inter" font-size="13" lengthAdjust="spacing" textLength="98.979" x="251" y="848.4561">(relay blink state)</text></g><!--link MR to HM--><g class="link" data-entity-1="MR" data-entity-2="HM" data-source-line="36" data-uid="lnk9" id="link_MR_HM"><path d="M326.86,787.9294 C347.38,810.7394 376.33,841.8294 390,851.6094 C406.13,863.1494 419.5969,870.725 437.5369,879.045" fill="none" id="MR-to-HM" style="stroke:#181818;stroke-width:1;"/><polygon fill="#181818" points="442.98,881.5694,436.4982,874.1541,438.4441,879.4658,433.1324,881.4116,442.98,881.5694" style="stroke:#181818;stroke-width:1;"/><text fill="#000000" font-family="Inter" font-size="13" lengthAdjust="spacing" textLength="116.3208" x="391" y="840.1045">last-seen timestamp</text></g><!--link HM to SC--><g class="link" data-entity-1="HM" data-entity-2="SC" data-source-line="37" data-uid="lnk10" id="link_HM_SC"><path d="M512.54,881.4694 C514.37,863.4794 515.56,838.9294 512,817.6094 C501.86,756.8894 494.64,741.6194 467,686.6094 C461.86,676.3794 458.5416,670.7572 452.1416,661.6572" fill="none" id="HM-to-SC" style="stroke:#181818;stroke-width:1;"/><polygon fill="#181818" points="448.69,656.7494,450.5956,666.4121,451.5664,660.8392,457.1393,661.81,448.69,656.7494" style="stroke:#181818;stroke-width:1;"/><text fill="#000000" font-family="Inter" font-size="13" lengthAdjust="spacing" textLength="84.519" x="507" y="766.6045">FrameTimeout</text></g><!--link TX_CAN to CAN_IF--><g class="link" data-entity-1="TX_CAN" data-entity-2="CAN_IF" data-source-line="43" data-uid="lnk11" id="link_TX_CAN_CAN_IF"><path d="M429,140.1594 C429,181.4294 429,259.3594 429,301.6094" fill="none" id="TX_CAN-to-CAN_IF" style="stroke:#181818;stroke-width:1;"/><polygon fill="#181818" points="429,307.6094,433,298.6094,429,302.6094,425,298.6094,429,307.6094" style="stroke:#181818;stroke-width:1;"/><text fill="#000000" font-family="Inter" font-size="13" lengthAdjust="spacing" textLength="53.46" x="451.6741" y="204.1045">CAN Bus</text><text fill="#000000" font-family="Inter" font-size="13" lengthAdjust="spacing" textLength="96.8081" x="430" y="220.4561">CAN_H / CAN_L</text><text fill="#000000" font-family="Inter" font-size="13" lengthAdjust="spacing" textLength="52.7617" x="452.0232" y="236.8076">500 kbps</text></g><!--link UI to TFT--><g class="link" data-entity-1="UI" data-entity-2="TFT" data-source-line="45" data-uid="lnk12" id="link_UI_TFT"><path d="M102,934.7894 C102,961.7094 102,997.6994 102,1024.1594" fill="none" id="UI-to-TFT" style="stroke:#181818;stroke-width:1;"/><polygon fill="#181818" points="102,1030.1594,106,1021.1594,102,1025.1594,98,1021.1594,102,1030.1594" style="stroke:#181818;stroke-width:1;"/><text fill="#000000" font-family="Inter" font-size="13" lengthAdjust="spacing" textLength="104.0317" x="103" y="997.1045">SPI via TFT_eSPI</text></g><!--link IO to RLY--><g class="link" data-entity-1="IO" data-entity-2="RLY" data-source-line="46" data-uid="lnk13" id="link_IO_RLY"><path d="M294,934.7894 C294,961.7094 294,997.6994 294,1024.1594" fill="none" id="IO-to-RLY" style="stroke:#181818;stroke-width:1;"/><polygon fill="#181818" points="294,1030.1594,298,1021.1594,294,1025.1594,290,1021.1594,294,1030.1594" style="stroke:#181818;stroke-width:1;"/><text fill="#000000" font-family="Inter" font-size="13" lengthAdjust="spacing" textLength="72.2617" x="295" y="997.1045">GPIO output</text></g><!--link TX to GMN2--><g class="link" data-entity-1="TX" data-entity-2="GMN2" data-source-line="49" data-uid="lnk4" id="link_TX_GMN2"><path d="M833,166.1734 C833,166.4516 833,166.7306 833,167.0103 C833,168.129 833,169.2592 833,170.4002 C833,172.6822 833,175.0073 833,177.3695 C833,182.0938 833,186.9667 833,191.9406 C833,231.7319 833,277.9894 833,306.4094" fill="none" id="TX-GMN2" style="stroke:#181818;stroke-width:1;stroke-dasharray:7,7;"/></g><!--link RX to GMN5--><g class="link" data-entity-1="RX" data-entity-2="GMN5" data-source-line="55" data-uid="lnk7" id="link_RX_GMN5"><path d="M635.2659,344.6392 C635.3573,344.7447 635.4494,344.8509 635.5422,344.9578 C635.9132,345.3857 636.2947,345.8256 636.6864,346.2773 C637.4697,347.1806 638.2938,348.1309 639.1559,349.125 C646.0531,357.0781 655.3888,367.8419 665.8425,379.8944 C686.75,403.9994 712.13,433.2594 731.42,455.4994" fill="none" id="RX-GMN5" style="stroke:#181818;stroke-width:1;stroke-dasharray:7,7;"/></g><!--SRC=[TLJhRk965FxlfpZQ_d6qSMA2ijr6LIK2UB442skJNYGaDBOFCCAUeNCXoLQL-X1zmZv9pzW6awtw2to-yttdFdhFnO4fLa76ylrMIIkAeIob0gEOq0IXC9u-UnMuOROqaHJcCwiGOc5GNU3QC8FmXmVm-8tUT-EFKHYD7I9LWQgrzWRVzySVoUeaK_uLeTVt_hnG5FB_1ACewe_3RmN77-vxOVX6y8u4FSDDYJ0SV0v6MCbWd2xwT_3FNtz3-geDLZ0_eZfoVFQyfePtor-XSVBDopgJJ1LNxu1f8BjBf_KYmH2OWVimX7rsqAtBckmNJgMb66fjLjHIn0BUWx5AWEPRmSepPpHO3eZKiE7783WPuG4MLFtwf5DYJdpqhrnXROpadAvwasxoDbqcwf5jM8uh4QV90nnPoGi7lWTBFS_tC7eSrbJAOXr77Nbyf6NuOj4IDLA8oNAUWayYWMORX8FLkoRc-4j7Qjexf64eMPQeLYAjWHdBTrmW-2DEQsRobfeEE-eCjMPRJAGrZhUmsMrgCtYq6dnjUBv_TSbRr0rrbdJK9tuPSVhpfoaSVxZfWHGmb8fsecOynHqZdizaOKigBS6IlS98STe8y3yjuZdqxsxx_IPAFEyu4sIbsSsau4PIc2Mla7A5NrmvXTo2twErgDhq9ZEFc4rF8GX-eYxHNDkHHhJg57gZP0NKK78ar3cbGpTyUQ3fd1f585aTE4iSQBEIwrqhH21P7VWK4wXjfdF5CzBsczLZAhy6BWgUCqfQNtK4glCjGTMD87MnRog-S9xCoBbasWGQKO2XqicbEf07GUVCwxhQlbmiwp9QrkKuVJzTnErbHSlpDhlGDEOfRWpSGiAtEzFky_GtpsjFn8Lf6_hW_hZLM0bdcH39_KvNudIPdaSTSGmN_04eAXmvSrzhf0-FodSewHDQJvroFb3QNlq4PT8O6exSq57MHmeQHQ5F0uIDgvIkOGJXouTxrobw5NeXJBx2CpSxQBhlz-w2Z9iQ5iNbAm1afe9x3WQauxYwyIX0_Vxz9uN4fK1x0eL43HKNl2A5PwdstJrVaqjtqDVrUOAHyBixu1iOb2KvP5RJ4MeDfTpo79GLcfO33DDxoEc2yCMGr-bgmXktLRNJ-P0kilmN]--></g></svg>